{
.appVersion = "1213";
DisplayStrings = (
"/Ldot",
"/aringacute"
);
classes = (
{
automatic = 1;

glyphs = (
{
color = 3;
glyphname = A;
lastChange = "2019-02-15 20:57:47 +0000";
layers = (
{
anchors = (
{
name = bottom;
position = "{289.109, 0}";
},
{
name = ogonek;
position = "{551.238, 10}";
},
{
name = top;
position = "{397.762, 743}";
}
);
layerId = "0C3FD5EE-D923-4A4A-8FDE-164881635915";
paths = (
{
closed = 1;
nodes = (
"11.812 46.248 LINE",
"-56.188 35.069 LINE",
"-60.188 0 LINE",
"172.366 0 LINE",
"175.426 35.069 LINE",
"85.307 47.188 LINE",
"168.703 223.693 LINE",
"454.614 223.693 LINE",
"484.02 46.248 LINE",
"394.792 35.069 LINE",
"392.792 0 LINE",
"644.139 0 LINE",
"646.198 35.069 LINE",
"564.436 48.188 LINE",
"436.851 748.762 LINE",
"356.267 748.762 LINE"
);
},
{
closed = 1;
nodes = (
"389.683 623.069 LINE",
"446.495 272.297 LINE",
"192.178 272.297 LINE",
"382.861 682.267 LINE"
);
}
);
width = 660.94059;
},
{
anchors = (
{
name = bottom;
position = "{275.446, 0}";
},
{
name = ogonek;
position = "{554.881, 10}";
},
{
name = top;
position = "{394.119, 743}";
}
);
layerId = "27298932-82AF-4578-9425-6304FDB19058";
paths = (
{
closed = 1;
nodes = (
"-6.406 65.376 LINE",
"-74.406 51.465 LINE",
"-78.406 0 LINE",
"193.317 0 LINE",
"197.287 51.465 LINE",
"105.347 65.406 LINE",
"164.149 203.653 LINE",
"402.693 203.653 LINE",
"422.99 65.376 LINE",
"345.604 51.465 LINE",
"343.604 0 LINE",
"676.931 0 LINE",
"679.901 51.465 LINE",
"601.782 66.406 LINE",
"480.574 745.119 LINE",
"314.366 745.119 LINE"
);
},
{
closed = 1;
nodes = (
"354.158 547.465 LINE",
"392.752 276.851 LINE",
"194.911 276.851 LINE",
"350.069 640.366 LINE"
);
}
);
width = 660.0297;
}
);
leftKerningGroup = A;
rightKerningGroup = A;
unicode = 0041;
},
{
glyphname = AE;
lastChange = "2019-02-15 20:57:47 +0000";
layers = (
{
anchors = (
{
name = top;
position = "{572.406, 743}";
}
);
layerId = "0C3FD5EE-D923-4A4A-8FDE-164881635915";
paths = (
{
closed = 1;
nodes = (
"829.059 0 LINE",
"864 150.515 LINE",
"821.139 162.218 LINE",
"773.545 56.663 LINE",
"488.287 47.188 LINE",
"526.287 357.406 LINE",
"743.109 350.812 LINE",
"748.822 418.604 LINE",
"530.584 408.01 LINE",
"568.465 699.109 LINE",
"799.307 693.634 LINE",
"815.366 597.802 LINE",
"859.406 597.802 LINE",
"864.238 743 LINE",
"208.465 743 LINE",
"203.287 702.871 LINE",
"354.752 693.634 LINE",
"6.337 46.248 LINE",
"-74.426 35.069 LINE",
"-80.307 0 LINE",
"192.832 0 LINE",
"195.832 35.069 LINE",
"85.96 47.188 LINE",
"185.178 241.564 LINE",
"431.287 241.564 LINE",
"407.644 46.248 LINE",
"342.812 35.069 LINE",
"338.634 0 LINE"
);
},
{
closed = 1;
nodes = (
"484.881 690.644 LINE",
"436.584 291.109 LINE",
"210.069 291.109 LINE",
"415.604 693.465 LINE"
);
}
);
width = 893.58416;
},
{
anchors = (
{
name = top;
position = "{563.297, 743}";
}
);
layerId = "27298932-82AF-4578-9425-6304FDB19058";
paths = (
{
closed = 1;
nodes = (
"921.97 0 LINE",
"956 219.743 LINE",
"853.931 226.891 LINE",
"797.228 82.168 LINE",
"569.356 65.406 LINE",
"607.356 348.297 LINE",
"821.446 332.594 LINE",
"838.089 443.198 LINE",
"616.208 423.495 LINE",
"652.267 685.446 LINE",
"819.347 672.683 LINE",
"836.317 564.099 LINE",
"942.297 564.099 LINE",
"959.881 743 LINE",
"200.267 743 LINE",
"192.356 685.564 LINE",
"335.624 672.683 LINE",
"-19.168 65.376 LINE",
"-96.287 51.465 LINE",
"-100.347 0 LINE",
"205.584 0 LINE",
"208.584 51.465 LINE",
"116.02 65.406 LINE",
"187.911 204.218 LINE",
"420.356 204.218 LINE",
"402.178 65.376 LINE",
"324.594 51.465 LINE",
"317.683 0 LINE"
);
},
{
closed = 1;
nodes = (
"483.059 685.178 LINE",
"430.208 277.446 LINE",
"226.465 277.446 LINE",
"440.198 685.267 LINE"
);
}
);
width = 979.20792;
}
);
leftKerningGroup = A;
rightKerningGroup = E;
unicode = 00C6;
},
{
color = 3;
glyphname = B;
lastChange = "2019-02-15 20:57:47 +0000";
layers = (
{
anchors = (
{
name = bottom;
position = "{265.307, 0}";
},
{
name = top;
position = "{360.317, 743}";
}
);
layerId = "0C3FD5EE-D923-4A4A-8FDE-164881635915";
paths = (
{
closed = 1;
nodes = (
"104.931 743 LINE",
"100.812 703.109 LINE",
"167.109 692.99 LINE",
"86.05 47.188 LINE",
"13.347 35.069 LINE",
"9.347 0 LINE",
"117.663 0 LINE SMOOTH",
"152.257 0 OFFCURVE",
"210.673 -7.178 OFFCURVE",
"249.208 -7.178 CURVE SMOOTH",
"426.772 -7.178 OFFCURVE",
"579.871 61.941 OFFCURVE",
"577.05 239.297 CURVE SMOOTH",
"576.109 324.881 OFFCURVE",
"508.168 383.713 OFFCURVE",
"425.327 393.881 CURVE",
"523.05 421.059 OFFCURVE",
"583.168 487.762 OFFCURVE",
"581.05 594.762 CURVE SMOOTH",
"579.931 677.584 OFFCURVE",
"517.416 750.059 OFFCURVE",
"364.04 750.059 CURVE SMOOTH",
"314.149 750.059 OFFCURVE",
"269.554 744 OFFCURVE",
"224.782 743 CURVE"
);
},
{
closed = 1;
nodes = (
"203.396 357.465 LINE",
"228.564 358.465 OFFCURVE",
"268.782 359.465 OFFCURVE",
"334.941 359.465 CURVE SMOOTH",
"435.941 359.465 OFFCURVE",
"491.931 316.644 OFFCURVE",
"493.05 229.881 CURVE SMOOTH",
"495.228 90.95 OFFCURVE",
"395.079 41.594 OFFCURVE",
"266.446 41.594 CURVE SMOOTH",
"245.446 41.594 OFFCURVE",
"184.752 44.713 OFFCURVE",
"165.337 50.772 CURVE"
);
},
{
closed = 1;
nodes = (
"245.574 698.05 LINE",
"272.277 701.168 OFFCURVE",
"326.03 704.05 OFFCURVE",
"345.733 704.05 CURVE SMOOTH",
"456.178 704.05 OFFCURVE",
"501.703 663.168 OFFCURVE",
"502.822 584.584 CURVE SMOOTH",
"504.941 465.762 OFFCURVE",
"424.238 410.475 OFFCURVE",
"322.307 410.475 CURVE SMOOTH",
"287.02 410.475 OFFCURVE",
"243.743 409.475 OFFCURVE",
"209.574 410.475 CURVE"
);
}
);
width = 623.27723;
},
{
anchors = (
{
name = bottom;
position = "{285.347, 0}";
},
{
name = top;
position = "{395.842, 743}";
}
);
layerId = "27298932-82AF-4578-9425-6304FDB19058";
paths = (
{
closed = 1;
nodes = (
"88.535 743 LINE",
"82.594 689.446 LINE",
"153.446 677.505 LINE",
"71.475 65.406 LINE",
"3.327 51.465 LINE",
"-0.673 0 LINE",
"143.168 0 LINE SMOOTH",
"186.871 0 OFFCURVE",
"251.663 -9.911 OFFCURVE",
"298.396 -9.911 CURVE SMOOTH",
"530.614 -9.911 OFFCURVE",
"654.564 61.03 OFFCURVE",
"654.475 243.851 CURVE SMOOTH",
"654.446 323.059 OFFCURVE",
"587.416 394.644 OFFCURVE",
"476.337 392.059 CURVE",
"600.475 421.97 OFFCURVE",
"662.416 484.119 OFFCURVE",
"658.475 591.119 CURVE SMOOTH",
"655.535 671.208 OFFCURVE",
"615.792 750.97 OFFCURVE",
"425.98 750.97 CURVE SMOOTH",
"362.426 750.97 OFFCURVE",
"308.723 744 OFFCURVE",
"252.109 743 CURVE"
);
},
{
closed = 1;
nodes = (
"270.802 349.267 LINE",
"283.218 350.267 OFFCURVE",
"296.109 351.267 OFFCURVE",
"334.03 351.267 CURVE SMOOTH",
"435.03 351.267 OFFCURVE",
"475.535 311.178 OFFCURVE",
"478.475 228.059 CURVE SMOOTH",
"483.386 105.525 OFFCURVE",
"426.96 50.703 OFFCURVE",
"319.277 50.703 CURVE SMOOTH",
"298.277 50.703 OFFCURVE",
"257.624 55.644 OFFCURVE",
"231.832 62.614 CURVE"
);
},
{
closed = 1;
nodes = (
"315.713 683.475 LINE",
"337.861 688.416 OFFCURVE",
"372.485 689.475 OFFCURVE",
"387.634 689.475 CURVE SMOOTH",
"458.911 689.475 OFFCURVE",
"497.149 650.416 OFFCURVE",
"500.089 578.208 CURVE",
"504.03 462.119 OFFCURVE",
"427.881 417.762 OFFCURVE",
"342.347 417.762 CURVE SMOOTH",
"317.99 417.762 OFFCURVE",
"301.129 416.762 OFFCURVE",
"279.713 417.762 CURVE"
);
}
);
width = 688.86139;
}
);
leftKerningGroup = H;
leftMetricsKey = H;
rightKerningGroup = B;
unicode = 0042;
},
{
color = 3;
glyphname = C;
lastChange = "2019-02-15 20:57:47 +0000";
layers = (
{
anchors = (
{
name = bottom;
position = "{314.188, 0}";
},
{
name = top;
position = "{417.03, 743}";
}
);
layerId = "0C3FD5EE-D923-4A4A-8FDE-164881635915";
paths = (
{
closed = 1;
nodes = (
"527.455 543.109 LINE",
"576.208 543.109 LINE",
"606.208 721.238 LINE",
"585.505 728.059 LINE",
"555.149 736.059 OFFCURVE",
"502.515 751.059 OFFCURVE",
"413.267 751.059 CURVE SMOOTH",
"215.228 751.059 OFFCURVE",
"45.109 574.95 OFFCURVE",
"49.812 306.297 CURVE SMOOTH",
"51.693 154.109 OFFCURVE",
"123.287 -8 OFFCURVE",
"306.663 -8 CURVE SMOOTH",
"409.337 -8 OFFCURVE",
"489.446 22.832 OFFCURVE",
"527.386 35.901 CURVE",
"547.446 196.535 LINE",
"498.356 196.535 LINE",
"488.356 160.416 OFFCURVE",
"477.297 123.238 OFFCURVE",
"466.881 88.188 CURVE",
"440.228 55.95 OFFCURVE",
"370.594 40.901 OFFCURVE",
"321.376 40.901 CURVE SMOOTH",
"186.99 40.901 OFFCURVE",
"136.703 180.455 OFFCURVE",
"134.525 314.416 CURVE SMOOTH",
"130.525 484 OFFCURVE",
"216.158 703.109 OFFCURVE",
"404.139 703.109 CURVE SMOOTH",
"471.931 703.109 OFFCURVE",
"501.98 690.703 OFFCURVE",
"523.505 678.178 CURVE"
);
}
);
width = 619.42574;
},
{
anchors = (
{
name = bottom;
position = "{332.406, 0}";
},
{
name = top;
position = "{463.485, 743}";
}
);
layerId = "27298932-82AF-4578-9425-6304FDB19058";
paths = (
{
closed = 1;
nodes = (
"503.772 529.446 LINE",
"625.396 529.446 LINE",
"655.396 724.881 LINE",
"639.248 728.97 LINE",
"603.426 736.97 OFFCURVE",
"571.743 751.97 OFFCURVE",
"463.366 751.97 CURVE SMOOTH",
"203.386 751.97 OFFCURVE",
"31.446 589.525 OFFCURVE",
"31.594 310.851 CURVE SMOOTH",
"31.653 140.446 OFFCURVE",
"112.356 -8 OFFCURVE",
"332.168 -8 CURVE SMOOTH",
"475.832 -8 OFFCURVE",
"542.277 35.584 OFFCURVE",
"579.307 65.05 CURVE",
"600.277 204.733 LINE",
"503.822 204.733 LINE",
"493.822 166.792 OFFCURVE",
"481.851 126.881 OFFCURVE",
"465.059 106.406 CURVE",
"428.386 70.525 OFFCURVE",
"379.703 70.05 OFFCURVE",
"357.812 70.05 CURVE SMOOTH",
"263.505 70.05 OFFCURVE",
"224.149 156.772 OFFCURVE",
"219.238 320.792 CURVE SMOOTH",
"215.238 484 OFFCURVE",
"279.921 689.446 OFFCURVE",
"436.931 689.446 CURVE SMOOTH",
"455.535 689.446 OFFCURVE",
"471.01 686.149 OFFCURVE",
"485.248 680.911 CURVE"
);
}
);
width = 641.28713;
}
);
leftKerningGroup = O;
rightKerningGroup = C;
unicode = 0043;
},
{
color = 3;
glyphname = D;
lastChange = "2019-02-15 20:57:47 +0000";
layers = (
{
anchors = (
{
name = bottom;
position = "{282.01, 0}";
},
{
name = top;
position = "{377.376, 742.059}";
}
);
layerId = "0C3FD5EE-D923-4A4A-8FDE-164881635915";
paths = (
{
closed = 1;
nodes = (
"104.931 743 LINE",
"100.871 703.109 LINE",
"167.109 692.99 LINE",
"85.109 47.188 LINE",
"11.871 35.069 LINE",
"8.693 0 LINE",
"121.911 0 LINE SMOOTH",
"149.089 0 OFFCURVE",
"202.376 -2 OFFCURVE",
"224.376 -4 CURVE SMOOTH",
"239.02 -6 OFFCURVE",
"264.545 -7.059 OFFCURVE",
"278.248 -8 CURVE SMOOTH",
"512.119 -13.644 OFFCURVE",
"665.455 191.347 OFFCURVE",
"661.693 450 CURVE",
"659.812 630.406 OFFCURVE",
"579.634 751.059 OFFCURVE",
"378.436 751 CURVE SMOOTH",
"328.901 751 OFFCURVE",
"282.01 744 OFFCURVE",
"235.475 743 CURVE"
);
},
{
closed = 1;
nodes = (
"246.812 694.871 LINE",
"276.564 698.931 OFFCURVE",
"323.436 704.05 OFFCURVE",
"357.733 704.05 CURVE SMOOTH",
"515.347 704.05 OFFCURVE",
"577.396 627.406 OFFCURVE",
"580.218 443.347 CURVE",
"582.099 247.248 OFFCURVE",
"492.762 49.297 OFFCURVE",
"297.713 39.891 CURVE",
"265.545 39.891 OFFCURVE",
"204.564 44.95 OFFCURVE",
"165.812 52.832 CURVE"
);
}
);
width = 691.32673;
},
{
anchors = (
{
name = bottom;
position = "{297.495, 0}";
},
{
name = top;
position = "{413.812, 742.97}";
}
);
layerId = "27298932-82AF-4578-9425-6304FDB19058";
paths = (
{
closed = 1;
nodes = (
"88.535 743 LINE",
"83.564 689.446 LINE",
"153.446 677.505 LINE",
"71.446 65.406 LINE",
"-5.436 51.465 LINE",
"-11.347 0 LINE",
"166.545 0 LINE",
"196.455 0 OFFCURVE",
"238.812 -2 OFFCURVE",
"260.812 -4 CURVE",
"269.99 -6 OFFCURVE",
"288.228 -7.97 OFFCURVE",
"297.376 -8 CURVE SMOOTH",
"605.941 -8.178 OFFCURVE",
"733.772 181.327 OFFCURVE",
"733.653 450 CURVE SMOOTH",
"733.594 621.297 OFFCURVE",
"650.683 751.97 OFFCURVE",
"415.782 751 CURVE SMOOTH",
"358.05 751 OFFCURVE",
"297.495 744 OFFCURVE",
"242.762 743 CURVE"
);
},
{
closed = 1;
nodes = (
"320.594 677.564 LINE",
"331.218 682.535 OFFCURVE",
"360.782 689.475 OFFCURVE",
"399.634 689.475 CURVE SMOOTH",
"505.327 689.475 OFFCURVE",
"552.802 618.297 OFFCURVE",
"552.891 433.327 CURVE SMOOTH",
"552.95 266.376 OFFCURVE",
"489.119 53.851 OFFCURVE",
"308.644 53.554 CURVE SMOOTH",
"289.228 53.554 OFFCURVE",
"259.218 59.525 OFFCURVE",
"239.594 65.584 CURVE"
);
}
);
width = 742.33663;
}
);
leftKerningGroup = H;
leftMetricsKey = H;
rightKerningGroup = D;
unicode = 0044;
},
{
glyphname = Eth;
lastChange = "2019-02-15 20:58:57 +0000";
layers = (
{
layerId = "0C3FD5EE-D923-4A4A-8FDE-164881635915";
paths = (
{
closed = 1;
nodes = (
"110 744 LINE",
"106 704 LINE",
"172 694 LINE",
"136 409 LINE",
"58 409 LINE",
"51 356 LINE",
"129 356 LINE",
"90 48 LINE",
"17 36 LINE",
"12 1 LINE",
"126 1 LINE SMOOTH",
"153 1 OFFCURVE",
"206 -2 OFFCURVE",
"228 -3 CURVE SMOOTH",
"243 -4 OFFCURVE",
"269 -6 OFFCURVE",
"282 -7 CURVE SMOOTH",
"516 -24 OFFCURVE",
"669 192 OFFCURVE",
"666 451 CURVE",
"665 631 OFFCURVE",
"584 752 OFFCURVE",
"383 752 CURVE SMOOTH",
"333 752 OFFCURVE",
"286 745 OFFCURVE",
"240 744 CURVE"
);
},
{
closed = 1;
nodes = (
"208 356 LINE",
"414 356 LINE",
"420 409 LINE",
"215 409 LINE",
"251 696 LINE",
"280 700 OFFCURVE",
"327 705 OFFCURVE",
"361 705 CURVE SMOOTH",
"520 705 OFFCURVE",
"582 628 OFFCURVE",
"585 444 CURVE",
"586 248 OFFCURVE",
"497 50 OFFCURVE",
"302 41 CURVE",
"270 41 OFFCURVE",
"208 46 OFFCURVE",
"170 54 CURVE"
);
}
);
width = 695;
},
{
layerId = "27298932-82AF-4578-9425-6304FDB19058";
paths = (
{
closed = 1;
nodes = (
"89.683 744 LINE",
"84.713 690.446 LINE",
"154.594 678.505 LINE",
"120.535 425.465 LINE",
"55.119 425.465 LINE",
"42.327 343.416 LINE",
"109.653 343.416 LINE",
"72.594 66.406 LINE",
"-4.287 52.465 LINE",
"-10.228 1 LINE",
"155.079 1 LINE SMOOTH",
"185.96 1 OFFCURVE",
"237.02 -1.03 OFFCURVE",
"261.931 -3 CURVE",
"271.109 -4.97 OFFCURVE",
"289.376 -6.97 OFFCURVE",
"298.495 -7 CURVE SMOOTH",
"607.059 -7.535 OFFCURVE",
"734.891 182.327 OFFCURVE",
"734.802 451 CURVE SMOOTH",
"734.743 622.297 OFFCURVE",
"651.832 752.97 OFFCURVE",
"416.931 752 CURVE SMOOTH",
"357.228 752 OFFCURVE",
"292.822 744.03 OFFCURVE",
"235.178 744 CURVE SMOOTH"
);
},
{
closed = 1;
nodes = (
"277.743 343.416 LINE",
"422.733 343.416 LINE",
"434.554 425.465 LINE",
"288.624 425.465 LINE",
"321.713 678.564 LINE",
"332.337 683.535 OFFCURVE",
"361.901 690.475 OFFCURVE",
"400.752 690.475 CURVE SMOOTH",
"506.475 690.475 OFFCURVE",
"553.95 619.297 OFFCURVE",
"554.04 434.327 CURVE SMOOTH",
"554.069 267.376 OFFCURVE",
"490.238 54.851 OFFCURVE",
"309.792 54.554 CURVE SMOOTH",
"290.376 54.554 OFFCURVE",
"260.337 60.525 OFFCURVE",
"240.713 66.584 CURVE"
);
}
);
width = 743.48515;
}
);
leftKerningGroup = H;
leftMetricsKey = D;
rightKerningGroup = D;
rightMetricsKey = D;
unicode = 00D0;
},
{
color = 3;
glyphname = E;
lastChange = "2019-02-15 20:57:47 +0000";
layers = (
{
anchors = (
{
name = bottom;
position = "{279.307, 0}";
},
{
name = btm;
position = "{324.97, -82}";
},
{
name = ogonek;
position = "{498.614, 10}";
},
{
name = top;
position = "{351.96, 743}";
}
);
layerId = "0C3FD5EE-D923-4A4A-8FDE-164881635915";
paths = (
{
closed = 1;
nodes = (
"99.871 703.109 LINE",
"167.109 692.99 LINE",
"86.168 46.248 LINE",
"11.931 35.069 LINE",
"8.693 0 LINE",
"518.812 0 LINE",
"561.337 158.04 LINE",
"518.475 170.683 LINE",
"463.594 57.139 LINE",
"165.168 47.663 LINE",
"206.693 357.762 LINE",
"440.564 351.228 LINE",
"445.396 415.317 LINE",
"211.05 411.188 LINE",
"248.812 700.05 LINE",
"494 693.634 LINE",
"510.238 590.277 LINE",
"554.861 590.277 LINE",
"558.693 743 LINE",
"104.931 743 LINE"
);
}
);
width = 596.15842;
},
{
anchors = (
{
name = bottom;
position = "{299.347, 0}";
},
{
name = btm;
position = "{370.515, -82}";
},
{
name = ogonek;
position = "{538.693, 10}";
},
{
name = top;
position = "{382.02, 743}";
}
);
layerId = "27298932-82AF-4578-9425-6304FDB19058";
paths = (
{
closed = 1;
nodes = (
"82.564 689.446 LINE",
"153.446 677.505 LINE",
"73.416 65.376 LINE",
"-4.465 51.465 LINE",
"-11.347 0 LINE",
"592.594 0 LINE",
"627.832 219.98 LINE",
"525.762 227.158 LINE",
"472.703 89.931 LINE",
"244.416 73.168 LINE",
"278.653 354.119 LINE",
"495.218 339.386 LINE",
"512.802 450.842 LINE",
"288.475 429.406 LINE",
"322.594 685.475 LINE",
"494 672.683 LINE",
"513.881 563.861 LINE",
"614.069 563.861 LINE",
"630.653 743 LINE",
"88.535 743 LINE"
);
}
);
width = 659.92079;
}
);
leftKerningGroup = H;
leftMetricsKey = H;
rightKerningGroup = E;
unicode = 0045;
},
{
color = 3;
glyphname = Ezh;
lastChange = "2019-02-15 20:57:47 +0000";
layers = (
{
anchors = (
{
name = top;
position = "{357, 743}";
}
);
layerId = "0C3FD5EE-D923-4A4A-8FDE-164881635915";
paths = (
{
closed = 1;
nodes = (
"414.842 -6 OFFCURVE",
"538.188 98.01 OFFCURVE",
"538.188 246.01 CURVE",
"538.188 366.604 OFFCURVE",
"459.881 421.129 OFFCURVE",
"365.703 421.129 CURVE SMOOTH",
"340.653 421.129 OFFCURVE",
"309.901 419.248 OFFCURVE",
"290.495 414.485 CURVE",
"557.248 702.099 LINE",
"562.545 743 LINE",
"133.04 743 LINE",
"119.208 570.168 LINE",
"166 570.168 LINE",
"194.238 680.574 LINE",
"466.574 693.158 LINE",
"207.168 385.832 LINE",
"220.178 369.584 LINE SMOOTH",
"241.584 373.406 OFFCURVE",
"265.752 378.168 OFFCURVE",
"299.267 378.168 CURVE",
"397.673 377.228 OFFCURVE",
"453.604 327.05 OFFCURVE",
"453.604 244.109 CURVE",
"453.604 144.822 OFFCURVE",
"383.901 44.307 OFFCURVE",
"235.416 44.307 CURVE",
"148.842 44.307 OFFCURVE",
"114.901 67.723 OFFCURVE",
"107.139 71.723 CURVE SMOOTH",
"106.069 195.307 LINE",
"63.931 195.307 LINE",
"24.228 32 LINE SMOOTH",
"47.347 27 OFFCURVE",
"128.455 -6 OFFCURVE",
"220.356 -6 CURVE"
);
}
);
width = 581.29703;
},
{
anchors = (
{
name = top;
position = "{357, 743}";
}
);
layerId = "27298932-82AF-4578-9425-6304FDB19058";
paths = (
{
closed = 1;
nodes = (
"443.079 -6 OFFCURVE",
"556.406 113.495 OFFCURVE",
"556.406 261.495 CURVE SMOOTH",
"556.406 391.198 OFFCURVE",
"458.059 438.436 OFFCURVE",
"361.149 438.436 CURVE SMOOTH",
"350.673 438.436 OFFCURVE",
"339.05 438.376 OFFCURVE",
"328.752 437.257 CURVE",
"576.376 672.95 LINE",
"586.228 743 LINE",
"102.98 743 LINE",
"76.396 557.416 LINE",
"166 557.416 LINE",
"197.881 658.713 LINE",
"444.713 664.921 LINE",
"194.416 398.584 LINE",
"222.911 363.208 LINE",
"235.208 364.297 OFFCURVE",
"246.624 365.416 OFFCURVE",
"257.366 365.416 CURVE SMOOTH",
"346.663 365.386 OFFCURVE",
"386.198 312.475 OFFCURVE",
"386.198 230.446 CURVE SMOOTH",
"386.198 142.089 OFFCURVE",
"321.05 64.347 OFFCURVE",
"241.792 64.347 CURVE SMOOTH",
"177.079 64.347 OFFCURVE",
"144.05 94.139 OFFCURVE",
"139.931 98.139 CURVE",
"122.465 215.347 LINE",
"47.535 215.347 LINE",
"12.386 32 LINE",
"37.327 27 OFFCURVE",
"104.772 -6 OFFCURVE",
"225.822 -6 CURVE SMOOTH"
);
}
);
width = 585.85149;
}
);
leftKerningGroup = Ezh;
rightKerningGroup = Ezh;
unicode = 01B7;
},
{
color = 3;
glyphname = F;
lastChange = "2019-02-15 20:57:47 +0000";
layers = (
{
anchors = (
{
name = btm;
position = "{284.673, -82}";
},
{
name = top;
position = "{358.426, 743}";
}
);
layerId = "0C3FD5EE-D923-4A4A-8FDE-164881635915";
paths = (
{
closed = 1;
nodes = (
"99.812 703.109 LINE",
"167.05 692.99 LINE",
"86.109 47.188 LINE",
"12.525 35.069 LINE",
"9.347 0 LINE",
"279.059 0 LINE",
"283.059 35.069 LINE",
"164.99 48.129 LINE",
"206.574 356.109 LINE",
"452.505 349.337 LINE",
"458.158 414.188 LINE",
"210.931 409.594 LINE",
"246.931 699.05 LINE",
"507.465 691.752 LINE",
"517.703 589.861 LINE",
"567.386 589.861 LINE",
"577.04 743 LINE",
"104.931 743 LINE"
);
}
);
width = 564.32673;
},
{
anchors = (
{
name = btm;
position = "{325.663, -82}";
},
{
name = top;
position = "{380.287, 743}";
}
);
layerId = "27298932-82AF-4578-9425-6304FDB19058";
paths = (
{
closed = 1;
nodes = (
"81.594 689.446 LINE",
"152.475 677.505 LINE",
"72.446 65.406 LINE",
"5.238 51.465 LINE",
"-0.673 0 LINE",
"371.97 0 LINE",
"375.97 51.465 LINE",
"241.505 65.436 LINE",
"276.713 342.446 LINE",
"506.248 323.832 LINE",
"521.921 432.406 LINE",
"286.535 418.703 LINE",
"322.535 684.475 LINE",
"499.267 672.624 LINE",
"513.149 557.069 LINE",
"619.307 557.069 LINE",
"638.98 743 LINE",
"88.535 743 LINE"
);
}
);
width = 615.33663;
}
);
leftKerningGroup = H;
leftMetricsKey = H;
rightKerningGroup = F;
unicode = 0046;
},
{
color = 3;
glyphname = G;
lastChange = "2019-02-15 20:57:47 +0000";
layers = (
{
anchors = (
{
name = bottom;
position = "{333.406, 0}";
},
{
name = top;
position = "{411.901, 743}";
}
);
layerId = "0C3FD5EE-D923-4A4A-8FDE-164881635915";
paths = (
{
closed = 1;
nodes = (
"606.624 353.891 LINE",
"388.238 353.891 LINE",
"383 307.287 LINE",
"517.743 300.228 LINE",
"487.98 86.584 LINE",
"451.455 54.891 OFFCURVE",
"378.891 39.663 OFFCURVE",
"322.604 39.663 CURVE SMOOTH",
"189.218 39.663 OFFCURVE",
"135.99 180.881 OFFCURVE",
"134.109 315.356 CURVE",
"133.168 489.901 OFFCURVE",
"219.792 704.05 OFFCURVE",
"405.495 704.05 CURVE SMOOTH",
"486.525 704.05 OFFCURVE",
"522.05 689.465 OFFCURVE",
"547.931 671.762 CURVE",
"550.109 572.931 LINE",
"601.267 572.931 LINE",
"629.505 718 LINE",
"609.851 724 LINE SMOOTH",
"574.376 734 OFFCURVE",
"514.208 751.059 OFFCURVE",
"413.842 751.059 CURVE SMOOTH",
"216.97 751.059 OFFCURVE",
"47.752 576.822 OFFCURVE",
"50.871 306 CURVE SMOOTH",
"52.931 154.109 OFFCURVE",
"124.465 -8 OFFCURVE",
"300.891 -8 CURVE SMOOTH",
"378.723 -8 OFFCURVE",
"450.248 14.703 OFFCURVE",
"498.782 29.703 CURVE SMOOTH",
"525.901 37.703 OFFCURVE",
"543.505 43.703 OFFCURVE",
"562.624 45.703 CURVE"
);
}
);
width = 669.0198;
},
{
anchors = (
{
name = bottom;
position = "{324.297, 0}";
},
{
name = top;
position = "{441.05, 743}";
}
);
layerId = "27298932-82AF-4578-9425-6304FDB19058";
paths = (
{
closed = 1;
nodes = (
"662.188 367.554 LINE",
"391.881 367.554 LINE",
"383 296.356 LINE",
"483.129 288.386 LINE",
"457.01 80.208 LINE",
"427.772 68.554 OFFCURVE",
"392.554 65.168 OFFCURVE",
"347.198 65.168 CURVE SMOOTH",
"253.891 65.168 OFFCURVE",
"212.505 179.059 OFFCURVE",
"212.446 320.822 CURVE SMOOTH",
"212.416 519.05 OFFCURVE",
"262.604 689.475 OFFCURVE",
"443.752 689.475 CURVE SMOOTH",
"479.238 689.475 OFFCURVE",
"507.475 681.267 OFFCURVE",
"531.535 668.119 CURVE",
"536.446 556.535 LINE",
"651.366 556.535 LINE",
"683.248 718 LINE",
"653.574 724 LINE",
"610.812 734 OFFCURVE",
"563.396 751.97 OFFCURVE",
"442.079 751.97 CURVE SMOOTH",
"170.515 751.97 OFFCURVE",
"28.624 574.089 OFFCURVE",
"33.564 306 CURVE SMOOTH",
"36.535 140.446 OFFCURVE",
"116.267 -8 OFFCURVE",
"314.554 -8 CURVE SMOOTH",
"405.139 -8 OFFCURVE",
"469.376 10.149 OFFCURVE",
"526.109 25.149 CURVE",
"555.05 33.149 OFFCURVE",
"597.248 39.149 OFFCURVE",
"618.188 41.149 CURVE"
);
}
);
width = 699.9901;
}
);
leftKerningGroup = O;
rightKerningGroup = G;
unicode = 0047;
},
{
glyphname = Gstroke;
lastChange = "2019-02-15 20:57:47 +0000";
layers = (
{
anchors = (
{
name = bottom;
position = "{302.366, 0}";
},
{
name = top;
position = "{411.901, 743}";
}
);
layerId = "0C3FD5EE-D923-4A4A-8FDE-164881635915";
paths = (
{
closed = 1;
nodes = (
"606.624 353.891 LINE",
"388.238 353.891 LINE",
"383 307.287 LINE",
"517.743 300.228 LINE",
"487.98 86.584 LINE",
"451.455 54.891 OFFCURVE",
"378.891 39.663 OFFCURVE",
"322.604 39.663 CURVE SMOOTH",
"189.218 39.663 OFFCURVE",
"135.99 180.881 OFFCURVE",
"134.109 315.356 CURVE",
"133.168 489.901 OFFCURVE",
"219.792 704.05 OFFCURVE",
"405.495 704.05 CURVE SMOOTH",
"486.525 704.05 OFFCURVE",
"522.05 689.465 OFFCURVE",
"547.931 671.762 CURVE",
"550.109 572.931 LINE",
"601.267 572.931 LINE",
"629.505 718 LINE",
"609.851 724 LINE SMOOTH",
"574.376 734 OFFCURVE",
"514.208 751.059 OFFCURVE",
"413.842 751.059 CURVE SMOOTH",
"216.97 751.059 OFFCURVE",
"47.752 576.822 OFFCURVE",
"50.871 306 CURVE SMOOTH",
"52.931 154.109 OFFCURVE",
"124.465 -8 OFFCURVE",
"300.891 -8 CURVE SMOOTH",
"378.723 -8 OFFCURVE",
"450.248 14.703 OFFCURVE",
"498.782 29.703 CURVE SMOOTH",
"525.901 37.703 OFFCURVE",
"543.505 43.703 OFFCURVE",
"562.624 45.703 CURVE"
);
},
{
closed = 1;
nodes = (
"363.05 170.931 LINE",
"670.851 170.931 LINE",
"680.386 227.535 LINE",
"372.525 227.535 LINE"
);
}
);
width = 669.0198;
},
{
anchors = (
{
name = bottom;
position = "{323.317, 0}";
},
{
name = top;
position = "{441.05, 743}";
}
);
layerId = "27298932-82AF-4578-9425-6304FDB19058";
paths = (
{
closed = 1;
nodes = (
"662.188 367.554 LINE",
"391.881 367.554 LINE",
"383 296.356 LINE",
"483.129 288.386 LINE",
"457.01 80.208 LINE",
"427.772 68.554 OFFCURVE",
"392.554 65.168 OFFCURVE",
"347.198 65.168 CURVE SMOOTH",
"253.891 65.168 OFFCURVE",
"212.505 179.059 OFFCURVE",
"212.446 320.822 CURVE SMOOTH",
"212.416 519.05 OFFCURVE",
"262.604 689.475 OFFCURVE",
"443.752 689.475 CURVE SMOOTH",
"479.238 689.475 OFFCURVE",
"507.475 681.267 OFFCURVE",
"531.535 668.119 CURVE",
"536.446 556.535 LINE",
"651.366 556.535 LINE",
"683.248 718 LINE",
"653.574 724 LINE",
"610.812 734 OFFCURVE",
"563.396 751.97 OFFCURVE",
"442.079 751.97 CURVE SMOOTH",
"170.515 751.97 OFFCURVE",
"28.624 574.089 OFFCURVE",
"33.564 306 CURVE SMOOTH",
"36.535 140.446 OFFCURVE",
"116.267 -8 OFFCURVE",
"314.554 -8 CURVE SMOOTH",
"405.139 -8 OFFCURVE",
"469.376 10.149 OFFCURVE",
"526.109 25.149 CURVE",
"555.05 33.149 OFFCURVE",
"597.248 39.149 OFFCURVE",
"618.188 41.149 CURVE"
);
},
{
closed = 1;
nodes = (
"348.475 154.535 LINE",
"714.574 154.535 LINE",
"732.307 235.733 LINE",
"365.238 235.733 LINE"
);
}
);
width = 699.9901;
}
);
leftKerningGroup = O;
leftMetricsKey = G;
widthMetricsKey = G;
rightKerningGroup = Gstroke;
unicode = 01E4;
},
{
color = 3;
glyphname = H;
lastChange = "2019-02-15 20:57:47 +0000";
layers = (
{
anchors = (
{
name = bottom;
position = "{326.851, 0}";
},
{
name = top;
position = "{420.851, 743}";
}
);
layerId = "0C3FD5EE-D923-4A4A-8FDE-164881635915";
paths = (
{
closed = 1;
nodes = (
"100.752 703.109 LINE",
"162.347 692.99 LINE",
"81.347 47.188 LINE",
"6.762 35.069 LINE",
"2.703 0 LINE",
"229.941 0 LINE",
"233 35.069 LINE",
"160.228 47.188 LINE",
"199.05 353.406 LINE",
"547.465 353.406 LINE",
"509.525 47.188 LINE",
"426.525 35.069 LINE",
"424.228 0 LINE",
"656.584 0 LINE",
"659.762 35.069 LINE",
"587.525 47.188 LINE",
"668.465 692.99 LINE",
"735.941 703.109 LINE",
"741 743 LINE",
"525.574 743 LINE",
"521.455 703.109 LINE",
"589.584 692.99 LINE",
"553.644 405.416 LINE",
"205.287 405.416 LINE",
"242.168 692.99 LINE",
"312.297 703.109 LINE",
"316.416 743 LINE",
"104.931 743 LINE"
);
}
);
width = 733.39604;
},
{
anchors = (
{
name = bottom;
position = "{370.574, 0}";
},
{
name = top;
position = "{464.574, 743}";
}
);
layerId = "27298932-82AF-4578-9425-6304FDB19058";
paths = (
{
closed = 1;
nodes = (
"81.624 689.446 LINE",
"152.327 677.505 LINE",
"71.327 65.406 LINE",
"3.119 51.465 LINE",
"-1.851 0 LINE",
"321.03 0 LINE",
"325 51.465 LINE",
"240.386 65.406 LINE",
"276.475 344.297 LINE",
"539.267 344.297 LINE",
"502.238 65.406 LINE",
"419.238 51.465 LINE",
"412.386 0 LINE",
"742.208 0 LINE",
"748.119 51.465 LINE",
"672.238 65.406 LINE",
"752.267 677.505 LINE",
"827.03 689.446 LINE",
"833 743 LINE",
"503.713 743 LINE",
"497.772 689.446 LINE",
"583.208 677.505 LINE",
"548.178 411.792 LINE",
"286.356 411.792 LINE",
"321.416 677.505 LINE",
"408.851 689.446 LINE",
"414.792 743 LINE",
"88.535 743 LINE"
);
}
);
width = 800.80198;
}
);
leftKerningGroup = H;
rightKerningGroup = H;
unicode = 0048;
},
{
color = 3;
glyphname = Hbar;
lastChange = "2019-02-15 20:57:47 +0000";
layers = (
{
layerId = "0C3FD5EE-D923-4A4A-8FDE-164881635915";
paths = (
{
closed = 1;
nodes = (
"99.574 703.347 LINE",
"165.871 693.228 LINE",
"147.99 552.178 LINE",
"46.881 552.178 LINE",
"41.822 500.109 LINE",
"141.812 500.109 LINE",
"85.05 47.188 LINE",
"12.347 35.069 LINE",
"9.228 0 LINE",
"237.406 0 LINE",
"240.465 35.069 LINE",
"164.871 47.188 LINE",
"198.634 319.05 LINE",
"547.644 319.05 LINE",
"513.822 47.188 LINE",
"434.931 35.069 LINE",
"431.693 0 LINE",
"664.644 0 LINE",
"667.822 35.069 LINE",
"592.762 47.188 LINE",
"649.525 500.109 LINE",
"753.515 500.109 LINE",
"758.634 552.178 LINE",
"655.644 552.178 LINE",
"673.525 693.228 LINE",
"741.941 703.347 LINE",
"747 743.238 LINE",
"524.99 743.238 LINE",
"520.871 703.347 LINE",
"594.644 693.228 LINE",
"576.762 552.178 LINE",
"227.812 552.178 LINE",
"245.693 693.228 LINE",
"319.584 703.347 LINE",
"323.703 743.238 LINE",
"104.693 743.238 LINE"
);
},
{
closed = 1;
nodes = (
"569.703 500.109 LINE",
"553.762 370.178 LINE",
"204.812 370.178 LINE",
"221.634 500.109 LINE"
);
}
);
width = 730.51485;
},
{
layerId = "27298932-82AF-4578-9425-6304FDB19058";
paths = (
{
closed = 1;
nodes = (
"77.713 693.327 LINE",
"148.564 681.386 LINE",
"132.505 554.911 LINE",
"45.059 554.911 LINE",
"39.089 486.446 LINE",
"123.594 486.446 LINE",
"70.475 65.406 LINE",
"2.327 51.465 LINE",
"-2.614 0 LINE",
"320.297 0 LINE",
"324.267 51.465 LINE",
"239.564 65.406 LINE",
"269.683 304.475 LINE",
"542.178 304.475 LINE",
"511.089 65.406 LINE",
"418.535 51.465 LINE",
"411.653 0 LINE",
"751.178 0 LINE",
"757.089 51.465 LINE",
"681.119 65.406 LINE",
"734.238 486.446 LINE",
"822.743 486.446 LINE",
"829.683 554.911 LINE",
"742.178 554.911 LINE",
"758.238 681.386 LINE",
"833.03 693.327 LINE",
"839 746.881 LINE",
"509.505 746.881 LINE",
"503.564 693.327 LINE",
"589.178 681.386 LINE",
"573.119 554.911 LINE",
"301.594 554.911 LINE",
"317.653 681.386 LINE",
"405.208 693.327 LINE",
"411.149 746.881 LINE",
"84.653 746.881 LINE"
);
},
{
closed = 1;
nodes = (
"565.149 486.446 LINE",
"550.119 372.911 LINE",
"278.594 372.911 LINE",
"292.683 486.446 LINE"
);
}
);
width = 799.74257;
}
);
leftKerningGroup = H;
rightKerningGroup = H;
unicode = 0126;
},
{
color = 3;
glyphname = I;
lastChange = "2019-02-15 20:57:47 +0000";
layers = (
{
anchors = (
{
name = bottom;
position = "{122.842, 0}";
},
{
name = btm;
position = "{186.564, -82}";
},
{
name = ogonek;
position = "{173.762, 10}";
},
{
name = top;
position = "{219.02, 743}";
},
{
name = topleft;
position = "{74.772, 743}";
}
);
layerId = "0C3FD5EE-D923-4A4A-8FDE-164881635915";
paths = (
{
closed = 1;
nodes = (
"102.752 703.109 LINE",
"169.99 692.99 LINE",
"88.109 47.188 LINE",
"15.109 35.069 LINE",
"11.871 0 LINE",
"241.465 0 LINE",
"244.465 35.069 LINE",
"167.931 47.188 LINE",
"248.871 692.99 LINE",
"323.465 703.109 LINE",
"327.584 743 LINE",
"107.752 743 LINE"
);
}
);
width = 321.21782;
},
{
anchors = (
{
name = bottom;
position = "{151.079, 0}";
},
{
name = btm;
position = "{241.218, -82}";
},
{
name = ogonek;
position = "{262.119, 10}";
},
{
name = top;
position = "{249.99, 743}";
},
{
name = topleft;
position = "{86.614, 743}";
}
);
layerId = "27298932-82AF-4578-9425-6304FDB19058";
paths = (
{
closed = 1;
nodes = (
"83.624 689.446 LINE",
"154.505 677.505 LINE",
"74.446 65.406 LINE",
"1.446 51.465 LINE",
"-5.436 0 LINE",
"325.267 0 LINE",
"328.267 51.465 LINE",
"243.535 65.406 LINE",
"323.564 677.505 LINE",
"407.267 689.446 LINE",
"413.208 743 LINE",
"88.624 743 LINE"
);
}
);
width = 385.89109;
}
);
leftKerningGroup = I;
rightKerningGroup = I;
unicode = 0049;
},
{
color = 3;
glyphname = J;
lastChange = "2019-02-15 20:57:47 +0000";
layers = (
{
anchors = (
{
name = btm;
position = "{131.059, -82}";
},
{
name = top;
position = "{229.129, 743}";
}
);
layerId = "0C3FD5EE-D923-4A4A-8FDE-164881635915";
paths = (
{
closed = 1;
nodes = (
"334.03 703.109 LINE",
"338.267 743 LINE",
"106.337 743 LINE",
"101.218 703.109 LINE",
"174.099 693.871 LINE",
"150.04 480.931 OFFCURVE",
"123.802 202.842 OFFCURVE",
"91.04 43.881 CURVE SMOOTH",
"74.455 -35.168 OFFCURVE",
"-0.822 -109.337 OFFCURVE",
"-90.059 -132.931 CURVE",
"-75.347 -168 LINE",
"25.505 -150.881 OFFCURVE",
"127.683 -94.337 OFFCURVE",
"167.683 37 CURVE SMOOTH",
"181.861 83 OFFCURVE",
"215.099 369.139 OFFCURVE",
"250.98 693.931 CURVE"
);
}
);
width = 323.78218;
},
{
anchors = (
{
name = btm;
position = "{131.97, -82}";
},
{
name = top;
position = "{246.436, 743}";
}
);
layerId = "27298932-82AF-4578-9425-6304FDB19058";
paths = (
{
closed = 1;
nodes = (
"380.485 689.446 LINE",
"388.366 743 LINE",
"80.832 743 LINE",
"73.891 689.446 LINE",
"144.95 676.564 LINE",
"119.98 464.535 OFFCURVE",
"90.099 231.079 OFFCURVE",
"60.98 42.059 CURVE SMOOTH",
"50.772 -22.416 OFFCURVE",
"1.911 -83.832 OFFCURVE",
"-90.97 -116.535 CURVE",
"-65.327 -168 LINE",
"79.248 -149.059 OFFCURVE",
"184.158 -68.832 OFFCURVE",
"224.158 37 CURVE SMOOTH",
"241.069 83 OFFCURVE",
"277.95 401.931 OFFCURVE",
"312.01 677.535 CURVE"
);
}
);
width = 351.10891;
}
);
leftKerningGroup = J;
rightKerningGroup = J;
unicode = 004A;
},
{
color = 3;
glyphname = K;
lastChange = "2019-02-15 20:57:47 +0000";
layers = (
{
anchors = (
{
name = bottom;
position = "{332.861, 0}";
},
{
name = top;
position = "{405.149, 743}";
}
);
layerId = "0C3FD5EE-D923-4A4A-8FDE-164881635915";
paths = (
{
closed = 1;
nodes = (
"615.465 693.931 LINE",
"673.703 703.109 LINE",
"679.703 743 LINE",
"477.03 743 LINE",
"472.03 703.168 LINE",
"539.911 692.99 LINE",
"197.99 313.376 LINE",
"246.693 692.99 LINE",
"320.584 703.109 LINE",
"324.703 743 LINE",
"104.931 743 LINE",
"100.812 703.109 LINE",
"167.05 692.99 LINE",
"86.109 47.188 LINE",
"13.228 35.069 LINE",
"9.05 0 LINE",
"238.406 0 LINE",
"241.525 35.069 LINE",
"164.812 47.188 LINE",
"188.752 236.356 LINE",
"295.04 350.931 LINE",
"321.634 305.327 OFFCURVE",
"362.921 226.079 OFFCURVE",
"395.505 170.545 CURVE SMOOTH",
"435.911 101.01 OFFCURVE",
"482.535 2.059 OFFCURVE",
"505.891 0 CURVE",
"622.01 0 LINE",
"627.069 37.891 LINE",
"567.248 53.772 LINE",
"546.129 65.832 OFFCURVE",
"525.653 104.901 OFFCURVE",
"465.545 201.604 CURVE",
"431.02 254.545 OFFCURVE",
"376.079 352.327 OFFCURVE",
"344.257 402.97 CURVE"
);
}
);
width = 649.76238;
},
{
anchors = (
{
name = bottom;
position = "{392.069, 0}";
},
{
name = top;
position = "{453.426, 743}";
}
);
layerId = "27298932-82AF-4578-9425-6304FDB19058";
paths = (
{
closed = 1;
nodes = (
"699.267 677.535 LINE",
"761.149 689.446 LINE",
"767.149 743 LINE",
"523.485 743 LINE",
"518.485 690.416 LINE",
"584.545 677.505 LINE",
"274.505 349.812 LINE",
"318.653 677.505 LINE",
"406.208 689.446 LINE",
"412.149 743 LINE",
"88.535 743 LINE",
"82.594 689.446 LINE",
"152.475 677.505 LINE",
"72.446 65.406 LINE",
"1.386 51.465 LINE",
"-5.525 0 LINE",
"321.297 0 LINE",
"326.238 51.465 LINE",
"238.594 65.406 LINE",
"261.624 241.822 LINE",
"356.98 334.535 LINE",
"392.683 264.337 OFFCURVE",
"423.04 165.96 OFFCURVE",
"449.248 102.228 CURVE SMOOTH",
"480.545 24.495 OFFCURVE",
"490.733 2.97 OFFCURVE",
"519.554 0 CURVE",
"729.495 0 LINE",
"735.465 51.554 LINE",
"678.376 65.614 LINE",
"655.436 78.584 OFFCURVE",
"627.673 134.05 OFFCURVE",
"581.228 226.198 CURVE SMOOTH",
"553.99 278.228 OFFCURVE",
"499.96 403.337 OFFCURVE",
"470.871 448.515 CURVE"
);
}
);
width = 738.11881;
}
);
leftKerningGroup = H;
leftMetricsKey = H;
rightKerningGroup = K;
unicode = 004B;
},
{
color = 3;
glyphname = L;
lastChange = "2019-02-15 20:57:47 +0000";
layers = (
{
anchors = (
{
name = bottom;
position = "{266.545, 0}";
},
{
name = car;
position = "{416.475, 555}";
},
{
name = top;
position = "{223.02, 743}";
}
);
layerId = "0C3FD5EE-D923-4A4A-8FDE-164881635915";
paths = (
{
closed = 1;
nodes = (
"100.752 703.109 LINE",
"167.05 692.99 LINE",
"86.109 47.188 LINE",
"13.465 35.069 LINE",
"10.287 0 LINE",
"488.455 0 LINE",
"535.693 214.277 LINE",
"489.079 223.396 LINE",
"425.584 51.366 LINE",
"164.931 47.01 LINE",
"246.871 692.99 LINE",
"333.05 703.109 LINE",
"336.228 743 LINE",
"104.931 743 LINE"
);
}
);
width = 570.44554;
},
{
anchors = (
{
name = bottom;
position = "{290.228, 0}";
},
{
name = car;
position = "{423.762, 555}";
},
{
name = top;
position = "{253.99, 743}";
}
);
layerId = "27298932-82AF-4578-9425-6304FDB19058";
paths = (
{
closed = 1;
nodes = (
"81.624 689.446 LINE",
"152.475 677.505 LINE",
"72.446 65.406 LINE",
"5.267 51.465 LINE",
"-0.644 0 LINE",
"556.772 0 LINE",
"607.653 279.861 LINE",
"520.96 290.802 LINE",
"419.208 72.317 LINE",
"240.535 62.495 LINE",
"321.564 677.505 LINE",
"410.475 689.446 LINE",
"416.386 743 LINE",
"88.535 743 LINE"
);
}
);
width = 623.27723;
}
);
leftKerningGroup = H;
leftMetricsKey = H;
rightKerningGroup = L;
unicode = 004C;
},
{
glyphname = Lslash;
lastChange = "2019-02-15 20:57:47 +0000";
layers = (
{
layerId = "0C3FD5EE-D923-4A4A-8FDE-164881635915";
paths = (
{
closed = 1;
nodes = (
"103.277 704.109 LINE",
"169.574 693.99 LINE",
"131.277 388.743 LINE",
"169.535 439.535 LINE",
"20.634 375.941 LINE",
"35.465 326.158 LINE",
"163.95 378.693 LINE",
"132.752 404.129 LINE",
"88.634 48.188 LINE",
"15.99 36.069 LINE",
"12.812 1 LINE",
"490.98 1 LINE",
"538.218 215.277 LINE",
"491.604 224.396 LINE",
"428.109 52.366 LINE",
"167.455 48.01 LINE",
"216.871 439.446 LINE",
"182.97 386.465 LINE",
"452.129 501.218 LINE",
"434.535 554.119 LINE",
"185.733 446.485 LINE",
"215.396 425.119 LINE",
"249.396 693.99 LINE",
"335.574 704.109 LINE",
"338.752 744 LINE",
"107.455 744 LINE"
);
}
);
width = 572.9703;
},
{
layerId = "27298932-82AF-4578-9425-6304FDB19058";
paths = (
{
closed = 1;
nodes = (
"76.861 690.446 LINE",
"147.713 678.505 LINE",
"104.861 354.129 LINE",
"177.733 447.733 LINE",
"-0.317 375.03 LINE",
"27.267 297.921 LINE",
"178.525 358.653 LINE",
"113.624 421.436 LINE",
"67.683 66.406 LINE",
"0.505 52.465 LINE",
"-5.406 1 LINE",
"552.01 1 LINE",
"602.891 280.861 LINE",
"516.198 291.802 LINE",
"414.446 73.317 LINE",
"235.772 63.495 LINE",
"291.564 492.277 LINE",
"228.515 378.267 LINE",
"469.436 473.891 LINE",
"442.733 555.941 LINE",
"227.634 469.257 LINE",
"282.802 426.941 LINE",
"316.802 678.505 LINE",
"405.713 690.446 LINE",
"411.624 744 LINE",
"83.772 744 LINE"
);
}
);
width = 618.51485;
}
);
leftKerningGroup = H;
rightKerningGroup = L;
unicode = 0141;
},
{
color = 3;
glyphname = M;
lastChange = "2019-02-15 20:57:47 +0000";
layers = (
{
anchors = (
{
name = bottom;
position = "{411.426, 0}";
},
{
name = top;
position = "{509.327, 743}";
}
);
layerId = "0C3FD5EE-D923-4A4A-8FDE-164881635915";
paths = (
{
closed = 1;
nodes = (
"434.752 119.198 LINE",
"419.109 232.297 LINE",
"330.604 743 LINE",
"129.05 743 LINE",
"123.871 703.109 LINE",
"215.109 692.99 LINE",
"55.168 47.188 LINE",
"-28.535 35.069 LINE",
"-32.653 0 LINE",
"213.733 0 LINE",
"216.851 35.069 LINE",
"120.96 47.188 LINE",
"224.842 504.05 LINE",
"265.901 700.515 LINE",
"298.545 508.109 LINE",
"387.119 0 LINE",
"434.376 -0.059 LINE",
"669.069 520.109 LINE",
"745.653 701.455 LINE",
"730.95 496.109 LINE",
"716.119 46.248 LINE",
"625.059 35.129 LINE",
"621.059 0 LINE",
"875 0 LINE",
"878.059 35.069 LINE",
"794.762 47.188 LINE",
"809.059 692.99 LINE",
"897.881 703.109 LINE",
"902.059 743 LINE",
"712.05 743 LINE",
"658.99 609.762 OFFCURVE",
"535.505 363.653 OFFCURVE",
"483.386 230.416 CURVE"
);
}
);
width = 908.11881;
},
{
anchors = (
{
name = bottom;
position = "{433.287, 0}";
},
{
name = top;
position = "{560.337, 743}";
}
);
layerId = "27298932-82AF-4578-9425-6304FDB19058";
paths = (
{
closed = 1;
nodes = (
"507.624 244.901 LINE",
"497.446 328.851 LINE",
"447.198 743 LINE",
"114.475 743 LINE",
"106.564 689.446 LINE",
"201.446 677.505 LINE",
"42.416 65.406 LINE",
"-36.733 51.465 LINE",
"-42.673 0 LINE",
"255.634 0 LINE",
"260.574 51.465 LINE",
"151.02 65.406 LINE",
"253.079 489.475 LINE",
"295.05 677.743 LINE",
"322.228 494.446 LINE",
"388.941 0 LINE",
"470.812 -0.97 LINE",
"685.465 506.446 LINE",
"755.673 677.772 LINE",
"745.525 482.446 LINE",
"717.941 65.376 LINE",
"625.97 52.436 LINE",
"621.97 0 LINE",
"967 0 LINE",
"970.97 51.465 LINE",
"883.119 65.406 LINE",
"901.97 677.505 LINE",
"988.059 689.446 LINE",
"994.97 743 LINE",
"697.475 743 LINE",
"643.505 606.119 OFFCURVE",
"589.248 465.673 OFFCURVE",
"535.307 328.792 CURVE"
);
}
);
width = 1001.94059;
}
);
leftKerningGroup = M;
rightKerningGroup = M;
unicode = 004D;
},
{
glyphname = N;
lastChange = "2019-02-15 20:57:47 +0000";
layers = (
{
anchors = (
{
name = bottom;
position = "{352.653, 0}";
},
{
name = top;
position = "{429.317, 743}";
}
);
layerId = "0C3FD5EE-D923-4A4A-8FDE-164881635915";
paths = (
{
closed = 1;
nodes = (
"99.812 703.109 LINE",
"170.931 692.99 LINE",
"86.168 46.248 LINE",
"17.931 35.069 LINE",
"14.871 0 LINE",
"231.604 0 LINE",
"234.723 35.069 LINE",
"151.485 47.188 LINE",
"220.069 664.327 LINE",
"259.129 551.366 LINE",
"504.792 0 LINE",
"582.446 0 LINE",
"677.98 692.99 LINE",
"753.624 703.109 LINE",
"756.743 743 LINE",
"543.723 743 LINE",
"538.723 703.109 LINE",
"617.426 693.931 LINE",
"543.604 75.98 LINE",
"504.782 187.634 LINE",
"257.416 743 LINE",
"105.931 743 LINE"
);
}
);
width = 731.55446;
},
{
anchors = (
{
name = bottom;
position = "{362.673, 0}";
},
{
name = top;
position = "{464.842, 743}";
}
);
layerId = "27298932-82AF-4578-9425-6304FDB19058";
paths = (
{
closed = 1;
nodes = (
"81.594 689.446 LINE",
"154.535 677.505 LINE",
"73.416 65.376 LINE",
"1.535 51.465 LINE",
"-2.436 0 LINE",
"256.198 0 LINE",
"261.139 51.465 LINE",
"174.257 65.406 LINE",
"236.465 623.337 LINE",
"276.436 480.317 LINE",
"455.604 0 LINE",
"635.277 0 LINE",
"739.01 677.505 LINE",
"809.188 689.446 LINE",
"814.129 743 LINE",
"570.139 743 LINE",
"565.139 689.446 LINE",
"639.287 677.535 LINE",
"568.198 137.01 LINE",
"532.109 258.683 LINE",
"355.792 743 LINE",
"89.535 743 LINE"
);
}
);
width = 770.72277;
}
);
leftKerningGroup = H;
leftMetricsKey = H;
rightKerningGroup = H;
rightMetricsKey = H;
unicode = 004E;
},
{
color = 3;
glyphname = Eng;
lastChange = "2019-02-15 20:57:47 +0000";
layers = (
{
layerId = "0C3FD5EE-D923-4A4A-8FDE-164881635915";
paths = (
{
closed = 1;
nodes = (
"448.347 -164.98 OFFCURVE",
"566.624 -117 OFFCURVE",
"581.743 0 CURVE SMOOTH",
"676.158 694.168 LINE",
"750.267 704.287 LINE",
"753.386 743.238 LINE",
"542.248 743.238 LINE",
"537.248 704.287 LINE",
"612.782 694.168 LINE",
"542.436 91.644 LINE",
"507.436 190.129 LINE",
"256.238 743.238 LINE",
"103.693 743.238 LINE",
"97.574 704.287 LINE",
"171.168 694.168 LINE",
"85.05 46.248 LINE",
"16.752 35.069 LINE",
"12.752 0 LINE",
"231.02 0 LINE",
"234.198 35.069 LINE",
"152.485 47.188 LINE",
"218.95 644.812 LINE",
"256.069 546.208 LINE",
"507.584 -1.881 LINE",
"493.832 -76.366 OFFCURVE",
"417.238 -122.792 OFFCURVE",
"340.129 -146.079 CURVE",
"353.723 -181.505 LINE"
);
}
);
width = 738.54455;
},
{
layerId = "27298932-82AF-4578-9425-6304FDB19058";
paths = (
{
closed = 1;
nodes = (
"530.327 -226.01 OFFCURVE",
"622.188 -117 OFFCURVE",
"639.129 0 CURVE SMOOTH",
"739.921 681.416 LINE",
"800.366 693.356 LINE",
"805.307 746.881 LINE",
"561.376 746.881 LINE",
"556.376 693.356 LINE",
"640.109 681.416 LINE",
"579.782 178.178 LINE",
"544.782 299.436 LINE",
"351.881 746.881 LINE",
"83.653 746.881 LINE",
"75.713 693.356 LINE",
"158.416 681.416 LINE",
"70.475 65.376 LINE",
"-2.376 51.465 LINE",
"-6.376 0 LINE",
"261.99 0 LINE",
"267.901 51.465 LINE",
"175.257 65.406 LINE",
"233.525 626.594 LINE",
"272.465 503.396 LINE",
"501.208 -0.059 LINE",
"506.584 -97.317 OFFCURVE",
"420.881 -165.604 OFFCURVE",
"357.436 -177.96 CURVE",
"380.139 -235.248 LINE"
);
}
);
width = 762.22772;
}
);
leftKerningGroup = H;
rightKerningGroup = H;
unicode = 014A;
},
{
color = 3;
glyphname = O;
lastChange = "2019-02-15 20:57:47 +0000";
layers = (
{
anchors = (
{
name = bottom;
position = "{299.307, 0}";
},
{
name = btm;
position = "{289.832, -83}";
},
{
name = center;
position = "{353.129, 372}";
},
{
name = ogonek;
position = "{391.317, 10}";
},
{
name = top;
position = "{401.129, 743}";
},
{
name = topleft;
position = "{85.059, 743}";
},
{
name = topright;
position = "{569.743, 743}";
}
);
layerId = "0C3FD5EE-D923-4A4A-8FDE-164881635915";
paths = (
{
closed = 1;
nodes = (
"195.386 753 OFFCURVE",
"47.99 560.515 OFFCURVE",
"51.752 302.535 CURVE SMOOTH",
"54.574 128.059 OFFCURVE",
"137.396 -10 OFFCURVE",
"299.01 -10 CURVE SMOOTH",
"498.822 -10 OFFCURVE",
"642.683 186.782 OFFCURVE",
"637.98 442.584 CURVE SMOOTH",
"635.158 611.525 OFFCURVE",
"557.218 753 OFFCURVE",
"392.604 753 CURVE SMOOTH"
);
},
{
closed = 1;
nodes = (
"494.406 703.287 OFFCURVE",
"551.683 592.119 OFFCURVE",
"554.505 430.941 CURVE SMOOTH",
"558.267 204.01 OFFCURVE",
"452.238 37.772 OFFCURVE",
"310.188 37.772 CURVE SMOOTH",
"198.257 37.772 OFFCURVE",
"134.287 149.614 OFFCURVE",
"132.406 313.238 CURVE SMOOTH",
"129.584 539.861 OFFCURVE",
"237.851 703.287 OFFCURVE",
"380.485 703.287 CURVE SMOOTH"
);
}
);
width = 664.9703;
},
{
anchors = (
{
name = bottom;
position = "{319.347, 0}";
},
{
name = btm;
position = "{302.584, -83}";
},
{
name = center;
position = "{370.436, 372}";
},
{
name = ogonek;
position = "{426.842, 10}";
},
{
name = top;
position = "{418.436, 743}";
},
{
name = topleft;
position = "{85.97, 743}";
},
{
name = topright;
position = "{627.129, 743}";
}
);
layerId = "27298932-82AF-4578-9425-6304FDB19058";
paths = (
{
closed = 1;
nodes = (
"155.307 753 OFFCURVE",
"32.505 537.743 OFFCURVE",
"32.624 310.733 CURVE SMOOTH",
"32.713 128.97 OFFCURVE",
"112.802 -10 OFFCURVE",
"314.495 -10 CURVE SMOOTH",
"588.089 -10 OFFCURVE",
"699.158 214.109 OFFCURVE",
"699.01 436.208 CURVE SMOOTH",
"698.921 604.238 OFFCURVE",
"621.891 753 OFFCURVE",
"417.198 753 CURVE SMOOTH"
);
},
{
closed = 1;
nodes = (
"485.297 692.356 OFFCURVE",
"516.158 593.941 OFFCURVE",
"516.248 430.03 CURVE SMOOTH",
"516.366 219.495 OFFCURVE",
"455.881 49.614 OFFCURVE",
"328.406 49.614 CURVE SMOOTH",
"232.871 49.614 OFFCURVE",
"215.356 189.693 OFFCURVE",
"215.297 316.881 CURVE SMOOTH",
"215.208 507.069 OFFCURVE",
"281.574 692.356 OFFCURVE",
"403.257 692.356 CURVE SMOOTH"
);
}
);
width = 710.51485;
}
);
leftKerningGroup = O;
rightKerningGroup = O;
unicode = 004F;
},
{
glyphname = Ohorn;
lastChange = "2019-02-15 20:57:47 +0000";
layers = (
{
anchors = (
{
name = bottom;
position = "{300.248, 0}";
},
{
name = top;
position = "{392.248, 743}";
}
);
layerId = "0C3FD5EE-D923-4A4A-8FDE-164881635915";
paths = (
{
closed = 1;
nodes = (
"53.634 128.059 OFFCURVE",
"137.396 -10 OFFCURVE",
"299.01 -10 CURVE SMOOTH",
"498.822 -10 OFFCURVE",
"641.743 186.782 OFFCURVE",
"637.98 442.584 CURVE SMOOTH",
"636.099 546.762 OFFCURVE",
"606.04 640.119 OFFCURVE",
"544.149 697.178 CURVE",
"552.089 652.752 LINE",
"667.485 660.693 OFFCURVE",
"727.277 744.158 OFFCURVE",
"727.277 843.059 CURVE SMOOTH",
"727.277 850.059 OFFCURVE",
"726.277 857.119 OFFCURVE",
"725.218 865 CURVE",
"656.95 865 LINE",
"658.01 860.822 OFFCURVE",
"658.129 854.703 OFFCURVE",
"658.129 847.287 CURVE SMOOTH",
"658.129 792.634 OFFCURVE",
"622.822 694.109 OFFCURVE",
"485.238 706.822 CURVE",
"505.238 697.406 OFFCURVE",
"528.663 692.287 OFFCURVE",
"537.208 706.822 CURVE",
"493.97 738.703 OFFCURVE",
"440.733 753 OFFCURVE",
"392.604 753 CURVE SMOOTH",
"195.386 753 OFFCURVE",
"47.99 560.515 OFFCURVE",
"51.752 302.535 CURVE SMOOTH"
);
},
{
closed = 1;
nodes = (
"129.584 539.861 OFFCURVE",
"237.851 703.287 OFFCURVE",
"380.485 703.287 CURVE SMOOTH",
"503.812 703.287 OFFCURVE",
"551.683 592.119 OFFCURVE",
"554.505 430.941 CURVE SMOOTH",
"558.267 204.01 OFFCURVE",
"452.238 37.772 OFFCURVE",
"310.188 37.772 CURVE SMOOTH",
"198.257 37.772 OFFCURVE",
"134.287 149.614 OFFCURVE",
"132.406 313.238 CURVE SMOOTH"
);
}
);
width = 659.27723;
},
{
anchors = (
{
name = bottom;
position = "{319.376, 0}";
},
{
name = top;
position = "{411.376, 743}";
}
);
layerId = "27298932-82AF-4578-9425-6304FDB19058";
paths = (
{
closed = 1;
nodes = (
"32.683 128.97 OFFCURVE",
"112.802 -10 OFFCURVE",
"314.495 -10 CURVE SMOOTH",
"588.089 -10 OFFCURVE",
"699.129 214.109 OFFCURVE",
"699.01 436.208 CURVE SMOOTH",
"698.95 543.119 OFFCURVE",
"667.98 641.941 OFFCURVE",
"592.426 699.911 CURVE",
"599.455 633.624 LINE",
"690.257 640.653 OFFCURVE",
"792.861 715.921 OFFCURVE",
"792.861 843.97 CURVE SMOOTH",
"792.861 850.97 OFFCURVE",
"791.861 858.941 OFFCURVE",
"789.891 865 CURVE",
"671.525 865 LINE",
"673.495 858.089 OFFCURVE",
"675.436 850.149 OFFCURVE",
"675.436 836.356 CURVE SMOOTH",
"675.436 771.683 OFFCURVE",
"620.089 680.446 OFFCURVE",
"488.881 704.089 CURVE",
"508.881 688.297 OFFCURVE",
"554.168 681.356 OFFCURVE",
"586.396 704.089 CURVE",
"539.515 734.149 OFFCURVE",
"482.634 753 OFFCURVE",
"417.198 753 CURVE SMOOTH",
"155.307 753 OFFCURVE",
"32.505 537.743 OFFCURVE",
"32.624 310.733 CURVE SMOOTH"
);
},
{
closed = 1;
nodes = (
"215.208 507.069 OFFCURVE",
"281.574 692.356 OFFCURVE",
"403.257 692.356 CURVE SMOOTH",
"485.594 692.356 OFFCURVE",
"516.158 593.941 OFFCURVE",
"516.248 430.03 CURVE SMOOTH",
"516.366 219.495 OFFCURVE",
"455.881 49.614 OFFCURVE",
"328.406 49.614 CURVE SMOOTH",
"232.871 49.614 OFFCURVE",
"215.356 189.693 OFFCURVE",
"215.297 316.881 CURVE SMOOTH"
);
}
);
width = 724.86139;
}
);
leftKerningGroup = O;
leftMetricsKey = O;
rightKerningGroup = O;
unicode = 01A0;
},
{
glyphname = Oslash;
lastChange = "2019-02-15 20:59:12 +0000";
layers = (
{
anchors = (
{
name = top;
position = "{391.485, 743}";
}
);
layerId = "0C3FD5EE-D923-4A4A-8FDE-164881635915";
paths = (
{
closed = 1;
nodes = (
"610.683 808.931 LINE",
"576.089 826.584 LINE",
"512.911 722.059 LINE",
"479.614 742.059 OFFCURVE",
"439.198 754 OFFCURVE",
"392.545 754 CURVE SMOOTH",
"195.386 754 OFFCURVE",
"47.99 561.515 OFFCURVE",
"51.752 303.535 CURVE SMOOTH",
"52.693 205 OFFCURVE",
"79.752 117.762 OFFCURVE",
"132.406 61.644 CURVE",
"59 -61.396 LINE",
"94.475 -79.99 LINE",
"164 33.525 LINE",
"200.238 5.881 OFFCURVE",
"245.535 -9 OFFCURVE",
"299.01 -9 CURVE SMOOTH",
"498.822 -9 OFFCURVE",
"641.743 187.782 OFFCURVE",
"637.98 443.584 CURVE SMOOTH",
"636.099 547.584 OFFCURVE",
"606.099 640.762 OFFCURVE",
"544.564 696.881 CURVE"
);
},
{
closed = 1;
nodes = (
"176.149 123.158 LINE",
"148.515 170.683 OFFCURVE",
"133.347 236.376 OFFCURVE",
"132.406 314.238 CURVE SMOOTH",
"129.584 540.861 OFFCURVE",
"237.851 704.287 OFFCURVE",
"380.485 704.287 CURVE SMOOTH",
"420.545 704.287 OFFCURVE",
"454.248 689.574 OFFCURVE",
"479.713 663.267 CURVE"
);
},
{
closed = 1;
nodes = (
"503.119 634.545 LINE",
"535.515 587.198 OFFCURVE",
"553.564 516.802 OFFCURVE",
"554.505 431.941 CURVE SMOOTH",
"558.267 205.01 OFFCURVE",
"452.238 38.772 OFFCURVE",
"310.188 38.772 CURVE SMOOTH",
"264.248 38.772 OFFCURVE",
"226.842 57.604 OFFCURVE",
"198.614 90.495 CURVE"
);
}
);
width = 664.0297;
},
{
anchors = (
{
name = top;
position = "{414.257, 743}";
}
);
layerId = "27298932-82AF-4578-9425-6304FDB19058";
paths = (
{
closed = 1;
nodes = (
"667.158 792.535 LINE",
"623.455 820.208 LINE",
"557.545 722.97 LINE",
"519.693 742.97 OFFCURVE",
"472.901 754 OFFCURVE",
"416.228 754 CURVE SMOOTH",
"155.307 754 OFFCURVE",
"32.505 538.743 OFFCURVE",
"32.624 311.733 CURVE SMOOTH",
"32.653 205 OFFCURVE",
"60.624 114.119 OFFCURVE",
"123.297 56.178 CURVE",
"59 -36.802 LINE",
"101.762 -64.505 LINE",
"164 26.238 LINE",
"203.881 4.059 OFFCURVE",
"253.733 -9 OFFCURVE",
"314.495 -9 CURVE SMOOTH",
"588.089 -9 OFFCURVE",
"699.129 215.109 OFFCURVE",
"699.01 437.208 CURVE SMOOTH",
"698.95 541.208 OFFCURVE",
"668.95 637.119 OFFCURVE",
"599.218 695.059 CURVE"
);
},
{
closed = 1;
nodes = (
"224.426 186.921 LINE",
"217.743 227.158 OFFCURVE",
"215.327 272.812 OFFCURVE",
"215.297 317.881 CURVE SMOOTH",
"215.208 508.069 OFFCURVE",
"281.574 693.356 OFFCURVE",
"403.257 693.356 CURVE SMOOTH",
"444.228 693.356 OFFCURVE",
"473.376 667.713 OFFCURVE",
"490.644 621.366 CURVE"
);
},
{
closed = 1;
nodes = (
"504.941 566.228 LINE",
"512.743 528.901 OFFCURVE",
"516.218 483.099 OFFCURVE",
"516.248 431.03 CURVE SMOOTH",
"516.366 220.495 OFFCURVE",
"455.881 50.614 OFFCURVE",
"328.406 50.614 CURVE SMOOTH",
"283.376 50.614 OFFCURVE",
"255.079 82.198 OFFCURVE",
"238.693 128.752 CURVE"
);
}
);
width = 710;
}
);
leftKerningGroup = O;
leftMetricsKey = O;
rightKerningGroup = O;
rightMetricsKey = O;
unicode = 00D8;
},
{
color = 3;
glyphname = OE;
lastChange = "2019-02-15 20:57:47 +0000";
layers = (
{
layerId = "0C3FD5EE-D923-4A4A-8FDE-164881635915";
paths = (
{
closed = 1;
nodes = (
"544.475 0 LINE",
"966.535 0 LINE",
"1001.475 150.515 LINE",
"958.614 162.218 LINE",
"912.139 57.02 LINE",
"625.941 47.545 LINE",
"664.881 357.881 LINE",
"880.762 351.168 LINE",
"886.594 419.139 LINE",
"669.178 408.366 LINE",
"706.881 700.05 LINE",
"937.901 693.634 LINE",
"955.139 597.802 LINE",
"998.822 597.802 LINE",
"1002.653 743 LINE",
"633.772 743 LINE",
"613.307 575.515 LINE",
"581.95 679.96 OFFCURVE",
"509.485 752.059 OFFCURVE",
"397.545 752.059 CURVE SMOOTH",
"201.851 752.059 OFFCURVE",
"47.05 562.396 OFFCURVE",
"51.752 303.475 CURVE SMOOTH",
"54.574 108.307 OFFCURVE",
"153.564 -10 OFFCURVE",
"305.891 -10 CURVE SMOOTH",
"413.01 -10 OFFCURVE",
"503.238 51.337 OFFCURVE",
"562 148.723 CURVE"
);
},
{
closed = 1;
nodes = (
"500.762 702.347 OFFCURVE",
"559.099 609.99 OFFCURVE",
"561.921 426.238 CURVE SMOOTH",
"564.743 204.01 OFFCURVE",
"459.535 37.772 OFFCURVE",
"317.069 37.772 CURVE",
"191.436 38.713 OFFCURVE",
"135.871 153.376 OFFCURVE",
"133.05 336.752 CURVE SMOOTH",
"131.168 543.624 OFFCURVE",
"243.436 702.347 OFFCURVE",
"385.485 702.347 CURVE SMOOTH"
);
}
);
width = 1037.23762;
},
{
layerId = "27298932-82AF-4578-9425-6304FDB19058";
paths = (
{
closed = 1;
nodes = (
"551.762 0 LINE",
"1066.733 0 LINE",
"1100.762 219.743 LINE",
"998.693 226.891 LINE",
"944.931 87.99 LINE",
"717.03 71.228 LINE",
"755.059 356.059 LINE",
"969.119 338.416 LINE",
"987.703 451.931 LINE",
"763.911 429.317 LINE",
"797.059 685.475 LINE",
"967.05 672.683 LINE",
"987.931 564.099 LINE",
"1088.089 564.099 LINE",
"1104.673 743 LINE",
"645.614 743 LINE",
"633.347 644.743 LINE",
"596.525 710.02 OFFCURVE",
"532.257 752.97 OFFCURVE",
"421.228 752.97 CURVE SMOOTH",
"153.574 752.97 OFFCURVE",
"32.475 537.802 OFFCURVE",
"32.624 310.762 CURVE SMOOTH",
"32.713 128.347 OFFCURVE",
"116.218 -10 OFFCURVE",
"319.554 -10 CURVE SMOOTH",
"428.495 -10 OFFCURVE",
"506.881 25.832 OFFCURVE",
"562 83.139 CURVE"
);
},
{
closed = 1;
nodes = (
"497.119 692.327 OFFCURVE",
"529.95 594.505 OFFCURVE",
"530.04 429.881 CURVE SMOOTH",
"530.129 219.495 OFFCURVE",
"467.733 49.614 OFFCURVE",
"333.465 49.614 CURVE SMOOTH",
"228.782 49.644 OFFCURVE",
"210.564 189.812 OFFCURVE",
"210.475 317.624 CURVE SMOOTH",
"210.416 507.188 OFFCURVE",
"280.782 692.327 OFFCURVE",
"408.257 692.327 CURVE SMOOTH"
);
}
);
width = 1132.88119;
}
);
leftKerningGroup = O;
leftMetricsKey = O;
rightKerningGroup = E;
rightMetricsKey = E;
unicode = 0152;
},
{
color = 3;
glyphname = P;
lastChange = "2019-02-15 20:57:47 +0000";
layers = (
{
anchors = (
{
name = btm;
position = "{115.545, -83}";
},
{
name = top;
position = "{366.139, 743}";
}
);
layerId = "0C3FD5EE-D923-4A4A-8FDE-164881635915";
paths = (
{
closed = 1;
nodes = (
"104.931 743 LINE",
"100.752 703.109 LINE",
"167.109 692.99 LINE",
"86.05 47.188 LINE",
"13.406 35.069 LINE",
"9.347 0 LINE",
"254.842 0 LINE",
"257.842 35.069 LINE",
"166.109 47.188 LINE",
"191.871 268.99 LINE",
"209.574 267.931 OFFCURVE",
"247.149 265.109 OFFCURVE",
"290.257 265.109 CURVE SMOOTH",
"456.525 265.109 OFFCURVE",
"596.347 369.406 OFFCURVE",
"593.168 561.406 CURVE SMOOTH",
"591.05 690.406 OFFCURVE",
"511.584 751 OFFCURVE",
"367.198 751 CURVE SMOOTH",
"315.317 751 OFFCURVE",
"271.842 743 OFFCURVE",
"218.485 743 CURVE SMOOTH"
);
},
{
closed = 1;
nodes = (
"247.05 694.406 LINE",
"279.04 699.287 OFFCURVE",
"324.079 703.109 OFFCURVE",
"354.01 704.05 CURVE SMOOTH",
"469.574 706.871 OFFCURVE",
"510.287 652.762 OFFCURVE",
"509.347 554.644 CURVE SMOOTH",
"507.406 397.772 OFFCURVE",
"437.822 314.178 OFFCURVE",
"293.376 313.119 CURVE SMOOTH",
"265.149 313.119 OFFCURVE",
"227.396 315.881 OFFCURVE",
"197.99 320.881 CURVE"
);
}
);
width = 591.15842;
},
{
anchors = (
{
name = btm;
position = "{139.228, -83}";
},
{
name = top;
position = "{398.931, 743}";
}
);
layerId = "27298932-82AF-4578-9425-6304FDB19058";
paths = (
{
closed = 1;
nodes = (
"88.535 743 LINE",
"81.624 689.446 LINE",
"153.446 677.505 LINE",
"71.475 65.406 LINE",
"4.297 51.465 LINE",
"-0.673 0 LINE",
"375.079 0 LINE",
"378.079 51.465 LINE",
"244.446 65.406 LINE",
"266.564 253.505 LINE",
"279.713 251.535 OFFCURVE",
"295.426 251.446 OFFCURVE",
"324.871 251.446 CURVE SMOOTH",
"541.238 251.446 OFFCURVE",
"678.327 360.297 OFFCURVE",
"672.416 552.297 CURVE SMOOTH",
"668.475 681.297 OFFCURVE",
"597.208 751 OFFCURVE",
"400.901 751 CURVE SMOOTH",
"350.842 751 OFFCURVE",
"300.079 743 OFFCURVE",
"241.257 743 CURVE SMOOTH"
);
},
{
closed = 1;
nodes = (
"324.475 685.297 LINE",
"340.98 688.356 OFFCURVE",
"355.96 689.446 OFFCURVE",
"369.495 689.475 CURVE SMOOTH",
"447.713 689.564 OFFCURVE",
"499.356 649.119 OFFCURVE",
"499.327 549.178 CURVE SMOOTH",
"498.297 409.614 OFFCURVE",
"435.089 316.911 OFFCURVE",
"329.812 314.941 CURVE SMOOTH",
"313.426 314.941 OFFCURVE",
"294.802 314.059 OFFCURVE",
"274.505 319.059 CURVE"
);
}
);
width = 654.92079;
}
);
leftKerningGroup = H;
leftMetricsKey = H;
rightKerningGroup = P;
unicode = 0050;
},
{
color = 3;
glyphname = Thorn;
lastChange = "2019-02-15 20:57:47 +0000";
layers = (
{
layerId = "0C3FD5EE-D923-4A4A-8FDE-164881635915";
paths = (
{
closed = 1;
nodes = (
"247.812 696.752 LINE",
"321.703 706.871 LINE",
"325.822 746.762 LINE",
"105.871 746.762 LINE",
"101.693 706.871 LINE",
"167.99 696.752 LINE",
"86.99 47.188 LINE",
"14.287 35.069 LINE",
"10.228 0 LINE",
"244.99 0 LINE",
"248.05 35.069 LINE",
"165.871 47.188 LINE",
"179.931 157.772 LINE",
"198.396 155.832 OFFCURVE",
"233.149 153.891 OFFCURVE",
"289.426 153.891 CURVE SMOOTH",
"455.446 153.891 OFFCURVE",
"579.752 253.149 OFFCURVE",
"579.752 405.297 CURVE SMOOTH",
"579.752 521.98 OFFCURVE",
"503.416 590.693 OFFCURVE",
"353.683 590.693 CURVE SMOOTH",
"316.802 590.693 OFFCURVE",
"268.693 587.752 OFFCURVE",
"232.871 581.99 CURVE"
);
},
{
closed = 1;
nodes = (
"226.693 533.861 LINE",
"252.337 538.802 OFFCURVE",
"302.673 542.743 OFFCURVE",
"332.604 542.743 CURVE SMOOTH",
"459.98 542.743 OFFCURVE",
"498.337 489.693 OFFCURVE",
"500.337 388.535 CURVE",
"501.455 278.178 OFFCURVE",
"423.871 200.198 OFFCURVE",
"289.02 200.198 CURVE SMOOTH",
"249.149 200.198 OFFCURVE",
"215.337 202.079 OFFCURVE",
"186.05 205.842 CURVE"
);
}
);
width = 599.61386;
},
{
layerId = "27298932-82AF-4578-9425-6304FDB19058";
paths = (
{
closed = 1;
nodes = (
"321.594 677.624 LINE",
"409.149 689.564 LINE",
"415.089 743.119 LINE",
"88.564 743.119 LINE",
"81.653 689.564 LINE",
"152.505 677.624 LINE",
"71.505 65.406 LINE",
"3.356 51.465 LINE",
"-1.614 0 LINE",
"321.505 0 LINE",
"325.475 51.465 LINE",
"240.564 65.406 LINE",
"255.535 169.614 LINE",
"265.802 168.584 OFFCURVE",
"281.426 167.554 OFFCURVE",
"311.287 167.554 CURVE SMOOTH",
"600.277 167.554 OFFCURVE",
"652.624 301.426 OFFCURVE",
"652.624 409.851 CURVE SMOOTH",
"652.624 491.01 OFFCURVE",
"601.792 570.653 OFFCURVE",
"410.158 570.653 CURVE SMOOTH",
"375.099 570.653 OFFCURVE",
"340.653 568.624 OFFCURVE",
"307.564 566.505 CURVE"
);
},
{
closed = 1;
nodes = (
"298.653 501.069 LINE",
"318.832 505.099 OFFCURVE",
"343.663 508.129 OFFCURVE",
"357.198 508.129 CURVE SMOOTH",
"429.01 508.129 OFFCURVE",
"472.832 469.653 OFFCURVE",
"474.832 396.733 CURVE SMOOTH",
"477.772 280.911 OFFCURVE",
"406.564 233.901 OFFCURVE",
"319.99 233.901 CURVE SMOOTH",
"297.426 233.901 OFFCURVE",
"281.832 233.96 OFFCURVE",
"263.475 234.079 CURVE"
);
}
);
width = 639.69307;
}
);
leftKerningGroup = H;
leftMetricsKey = H;
rightKerningGroup = D;
unicode = 00DE;
},
{
color = 3;
glyphname = Q;
lastChange = "2019-02-15 20:57:47 +0000";
layers = (
{
anchors = (
{
name = btm;
position = "{322.426, -82}";
},
{
name = top;
position = "{431.02, 830}";
}
);
layerId = "0C3FD5EE-D923-4A4A-8FDE-164881635915";
paths = (
{
closed = 1;
nodes = (
"589.941 -80.287 LINE",
"561.109 -94.287 OFFCURVE",
"512.743 -104.931 OFFCURVE",
"479.04 -104.931 CURVE SMOOTH",
"404.683 -104.931 OFFCURVE",
"335.099 -90.406 OFFCURVE",
"334.218 -6.703 CURVE",
"514.297 13.663 OFFCURVE",
"641.743 201.376 OFFCURVE",
"637.98 443.525 CURVE SMOOTH",
"635.158 611.525 OFFCURVE",
"558.218 752.941 OFFCURVE",
"393.545 752.941 CURVE SMOOTH",
"195.386 752.941 OFFCURVE",
"48.931 561.396 OFFCURVE",
"51.752 303.475 CURVE SMOOTH",
"54.574 133.752 OFFCURVE",
"132.347 0.347 OFFCURVE",
"283.376 -9.059 CURVE",
"264.663 -122.129 OFFCURVE",
"352.762 -177.317 OFFCURVE",
"452.673 -177.317 CURVE SMOOTH",
"509.347 -177.317 OFFCURVE",
"566.822 -154.604 OFFCURVE",
"590.941 -135.545 CURVE"
);
},
{
closed = 1;
nodes = (
"494.406 703.287 OFFCURVE",
"552.624 592.119 OFFCURVE",
"555.446 430.941 CURVE SMOOTH",
"559.208 204.95 OFFCURVE",
"453.238 38.653 OFFCURVE",
"310.248 38.653 CURVE SMOOTH",
"198.257 38.653 OFFCURVE",
"135.228 149.614 OFFCURVE",
"133.347 314.119 CURVE SMOOTH",
"130.525 540.802 OFFCURVE",
"238.851 703.287 OFFCURVE",
"380.545 703.287 CURVE SMOOTH"
);
}
);
width = 664.9703;
},
{
anchors = (
{
name = btm;
position = "{344.287, -82}";
},
{
name = top;
position = "{461.99, 830}";
}
);
layerId = "27298932-82AF-4578-9425-6304FDB19058";
paths = (
{
closed = 1;
nodes = (
"681.03 -69.356 LINE",
"639.446 -83.356 OFFCURVE",
"570.129 -88.535 OFFCURVE",
"540.98 -88.535 CURVE SMOOTH",
"461.158 -88.535 OFFCURVE",
"397.95 -81.297 OFFCURVE",
"398.891 -2.149 CURVE",
"610.851 39.168 OFFCURVE",
"699.129 237.812 OFFCURVE",
"699.01 436.238 CURVE SMOOTH",
"698.921 604.238 OFFCURVE",
"622.891 752.03 OFFCURVE",
"417.228 752.03 CURVE SMOOTH",
"155.307 752.03 OFFCURVE",
"32.535 536.802 OFFCURVE",
"32.624 310.762 CURVE SMOOTH",
"32.713 114.624 OFFCURVE",
"122.327 -9.673 OFFCURVE",
"319.812 -9.97 CURVE",
"290.168 -139.436 OFFCURVE",
"349.119 -212.842 OFFCURVE",
"493.663 -212.842 CURVE SMOOTH",
"591.327 -212.842 OFFCURVE",
"656.089 -179.198 OFFCURVE",
"682.03 -159.228 CURVE"
);
},
{
closed = 1;
nodes = (
"485.297 692.356 OFFCURVE",
"516.188 593.941 OFFCURVE",
"516.277 430.03 CURVE SMOOTH",
"516.396 219.525 OFFCURVE",
"456.881 48.673 OFFCURVE",
"329.376 48.673 CURVE SMOOTH",
"232.871 48.673 OFFCURVE",
"215.386 189.693 OFFCURVE",
"215.327 315.941 CURVE SMOOTH",
"215.238 507.099 OFFCURVE",
"282.574 692.356 OFFCURVE",
"404.228 692.356 CURVE SMOOTH"
);
}
);
width = 710.51485;
}
);
leftKerningGroup = O;
leftMetricsKey = O;
widthMetricsKey = O;
rightKerningGroup = Q;
unicode = 0051;
},
{
color = 3;
glyphname = R;
lastChange = "2019-02-15 20:57:47 +0000";
layers = (
{
anchors = (
{
name = bottom;
position = "{329.782, 0}";
},
{
name = top;
position = "{372.832, 743}";
}
);
layerId = "0C3FD5EE-D923-4A4A-8FDE-164881635915";
paths = (
{
closed = 1;
nodes = (
"104.931 743 LINE",
"100.812 703.109 LINE",
"167.05 692.99 LINE",
"86.109 47.188 LINE",
"19.931 35.069 LINE",
"16.871 0 LINE",
"251.871 0 LINE",
"254.871 35.069 LINE",
"162.871 47.188 LINE",
"194.871 327.703 LINE",
"223.168 326.762 OFFCURVE",
"301.446 327.703 OFFCURVE",
"308.97 327.703 CURVE SMOOTH",
"352.545 327.218 OFFCURVE",
"401.941 214.871 OFFCURVE",
"441.287 122.109 CURVE SMOOTH",
"479.802 24.376 OFFCURVE",
"499.98 0 OFFCURVE",
"515.574 0 CURVE SMOOTH",
"601.168 0 LINE",
"606.228 39.772 LINE",
"556.574 39.832 OFFCURVE",
"552.04 54.743 OFFCURVE",
"500.644 165.891 CURVE SMOOTH",
"480 206.832 OFFCURVE",
"436.822 315.297 OFFCURVE",
"392.475 334.941 CURVE",
"511.822 365.525 OFFCURVE",
"589.762 462.762 OFFCURVE",
"587.881 583.752 CURVE SMOOTH",
"586 698.871 OFFCURVE",
"515.653 751 OFFCURVE",
"353.158 751 CURVE SMOOTH",
"309.426 751 OFFCURVE",
"266.436 743 OFFCURVE",
"224.01 743 CURVE SMOOTH"
);
},
{
closed = 1;
nodes = (
"243.871 696.287 LINE",
"270.574 700.228 OFFCURVE",
"324.03 704.05 OFFCURVE",
"338.792 704.05 CURVE SMOOTH",
"465.406 704.05 OFFCURVE",
"505.762 662.347 OFFCURVE",
"507.822 577.822 CURVE SMOOTH",
"510 467.109 OFFCURVE",
"438.832 380.535 OFFCURVE",
"324.257 373.95 CURVE SMOOTH",
"304.673 373.01 OFFCURVE",
"225.574 373.95 OFFCURVE",
"201.05 375.01 CURVE"
);
}
);
width = 638.69307;
},
{
anchors = (
{
name = bottom;
position = "{357.109, 0}";
},
{
name = top;
position = "{385.584, 743}";
}
);
layerId = "27298932-82AF-4578-9425-6304FDB19058";
paths = (
{
closed = 1;
nodes = (
"88.535 743 LINE",
"82.594 689.446 LINE",
"152.475 677.505 LINE",
"72.446 65.406 LINE",
"3.535 51.465 LINE",
"-0.436 0 LINE",
"326.564 0 LINE",
"329.564 51.465 LINE",
"237.564 65.406 LINE",
"269.564 323.149 LINE",
"302.416 323.119 OFFCURVE",
"354.277 323.149 OFFCURVE",
"354.515 323.149 CURVE",
"376.228 299.891 OFFCURVE",
"401.03 197.564 OFFCURVE",
"430.356 108.446 CURVE SMOOTH",
"446.099 60.812 OFFCURVE",
"469.01 0 OFFCURVE",
"493.713 0 CURVE",
"680.416 0 LINE",
"686.386 51.614 LINE",
"626.713 52.584 OFFCURVE",
"613.98 112.129 OFFCURVE",
"587.178 179.554 CURVE SMOOTH",
"572 219.584 OFFCURVE",
"526.089 319.851 OFFCURVE",
"491.762 334.03 CURVE",
"601.089 358.238 OFFCURVE",
"678.119 459.119 OFFCURVE",
"678.059 564.624 CURVE SMOOTH",
"678 681.564 OFFCURVE",
"617.673 751 OFFCURVE",
"416.921 751 CURVE SMOOTH",
"331.287 751 OFFCURVE",
"303.782 743 OFFCURVE",
"239.495 743 CURVE SMOOTH"
);
},
{
closed = 1;
nodes = (
"318.564 685.356 LINE",
"340.713 688.386 OFFCURVE",
"370.485 689.475 OFFCURVE",
"381.604 689.475 CURVE SMOOTH",
"456.297 689.475 OFFCURVE",
"502.119 652.327 OFFCURVE",
"505.089 575.089 CURVE SMOOTH",
"510 453.446 OFFCURVE",
"451.584 388.733 OFFCURVE",
"358.871 388.525 CURVE SMOOTH",
"345.663 388.495 OFFCURVE",
"295.713 388.525 OFFCURVE",
"278.475 390.495 CURVE"
);
}
);
width = 710.65347;
}
);
leftKerningGroup = H;
leftMetricsKey = H;
rightKerningGroup = R;
unicode = 0052;
},
{
color = 3;
glyphname = S;
lastChange = "2019-02-15 20:57:47 +0000";
layers = (
{
anchors = (
{
name = bottom;
position = "{216.307, 0}";
},
{
name = top;
position = "{318.96, 743}";
}
);
layerId = "0C3FD5EE-D923-4A4A-8FDE-164881635915";
paths = (
{
closed = 1;
nodes = (
"432.703 583.109 LINE",
"475.851 583.109 LINE",
"498.089 711.297 LINE",
"471.792 729.297 OFFCURVE",
"412.851 751.059 OFFCURVE",
"319.079 751.059 CURVE SMOOTH",
"192.941 751.059 OFFCURVE",
"85.347 674.119 OFFCURVE",
"87.228 555.634 CURVE SMOOTH",
"89.109 446.168 OFFCURVE",
"182.743 389.396 OFFCURVE",
"259.337 340.98 CURVE SMOOTH",
"325.881 299.911 OFFCURVE",
"391.04 255.327 OFFCURVE",
"388.218 170.752 CURVE SMOOTH",
"384.455 77.188 OFFCURVE",
"295.02 36.01 OFFCURVE",
"216.772 36.01 CURVE SMOOTH",
"169.188 36.01 OFFCURVE",
"116.614 48.01 OFFCURVE",
"88.97 66.95 CURVE",
"83.03 169.426 LINE",
"35.644 169.426 LINE",
"15.109 32.297 LINE",
"38.99 14.297 OFFCURVE",
"124.941 -11 OFFCURVE",
"214.188 -11 CURVE SMOOTH",
"360.337 -11 OFFCURVE",
"470.149 73.545 OFFCURVE",
"467.327 208.475 CURVE SMOOTH",
"465.446 310.238 OFFCURVE",
"380.396 360.366 OFFCURVE",
"305.921 407.663 CURVE SMOOTH",
"236.257 450.733 OFFCURVE",
"163.158 494.436 OFFCURVE",
"163.158 581.426 CURVE SMOOTH",
"163.158 664.406 OFFCURVE",
"241.723 704.168 OFFCURVE",
"312.723 704.168 CURVE SMOOTH",
"365.535 704.168 OFFCURVE",
"406.168 693.347 OFFCURVE",
"427.109 678.287 CURVE"
);
}
);
width = 523.25743;
},
{
anchors = (
{
name = bottom;
position = "{236.347, 0}";
},
{
name = top;
position = "{349.02, 743}";
}
);
layerId = "27298932-82AF-4578-9425-6304FDB19058";
paths = (
{
closed = 1;
nodes = (
"428.149 569.446 LINE",
"519.574 569.446 LINE",
"545.455 715.851 LINE",
"514.604 733.851 OFFCURVE",
"456.574 751.97 OFFCURVE",
"350.96 751.97 CURVE SMOOTH",
"192.03 751.97 OFFCURVE",
"75.327 675.941 OFFCURVE",
"75.386 534.683 CURVE SMOOTH",
"75.446 433.416 OFFCURVE",
"148.129 364.802 OFFCURVE",
"233.832 310.01 CURVE SMOOTH",
"324.059 252.545 OFFCURVE",
"360.98 214.337 OFFCURVE",
"360.891 151.624 CURVE SMOOTH",
"360.772 95.406 OFFCURVE",
"325.99 51.495 OFFCURVE",
"228.614 51.495 CURVE SMOOTH",
"187.406 51.495 OFFCURVE",
"156.693 63.495 OFFCURVE",
"134.515 81.525 CURVE",
"129.485 191.287 LINE",
"30.178 191.287 LINE",
"1.446 36.851 LINE",
"23.505 18.851 OFFCURVE",
"124.03 -11 OFFCURVE",
"232.406 -11 CURVE SMOOTH",
"426.832 -11 OFFCURVE",
"518.426 97.228 OFFCURVE",
"518.337 215.762 CURVE SMOOTH",
"518.277 313.881 OFFCURVE",
"447.802 381.317 OFFCURVE",
"366.04 433.168 CURVE SMOOTH",
"270.871 492.634 OFFCURVE",
"226.921 531.782 OFFCURVE",
"226.921 603.287 CURVE SMOOTH",
"226.921 655.297 OFFCURVE",
"268.139 691.416 OFFCURVE",
"339.139 691.416 CURVE SMOOTH",
"373.733 691.416 OFFCURVE",
"393.416 683.327 OFFCURVE",
"413.446 667.356 CURVE"
);
}
);
width = 557.87129;
}
);
leftKerningGroup = S;
rightKerningGroup = S;
unicode = 0053;
},
{
color = 3;
glyphname = Germandbls;
lastChange = "2019-02-15 20:57:47 +0000";
layers = (
{
layerId = "0C3FD5EE-D923-4A4A-8FDE-164881635915";
paths = (
{
closed = 1;
nodes = (
"80.03 45.307 LINE",
"18.97 34.129 LINE",
"15.851 -5.644 LINE",
"153.911 -5.644 LINE",
"209.505 460.772 LINE SMOOTH",
"227.564 613.941 OFFCURVE",
"307.366 702.525 OFFCURVE",
"422.069 701.584 CURVE",
"509.406 700.644 OFFCURVE",
"547.168 661.752 OFFCURVE",
"558.802 642.911 CURVE",
"402.584 419.356 LINE",
"400.347 405.99 LINE",
"463.693 384.337 OFFCURVE",
"592.02 311.05 OFFCURVE",
"592.02 200.238 CURVE SMOOTH",
"592.02 116.812 OFFCURVE",
"549.614 35.069 OFFCURVE",
"451.059 35.069 CURVE SMOOTH",
"401.188 35.069 OFFCURVE",
"353.97 52.713 OFFCURVE",
"341.208 73.069 CURVE",
"331.911 155.069 LINE",
"284.891 155.069 LINE",
"267.772 29.822 LINE",
"294.366 26.822 OFFCURVE",
"348.663 -10.525 OFFCURVE",
"442.356 -10.525 CURVE SMOOTH",
"575.594 -10.525 OFFCURVE",
"676.842 90.406 OFFCURVE",
"676.842 221.772 CURVE SMOOTH",
"676.842 352.713 OFFCURVE",
"554.505 410.891 OFFCURVE",
"474.673 448.119 CURVE",
"632.614 665.634 LINE",
"635.733 689.584 LINE",
"596.802 718.644 OFFCURVE",
"547.03 746.535 OFFCURVE",
"437.188 746.535 CURVE SMOOTH",
"266.05 746.535 OFFCURVE",
"148.327 612.475 OFFCURVE",
"128.327 445.475 CURVE SMOOTH"
);
}
);
width = 714;
},
{
layerId = "27298932-82AF-4578-9425-6304FDB19058";
paths = (
{
closed = 1;
nodes = (
"34.485 65.347 LINE",
"-27.485 51.436 LINE",
"-32.426 -0.178 LINE",
"198.545 -0.178 LINE",
"263.248 472.614 LINE SMOOTH",
"282.218 613.03 OFFCURVE",
"328.317 695.238 OFFCURVE",
"438.465 695.208 CURVE SMOOTH",
"500.297 695.178 OFFCURVE",
"534.416 642.624 OFFCURVE",
"525.099 595.545 CURVE",
"396.208 424.822 LINE",
"390.327 390.505 LINE",
"443.653 358.832 OFFCURVE",
"530.99 296.475 OFFCURVE",
"530.99 203.881 CURVE SMOOTH",
"530.99 98.594 OFFCURVE",
"497.693 51.465 OFFCURVE",
"451.97 51.465 CURVE SMOOTH",
"419.406 51.465 OFFCURVE",
"399.515 63.644 OFFCURVE",
"390.396 89.465 CURVE",
"376.545 171.465 LINE",
"298.554 171.465 LINE",
"279.614 27.089 LINE",
"315.317 24.089 OFFCURVE",
"374.168 -3.238 OFFCURVE",
"447.822 -3.238 CURVE SMOOTH",
"584.703 -3.238 OFFCURVE",
"705.079 81.297 OFFCURVE",
"705.079 233.614 CURVE SMOOTH",
"705.079 363.644 OFFCURVE",
"608.248 424.554 OFFCURVE",
"515.663 449.941 CURVE",
"672.693 644.683 LINE",
"677.634 683.208 LINE",
"655.099 713.178 OFFCURVE",
"593.485 754.733 OFFCURVE",
"455.406 754.733 CURVE SMOOTH",
"251.475 754.733 OFFCURVE",
"107.337 619.762 OFFCURVE",
"87.337 452.762 CURVE"
);
}
);
width = 714;
}
);
leftKerningGroup = S;
rightKerningGroup = S;
unicode = 1E9E;
},
{
color = 3;
glyphname = Schwa;
lastChange = "2019-02-15 20:57:47 +0000";
layers = (
{
layerId = "0C3FD5EE-D923-4A4A-8FDE-164881635915";
paths = (
{
closed = 1;
nodes = (
"89.059 569.396 LINE",
"132.089 569.396 LINE",
"162.158 655.347 LINE",
"189.446 678.059 OFFCURVE",
"249.604 706.287 OFFCURVE",
"338.406 706.287 CURVE SMOOTH",
"444.465 706.287 OFFCURVE",
"519.911 615.089 OFFCURVE",
"519.436 444.792 CURVE SMOOTH",
"519.436 420.98 OFFCURVE",
"518.436 398.168 OFFCURVE",
"516.554 376.238 CURVE",
"55.119 375.297 LINE",
"44.178 347.356 OFFCURVE",
"35.881 291 OFFCURVE",
"35.881 234 CURVE SMOOTH",
"35.881 78 OFFCURVE",
"111.95 -11 OFFCURVE",
"243.317 -11 CURVE SMOOTH",
"437.257 -11 OFFCURVE",
"601.317 184 OFFCURVE",
"601.317 452 CURVE SMOOTH",
"601.317 631.059 OFFCURVE",
"513.366 751 OFFCURVE",
"360.426 751 CURVE SMOOTH",
"223.515 751 OFFCURVE",
"166.822 714.525 OFFCURVE",
"112 711.703 CURVE"
);
},
{
closed = 1;
nodes = (
"511.495 331.812 LINE",
"482.851 134.871 OFFCURVE",
"385.109 35.188 OFFCURVE",
"267.198 35.188 CURVE SMOOTH",
"163.861 35.188 OFFCURVE",
"114.465 125.465 OFFCURVE",
"114.465 220.762 CURVE SMOOTH",
"114.465 260.406 OFFCURVE",
"121.406 297.693 OFFCURVE",
"129.406 331.812 CURVE"
);
}
);
width = 636.37624;
},
{
layerId = "27298932-82AF-4578-9425-6304FDB19058";
paths = (
{
closed = 1;
nodes = (
"89.97 544.802 LINE",
"179.455 544.802 LINE",
"225.921 645.327 LINE SMOOTH",
"242.277 678.97 OFFCURVE",
"274.198 695.356 OFFCURVE",
"329.297 695.356 CURVE SMOOTH",
"436.267 695.356 OFFCURVE",
"472.545 570.455 OFFCURVE",
"464.782 395.604 CURVE",
"464.782 390.01 OFFCURVE",
"463.782 385.416 OFFCURVE",
"463.723 379.881 CURVE",
"56.941 379.851 LINE",
"46.911 352.822 OFFCURVE",
"34.059 291 OFFCURVE",
"34.059 234 CURVE SMOOTH",
"34.059 78 OFFCURVE",
"126.525 -11 OFFCURVE",
"278.842 -11 CURVE SMOOTH",
"471.871 -11 OFFCURVE",
"636.842 184 OFFCURVE",
"636.842 452 CURVE SMOOTH",
"636.842 631.97 OFFCURVE",
"534.317 751 OFFCURVE",
"382.287 751 CURVE SMOOTH",
"200.743 751 OFFCURVE",
"164.089 707.238 OFFCURVE",
"112 707.149 CURVE"
);
},
{
closed = 1;
nodes = (
"457.752 313.594 LINE",
"434.574 117.564 OFFCURVE",
"371.446 53.406 OFFCURVE",
"300.901 53.406 CURVE SMOOTH",
"223.069 53.406 OFFCURVE",
"198.267 117.267 OFFCURVE",
"198.267 217.119 CURVE SMOOTH",
"198.267 251.297 OFFCURVE",
"204.297 277.653 OFFCURVE",
"212.297 313.594 CURVE"
);
}
);
width = 672.81188;
}
);
leftKerningGroup = O;
rightKerningGroup = O;
unicode = 018F;
},
{
color = 3;
glyphname = T;
lastChange = "2019-02-15 20:57:47 +0000";
layers = (
{
anchors = (
{
name = bottom;
position = "{277.911, 0}";
},
{
name = top;
position = "{373.851, 743}";
}
);
layerId = "0C3FD5EE-D923-4A4A-8FDE-164881635915";
paths = (
{
closed = 1;
nodes = (
"58.525 521.02 LINE",
"104.376 521.96 LINE",
"147.396 691.752 LINE",
"326.881 699.99 LINE",
"242.941 47.188 LINE",
"123.119 38.129 LINE",
"120.822 0 LINE",
"440.881 0 LINE",
"444 38.129 LINE",
"321.822 47.188 LINE",
"406.703 699.99 LINE",
"582.95 691.752 LINE",
"583.485 520.079 LINE",
"627.277 521.02 LINE",
"649.525 743 LINE",
"94.059 743 LINE"
);
}
);
width = 633.63366;
},
{
anchors = (
{
name = bottom;
position = "{322.545, 0}";
},
{
name = top;
position = "{417.574, 743}";
}
);
layerId = "27298932-82AF-4578-9425-6304FDB19058";
paths = (
{
closed = 1;
nodes = (
"51.238 459.99 LINE",
"140.812 460.02 LINE",
"214.802 672.624 LINE",
"325.059 684.505 LINE",
"242.03 65.406 LINE",
"124.941 55.436 LINE",
"118.089 0 LINE",
"531.059 0 LINE",
"536 55.436 LINE",
"411.089 65.406 LINE",
"494.149 684.505 LINE",
"597.525 672.624 LINE",
"606.257 459.96 LINE",
"692.861 459.99 LINE",
"734.238 743 LINE",
"94.97 743 LINE"
);
}
);
width = 704.68317;
}
);
leftKerningGroup = T;
rightKerningGroup = T;
unicode = 0054;
},
{
glyphname = Tbar;
lastChange = "2019-02-15 20:57:47 +0000";
layers = (
{
anchors = (
{
name = btm;
position = "{268.208, -83}";
},
{
name = top;
position = "{371.208, 830}";
}
);
layerId = "0C3FD5EE-D923-4A4A-8FDE-164881635915";
paths = (
{
closed = 1;
nodes = (
"40.644 521.02 LINE",
"86.495 521.96 LINE",
"129.871 691.752 LINE",
"309.891 700.05 LINE",
"271.95 407.822 LINE",
"137.139 407.822 LINE",
"130.079 355.515 LINE",
"264.772 355.515 LINE",
"226.01 47.188 LINE",
"105.891 37.891 LINE",
"103.594 0 LINE",
"424.723 0 LINE",
"427.842 37.891 LINE",
"304.891 47.188 LINE",
"344.594 355.515 LINE",
"501.099 355.515 LINE",
"507.218 407.822 LINE",
"351.713 407.822 LINE",
"389.713 700.05 LINE",
"571.614 691.752 LINE",
"564.624 520.079 LINE",
"608.416 521.02 LINE",
"638.188 743 LINE",
"76.416 743 LINE"
);
}
);
width = 604.53465;
},
{
anchors = (
{
name = btm;
position = "{317.396, -83}";
},
{
name = top;
position = "{420.396, 830}";
}
);
layerId = "27298932-82AF-4578-9425-6304FDB19058";
paths = (
{
closed = 1;
nodes = (
"35.178 459.99 LINE",
"124.752 460.02 LINE",
"204.564 672.624 LINE",
"323.554 685.475 LINE",
"286.525 405.089 LINE",
"169.931 405.089 LINE",
"161.96 332.743 LINE",
"276.614 332.743 LINE",
"241.495 65.406 LINE",
"119.554 51.554 LINE",
"112.703 0 LINE",
"543.139 0 LINE",
"548.079 51.554 LINE",
"410.554 65.406 LINE",
"445.703 332.743 LINE",
"563.95 332.743 LINE",
"571.891 405.089 LINE",
"454.644 405.089 LINE",
"492.644 685.475 LINE",
"611.693 672.624 LINE",
"620.188 459.96 LINE",
"706.792 459.99 LINE",
"748.406 743 LINE",
"82.792 743 LINE"
);
}
);
width = 704.73267;
}
);
leftKerningGroup = T;
rightKerningGroup = T;
unicode = 0166;
},
{
color = 3;
glyphname = U;
lastChange = "2019-02-16 05:19:15 +0000";
layers = (
{
anchors = (
{
name = bottom;
position = "{307.96, 0}";
},
{
name = ogonek;
position = "{395, 10}";
},
{
name = top;
position = "{399.851, 743}";
},
{
name = topright;
position = "{725.782, 743}";
}
);
layerId = "0C3FD5EE-D923-4A4A-8FDE-164881635915";
paths = (
{
closed = 1;
nodes = (
"645.208 693.931 LINE",
"707.267 703.168 LINE",
"711.446 743 LINE",
"516.426 743 LINE",
"512.366 703.168 LINE",
"578.723 692.99 LINE",
"529.663 306 LINE SMOOTH",
"506.663 123.248 OFFCURVE",
"438.089 35.545 OFFCURVE",
"313.386 35.545 CURVE SMOOTH",
"211.396 35.545 OFFCURVE",
"166.812 100.426 OFFCURVE",
"163.05 204.119 CURVE SMOOTH",
"162.109 231.822 OFFCURVE",
"164.168 261.238 OFFCURVE",
"168.228 296.475 CURVE SMOOTH",
"218.168 692.99 LINE",
"295.238 703.168 LINE",
"299.297 743 LINE",
"74.644 743 LINE",
"70.525 703.109 LINE",
"137.228 693.931 LINE",
"87.228 290 LINE SMOOTH",
"83.287 261 OFFCURVE",
"82.347 233.059 OFFCURVE",
"83.287 208.059 CURVE SMOOTH",
"87.99 73.832 OFFCURVE",
"159.109 -10 OFFCURVE",
"301.198 -10 CURVE SMOOTH",
"468.97 -10 OFFCURVE",
"567.267 76 OFFCURVE",
"596.267 306 CURVE SMOOTH"
);
}
);
width = 678.07921;
},
{
anchors = (
{
name = bottom;
position = "{338.02, 0}";
},
{
name = ogonek;
position = "{451, 10}";
},
{
name = top;
position = "{443.574, 743}";
},
{
name = topright;
position = "{753.109, 743}";
}
);
layerId = "27298932-82AF-4578-9425-6304FDB19058";
paths = (
{
closed = 1;
nodes = (
"694.396 677.535 LINE",
"757.366 690.416 LINE",
"764.277 743 LINE",
"538.287 743 LINE",
"533.317 690.416 LINE",
"605.139 677.505 LINE",
"555.168 306 LINE SMOOTH",
"532.168 142.376 OFFCURVE",
"485.455 59.228 OFFCURVE",
"365.307 59.228 CURVE SMOOTH",
"278.802 59.228 OFFCURVE",
"240.594 122.287 OFFCURVE",
"240.475 205.941 CURVE SMOOTH",
"240.446 229.089 OFFCURVE",
"243.416 264.881 OFFCURVE",
"248.386 303.762 CURVE SMOOTH",
"297.416 677.505 LINE",
"390.881 690.416 LINE",
"395.851 743 LINE",
"69.178 743 LINE",
"63.238 689.446 LINE",
"125.386 677.535 LINE",
"75.386 290 LINE SMOOTH",
"72.356 261 OFFCURVE",
"72.327 233.97 OFFCURVE",
"72.356 208.97 CURVE SMOOTH",
"72.505 86.584 OFFCURVE",
"145.446 -10 OFFCURVE",
"334.901 -10 CURVE SMOOTH",
"514.515 -10 OFFCURVE",
"617.366 76 OFFCURVE",
"646.366 306 CURVE SMOOTH"
);
}
);
width = 709.9604;
}
);
leftKerningGroup = U;
rightKerningGroup = U;
unicode = 0055;
},
{
glyphname = Uhorn;
lastChange = "2019-02-15 20:57:47 +0000";
layers = (
{
anchors = (
{
name = bottom;
position = "{306.257, 0}";
},
{
name = top;
position = "{400.327, 743}";
}
);
layerId = "0C3FD5EE-D923-4A4A-8FDE-164881635915";
paths = (
{
closed = 1;
nodes = (
"138.644 693.931 LINE",
"85.822 290 LINE SMOOTH",
"81.881 261 OFFCURVE",
"80.941 233.059 OFFCURVE",
"81.881 208.059 CURVE SMOOTH",
"83.762 73.832 OFFCURVE",
"159.584 -10 OFFCURVE",
"301.673 -10 CURVE SMOOTH",
"469.446 -10 OFFCURVE",
"564.921 76 OFFCURVE",
"594.861 306 CURVE SMOOTH",
"645.683 693.931 LINE",
"756.455 708.347 OFFCURVE",
"794.931 749.762 OFFCURVE",
"792.931 843 CURVE",
"792.931 850 OFFCURVE",
"791.931 857 OFFCURVE",
"790.931 865 CURVE",
"713.139 865 LINE",
"714.139 861 OFFCURVE",
"714.139 855 OFFCURVE",
"714.139 848 CURVE SMOOTH",
"714.139 798 OFFCURVE",
"691.436 743 OFFCURVE",
"609.436 743 CURVE SMOOTH",
"516.901 743 LINE",
"512.842 703.168 LINE",
"579.198 692.99 LINE",
"528.257 306 LINE SMOOTH",
"506.198 123.248 OFFCURVE",
"438.564 35.01 OFFCURVE",
"313.861 35.01 CURVE SMOOTH",
"212.05 35.01 OFFCURVE",
"163.347 99.832 OFFCURVE",
"161.465 204.119 CURVE SMOOTH",
"160.525 231.822 OFFCURVE",
"161.703 261.238 OFFCURVE",
"166.644 296.475 CURVE SMOOTH",
"219.406 692.99 LINE",
"295.713 703.168 LINE",
"299.772 743 LINE",
"74.644 743 LINE",
"70.525 703.109 LINE"
);
}
);
width = 716.93069;
},
{
anchors = (
{
name = bottom;
position = "{340.871, 0}";
},
{
name = top;
position = "{451.337, 743}";
}
);
layerId = "27298932-82AF-4578-9425-6304FDB19058";
paths = (
{
closed = 1;
nodes = (
"133.178 677.535 LINE",
"83.089 290 LINE SMOOTH",
"80.059 261 OFFCURVE",
"80.03 233.97 OFFCURVE",
"80.059 208.97 CURVE SMOOTH",
"80.119 86.584 OFFCURVE",
"153.208 -10 OFFCURVE",
"342.663 -10 CURVE SMOOTH",
"522.277 -10 OFFCURVE",
"625.04 76 OFFCURVE",
"654.069 306 CURVE SMOOTH",
"702.158 677.535 LINE",
"824.772 698.327 OFFCURVE",
"870.535 746.119 OFFCURVE",
"868.535 843 CURVE",
"868.535 850 OFFCURVE",
"867.535 857 OFFCURVE",
"866.535 865 CURVE",
"745.931 865 LINE",
"746.931 861 OFFCURVE",
"746.931 855 OFFCURVE",
"746.931 848 CURVE SMOOTH",
"746.931 798 OFFCURVE",
"728.782 743 OFFCURVE",
"646.782 743 CURVE SMOOTH",
"546.05 743 LINE",
"541.079 690.416 LINE",
"612.901 677.505 LINE",
"562.871 306 LINE SMOOTH",
"539.901 142.376 OFFCURVE",
"493.218 50.495 OFFCURVE",
"373.069 50.495 CURVE SMOOTH",
"289.475 50.495 OFFCURVE",
"245.327 112.584 OFFCURVE",
"245.267 205.941 CURVE SMOOTH",
"245.238 229.089 OFFCURVE",
"249.149 264.881 OFFCURVE",
"253.178 303.762 CURVE SMOOTH",
"302.297 677.505 LINE",
"398.644 690.416 LINE",
"403.614 743 LINE",
"69.178 743 LINE",
"63.238 689.446 LINE"
);
}
);
width = 792.53465;
}
);
leftKerningGroup = U;
leftMetricsKey = U;
rightKerningGroup = Uhorn;
unicode = 01AF;
},
{
color = 3;
glyphname = V;
lastChange = "2019-02-15 20:57:47 +0000";
layers = (
{
anchors = (
{
name = btm;
position = "{281.287, -83}";
},
{
name = top;
position = "{391.881, 830}";
}
);
layerId = "0C3FD5EE-D923-4A4A-8FDE-164881635915";
paths = (
{
closed = 1;
nodes = (
"33.941 703.168 LINE",
"93.178 692.99 LINE",
"218.921 -9.703 LINE",
"288.792 -5 LINE",
"609.733 693.931 LINE",
"663.089 703.109 LINE",
"667.208 743 LINE",
"471.178 743 LINE",
"467.119 703.109 LINE",
"543.772 692.99 LINE",
"332.663 220.782 LINE",
"273.673 69.396 LINE",
"255.267 220.782 LINE",
"176.238 692.99 LINE",
"273.455 703.109 LINE",
"277.515 743 LINE",
"38.119 743 LINE"
);
}
);
width = 596.61386;
},
{
anchors = (
{
name = btm;
position = "{362.356, -83}";
},
{
name = top;
position = "{482.059, 830}";
}
);
layerId = "27298932-82AF-4578-9425-6304FDB19058";
paths = (
{
closed = 1;
nodes = (
"33.03 690.416 LINE",
"95.911 677.505 LINE",
"187.04 -5.149 LINE",
"331.604 -5 LINE",
"651.634 677.535 LINE",
"710.455 689.446 LINE",
"716.396 743 LINE",
"473.911 743 LINE",
"468.941 689.446 LINE",
"555.614 677.505 LINE",
"358.168 248.109 LINE",
"314.663 136.802 LINE",
"305.366 248.109 LINE",
"271.881 677.505 LINE",
"341.772 689.446 LINE",
"346.743 743 LINE",
"39.941 743 LINE"
);
}
);
width = 636.69307;
}
);
leftKerningGroup = V;
rightKerningGroup = V;
unicode = 0056;
},
{
color = 3;
glyphname = W;
lastChange = "2019-02-15 20:57:47 +0000";
layers = (
{
anchors = (
{
name = bottom;
position = "{416.079, 0}";
},
{
name = top;
position = "{518.743, 743}";
}
);
layerId = "0C3FD5EE-D923-4A4A-8FDE-164881635915";
paths = (
{
closed = 1;
nodes = (
"36.861 703.168 LINE",
"99.505 692.931 LINE",
"198.624 -5 LINE",
"277.139 -5 LINE",
"477.485 514.02 LINE",
"537.475 -5 LINE",
"618.05 -5 LINE",
"911.535 692.99 LINE",
"979.535 703.168 LINE",
"985.475 743 LINE",
"776.03 743 LINE",
"771.97 703.109 LINE",
"847.218 692.931 LINE",
"648.347 197.267 LINE",
"599.525 70.812 LINE",
"585.941 214.198 LINE",
"530.832 693.871 LINE",
"618.178 703.109 LINE",
"625.941 743 LINE",
"388.426 743 LINE",
"384.366 703.168 LINE",
"454.307 693.871 LINE",
"463.188 622.931 LINE",
"298.198 186.921 LINE",
"257.317 70.812 LINE",
"238.554 214.198 LINE",
"178.089 694.752 LINE",
"264.139 703.109 LINE",
"267.198 743 LINE",
"41.04 743 LINE"
);
}
);
width = 898.81188;
},
{
anchors = (
{
name = bottom;
position = "{447.96, 0}";
},
{
name = top;
position = "{576.129, 743}";
}
);
layerId = "27298932-82AF-4578-9425-6304FDB19058";
paths = (
{
closed = 1;
nodes = (
"4.069 690.416 LINE",
"61.248 676.535 LINE",
"162.188 -5 LINE",
"309.931 -5 LINE",
"500.257 452.99 LINE",
"544.762 -5 LINE",
"695.475 -5 LINE",
"1011.733 677.505 LINE",
"1079.733 690.416 LINE",
"1084.762 743 LINE",
"822.485 743 LINE",
"817.515 689.446 LINE",
"911.891 676.535 LINE",
"730.327 247.366 LINE",
"684.238 144.594 LINE",
"677.03 247.901 LINE",
"635.584 676.564 LINE",
"712.911 689.446 LINE",
"717.03 743 LINE",
"410.287 743 LINE",
"405.317 690.416 LINE",
"474.347 676.564 LINE",
"481.406 606.535 LINE",
"331.901 247.04 LINE",
"292.842 144.594 LINE",
"277.723 247.901 LINE",
"225.455 675.624 LINE",
"296.931 689.446 LINE",
"300.901 743 LINE",
"10.98 743 LINE"
);
}
);
width = 972.59406;
}
);
leftKerningGroup = W;
rightKerningGroup = W;
unicode = 0057;
},
{
color = 3;
glyphname = X;
lastChange = "2019-02-15 20:57:47 +0000";
layers = (
{
anchors = (
{
name = btm;
position = "{257.228, -83}";
},
{
name = top;
position = "{384.059, 830}";
}
);
layerId = "0C3FD5EE-D923-4A4A-8FDE-164881635915";
paths = (
{
closed = 1;
nodes = (
"60 703.109 LINE",
"129.584 692.05 LINE",
"279.228 376 LINE",
"35.881 46.248 LINE",
"-26.881 35.069 LINE",
"-31 0 LINE",
"189.02 0 LINE",
"193.079 35.069 LINE",
"112.851 47.188 LINE",
"303.881 325.921 LINE",
"426.446 46.248 LINE",
"340.396 35.069 LINE",
"337.337 0 LINE",
"592.505 0 LINE",
"594.683 35.069 LINE",
"520.98 47.188 LINE",
"357.574 379.535 LINE",
"600.802 693.931 LINE",
"671.564 703.109 LINE",
"674.624 743 LINE",
"446.96 743 LINE",
"443.02 703.109 LINE",
"525.891 692.99 LINE",
"331.921 423.376 LINE",
"219.059 693.931 LINE",
"303.109 703.168 LINE",
"307.109 743 LINE",
"64.059 743 LINE"
);
}
);
width = 632.49505;
},
{
anchors = (
{
name = btm;
position = "{337.386, -83}";
},
{
name = top;
position = "{476.97, 830}";
}
);
layerId = "27298932-82AF-4578-9425-6304FDB19058";
paths = (
{
closed = 1;
nodes = (
"60 689.446 LINE",
"123.208 677.475 LINE",
"267.386 376 LINE",
"34.059 65.376 LINE",
"-25.059 51.465 LINE",
"-31 0 LINE",
"219.99 0 LINE",
"224.96 51.465 LINE",
"156.574 65.406 LINE",
"302.059 294.04 LINE",
"387.277 65.376 LINE",
"315.802 51.465 LINE",
"311.832 0 LINE",
"646.248 0 LINE",
"651.158 51.465 LINE",
"582.01 65.406 LINE",
"427.713 387.733 LINE",
"659.099 677.535 LINE",
"726.218 689.446 LINE",
"730.188 743 LINE",
"477.02 743 LINE",
"473.99 689.446 LINE",
"539.554 677.505 LINE",
"392.04 459.812 LINE",
"311.97 677.535 LINE",
"381.446 690.416 LINE",
"385.446 743 LINE",
"64.97 743 LINE"
);
}
);
width = 670.75248;
}
);
leftKerningGroup = X;
rightKerningGroup = X;
unicode = 0058;
},
{
color = 3;
glyphname = Y;
lastChange = "2019-02-15 20:57:47 +0000";
layers = (
{
anchors = (
{
name = bottom;
position = "{234.149, 0}";
},
{
name = btm;
position = "{240.436, -83}";
},
{
name = top;
position = "{342.168, 743}";
},
{
name = topleft;
position = "{67.366, 743}";
}
);
layerId = "0C3FD5EE-D923-4A4A-8FDE-164881635915";
paths = (
{
closed = 1;
nodes = (
"32.871 703.109 LINE",
"90.287 692.99 LINE",
"247.584 286.535 LINE",
"216.762 47.188 LINE",
"102.822 35.069 LINE",
"99.644 0 LINE",
"397.416 0 LINE",
"401.475 35.069 LINE",
"292.762 47.188 LINE",
"323.703 286.535 LINE",
"582.228 693.931 LINE",
"636.822 703.109 LINE",
"641 743 LINE",
"442.139 743 LINE",
"437.139 703.109 LINE",
"514.317 692.99 LINE",
"337.277 402.723 LINE",
"298.812 336.198 LINE",
"280.515 403.495 LINE",
"175.178 692.99 LINE",
"256.356 703.109 LINE",
"261.535 743 LINE",
"36.05 743 LINE"
);
}
);
width = 562.28713;
},
{
anchors = (
{
name = bottom;
position = "{282.426, 0}";
},
{
name = btm;
position = "{277.782, -83}";
},
{
name = top;
position = "{421.416, 743}";
},
{
name = topleft;
position = "{88.317, 743}";
}
);
layerId = "27298932-82AF-4578-9425-6304FDB19058";
paths = (
{
closed = 1;
nodes = (
"15.564 689.446 LINE",
"79.356 677.505 LINE",
"241.208 294.733 LINE",
"213.119 65.406 LINE",
"100.089 51.465 LINE",
"94.178 0 LINE",
"495.792 0 LINE",
"500.762 51.465 LINE",
"381.119 65.406 LINE",
"411.149 294.733 LINE",
"662.386 677.535 LINE",
"726.089 689.446 LINE",
"733 743 LINE",
"474.931 743 LINE",
"469.931 689.446 LINE",
"549.842 677.505 LINE",
"402.861 429.139 LINE",
"372.594 369.901 LINE",
"349.743 441.752 LINE",
"269.911 677.505 LINE",
"353.822 689.446 LINE",
"361.733 743 LINE",
"21.475 743 LINE"
);
}
);
width = 643.35644;
}
);
leftKerningGroup = Y;
rightKerningGroup = Y;
unicode = 0059;
},
{
color = 3;
glyphname = Z;
lastChange = "2019-02-15 20:57:47 +0000";
layers = (
{
anchors = (
{
name = bottom;
position = "{267.059, 0}";
},
{
name = top;
position = "{346.188, 743}";
}
);
layerId = "0C3FD5EE-D923-4A4A-8FDE-164881635915";
paths = (
{
closed = 1;
nodes = (
"94.703 573.574 LINE",
"142.079 564.455 LINE",
"184.802 693.634 LINE",
"502.386 696.99 LINE",
"416.99 596.317 LINE",
"-4.95 36.416 LINE",
"5.465 0 LINE",
"501.614 0 LINE",
"546.851 174.376 LINE",
"499.475 188.03 LINE",
"440.158 53.545 LINE",
"89.347 43.485 LINE",
"160.337 132.871 LINE",
"593.208 707.584 LINE",
"583.851 743 LINE",
"122.881 743 LINE"
);
}
);
width = 591.48515;
},
{
anchors = (
{
name = bottom;
position = "{267.97, 0}";
},
{
name = top;
position = "{364.406, 743}";
}
);
layerId = "27298932-82AF-4578-9425-6304FDB19058";
paths = (
{
closed = 1;
nodes = (
"90.149 551.713 LINE",
"173.96 540.772 LINE",
"243.099 672.683 LINE",
"462.307 681.505 LINE",
"401.505 631.842 LINE",
"-19.525 42.792 LINE",
"-2.733 0 LINE",
"541.693 0 LINE",
"590.574 210.812 LINE",
"506.762 234.485 LINE",
"411.921 77.228 LINE",
"171.327 66.257 LINE",
"226.832 115.564 LINE",
"642.396 701.208 LINE",
"627.574 743 LINE",
"121.059 743 LINE"
);
}
);
width = 614.25743;
}
);
leftKerningGroup = Z;
rightKerningGroup = Z;
unicode = 005A;
},
{
glyphname = a;
lastChange = "2019-02-15 20:57:47 +0000";
layers = (
{
anchors = (
{
name = bottom;
position = "{231.495, 0}";
},
{
name = caron;
position = "{528.851, 811}";
},
{
name = ogonek;
position = "{465.475, 10}";
},
{
name = top;
position = "{355.238, 554}";
}
);
hints = (
{
place = "{14.716, 0}";
type = Stem;
}
);
layerId = "0C3FD5EE-D923-4A4A-8FDE-164881635915";
paths = (
{
closed = 1;
nodes = (
"511.495 567.059 LINE",
"456.248 550.762 LINE",
"428.188 559.822 OFFCURVE",
"386.772 568 OFFCURVE",
"357.178 568 CURVE SMOOTH",
"156.871 568 OFFCURVE",
"43.812 354.02 OFFCURVE",
"43.812 200.703 CURVE SMOOTH",
"43.812 79.297 OFFCURVE",
"89.168 -10 OFFCURVE",
"199.881 -10 CURVE SMOOTH",
"271.644 -10 OFFCURVE",
"335.693 47.277 OFFCURVE",
"373.277 97.208 CURVE",
"367.634 56.465 LINE",
"365.05 8.119 OFFCURVE",
"388.584 -10 OFFCURVE",
"425.238 -10 CURVE SMOOTH",
"476.842 -10 OFFCURVE",
"517.317 38.297 OFFCURVE",
"523.673 49.713 CURVE",
"509.673 71.545 LINE",
"491.376 54.485 OFFCURVE",
"479.317 43.901 OFFCURVE",
"465.614 43.901 CURVE SMOOTH",
"456.257 43.901 OFFCURVE",
"441.733 52.96 OFFCURVE",
"446.614 85.604 CURVE SMOOTH"
);
},
{
closed = 1;
nodes = (
"380.673 162.198 LINE",
"349.505 117.04 OFFCURVE",
"283.356 47.723 OFFCURVE",
"216.208 47.723 CURVE SMOOTH",
"152.396 47.723 OFFCURVE",
"125.337 110.713 OFFCURVE",
"125.337 209.525 CURVE SMOOTH",
"125.337 342.347 OFFCURVE",
"200.842 518.812 OFFCURVE",
"346.178 518.812 CURVE SMOOTH",
"374.109 518.812 OFFCURVE",
"402.98 512.168 OFFCURVE",
"424.327 497 CURVE"
);
}
);
width = 575.71287;
},
{
anchors = (
{
name = bottom;
position = "{269.752, 0}";
},
{
name = caron;
position = "{572.574, 811}";
},
{
name = ogonek;
position = "{472.762, 10}";
},
{
name = top;
position = "{358.881, 554}";
}
);
hints = (
{
place = "{240.357, 0}";
type = Stem;
}
);
layerId = "27298932-82AF-4578-9425-6304FDB19058";
paths = (
{
closed = 1;
nodes = (
"549.752 567.97 LINE",
"475.376 547.119 LINE",
"446.406 557.089 OFFCURVE",
"398.614 568 OFFCURVE",
"359.911 568 CURVE SMOOTH",
"139.564 568 OFFCURVE",
"25.594 384.99 OFFCURVE",
"25.594 196.149 CURVE SMOOTH",
"25.594 83.851 OFFCURVE",
"76.416 -10 OFFCURVE",
"198.059 -10 CURVE SMOOTH",
"266.178 -10 OFFCURVE",
"315.653 20.861 OFFCURVE",
"346.861 54.396 CURVE",
"346.683 48.267 LINE",
"350.475 9.941 OFFCURVE",
"382.208 -10 OFFCURVE",
"428.881 -10 CURVE SMOOTH",
"505.079 -10 OFFCURVE",
"552.842 42.851 OFFCURVE",
"564.663 60.644 CURVE",
"550.663 95.228 LINE",
"527.812 77.257 OFFCURVE",
"514.842 73.05 OFFCURVE",
"505.693 73.05 CURVE SMOOTH",
"490.871 73.05 OFFCURVE",
"483.634 83.02 OFFCURVE",
"486.693 110.198 CURVE SMOOTH"
);
},
{
closed = 1;
nodes = (
"329.663 103.901 LINE",
"311.248 86.98 OFFCURVE",
"288.822 74.139 OFFCURVE",
"265.396 74.139 CURVE SMOOTH",
"219.802 74.139 OFFCURVE",
"191.832 121.644 OFFCURVE",
"191.832 202.238 CURVE SMOOTH",
"191.832 332.327 OFFCURVE",
"229.079 500.594 OFFCURVE",
"348.911 500.594 CURVE SMOOTH",
"360.446 500.594 OFFCURVE",
"372.01 499.416 OFFCURVE",
"383.337 497 CURVE"
);
}
);
width = 586.64356;
}
);
leftKerningGroup = a;
rightKerningGroup = a;
unicode = 0061;
},
{
glyphname = aogonek;
lastChange = "2019-02-15 20:57:47 +0000";
layers = (
{
anchors = (
{
name = _ogonek;
position = "{463.832, 10}";
},
{
name = bottom;
position = "{228.842, 0}";
},
{
name = caron;
position = "{527.208, 811}";
},
{
name = ogonek;
position = "{463.832, 10}";
},
{
name = top;
position = "{352.653, 554.356}";
}
);
hints = (
{
place = "{14.716, 0}";
type = Stem;
}
);
layerId = "0C3FD5EE-D923-4A4A-8FDE-164881635915";
paths = (
{
closed = 1;
nodes = (
"42.168 79.297 OFFCURVE",
"87.525 -10 OFFCURVE",
"198.238 -10 CURVE SMOOTH",
"270 -10 OFFCURVE",
"334.05 47.277 OFFCURVE",
"371.634 97.208 CURVE",
"365.99 56.465 LINE",
"363.667 14.845 OFFCURVE",
"380.609 -4.134 OFFCURVE",
"408.495 -8.599 CURVE",
"386.002 -25.574 OFFCURVE",
"363.206 -46.907 OFFCURVE",
"345.208 -76.178 CURVE SMOOTH",
"336.911 -89.475 OFFCURVE",
"328.851 -110.772 OFFCURVE",
"328.851 -127.713 CURVE",
"327.911 -156.198 OFFCURVE",
"346.683 -186.376 OFFCURVE",
"395.574 -186.376 CURVE SMOOTH",
"448.703 -186.376 OFFCURVE",
"486.95 -164.604 OFFCURVE",
"511.842 -142.416 CURVE",
"501.426 -108.109 LINE",
"480.01 -127.228 OFFCURVE",
"454.366 -138.465 OFFCURVE",
"429.248 -138.465 CURVE SMOOTH",
"410.248 -138.465 OFFCURVE",
"400.01 -124.881 OFFCURVE",
"401.891 -97.822 CURVE",
"401.891 -62.444 OFFCURVE",
"441.932 -24.024 OFFCURVE",
"477.209 6.801 CURVE",
"501.437 21.89 OFFCURVE",
"518.132 42.717 OFFCURVE",
"522.03 49.713 CURVE",
"508.03 71.545 LINE",
"489.733 54.485 OFFCURVE",
"477.673 43.901 OFFCURVE",
"463.97 43.901 CURVE SMOOTH",
"454.614 43.901 OFFCURVE",
"440.089 52.96 OFFCURVE",
"444.97 85.604 CURVE SMOOTH",
"509.851 567.059 LINE",
"454.604 550.762 LINE",
"426.545 559.822 OFFCURVE",
"385.129 568 OFFCURVE",
"355.535 568 CURVE SMOOTH",
"155.228 568 OFFCURVE",
"42.168 354.02 OFFCURVE",
"42.168 200.703 CURVE SMOOTH"
);
},
{
closed = 1;
nodes = (
"123.693 342.347 OFFCURVE",
"199.198 518.812 OFFCURVE",
"344.535 518.812 CURVE SMOOTH",
"372.465 518.812 OFFCURVE",
"401.337 512.168 OFFCURVE",
"422.683 497 CURVE",
"379.03 162.198 LINE",
"347.861 117.04 OFFCURVE",
"281.713 47.723 OFFCURVE",
"214.564 47.723 CURVE SMOOTH",
"150.752 47.723 OFFCURVE",
"123.693 110.713 OFFCURVE",
"123.693 209.525 CURVE SMOOTH"
);
}
);
width = 574.18812;
},
{
anchors = (
{
name = _ogonek;
position = "{476.584, 10}";
},
{
name = bottom;
position = "{257.079, 0}";
},
{
name = caron;
position = "{576.396, 811}";
},
{
name = ogonek;
position = "{476.584, 10}";
},
{
name = top;
position = "{362.673, 559.822}";
}
);
hints = (
{
place = "{240.357, 0}";
type = Stem;
}
);
layerId = "27298932-82AF-4578-9425-6304FDB19058";
paths = (
{
closed = 1;
nodes = (
"29.416 83.851 OFFCURVE",
"80.238 -10 OFFCURVE",
"201.881 -10 CURVE SMOOTH",
"270 -10 OFFCURVE",
"319.475 20.861 OFFCURVE",
"350.683 54.396 CURVE",
"350.505 48.267 LINE",
"352.751 24.919 OFFCURVE",
"365.326 8.535 OFFCURVE",
"385.266 -0.726 CURVE",
"357.813 -16.781 OFFCURVE",
"329.45 -39.318 OFFCURVE",
"302.396 -78.911 CURVE SMOOTH",
"289.545 -96.762 OFFCURVE",
"280.574 -122.614 OFFCURVE",
"280.574 -138.644 CURVE SMOOTH",
"280.545 -189.901 OFFCURVE",
"311.158 -222.812 OFFCURVE",
"373.713 -222.812 CURVE SMOOTH",
"444.149 -222.812 OFFCURVE",
"501.525 -189.198 OFFCURVE",
"540.079 -148.792 CURVE",
"523.287 -94.446 LINE",
"495.495 -115.386 OFFCURVE",
"475.317 -130.267 OFFCURVE",
"448.376 -130.267 CURVE SMOOTH",
"429.376 -130.267 OFFCURVE",
"415.495 -123.059 OFFCURVE",
"415.554 -95.089 CURVE SMOOTH",
"415.554 -64.956 OFFCURVE",
"455.056 -28.019 OFFCURVE",
"505.844 7.571 CURVE",
"539.59 24.62 OFFCURVE",
"561.081 49.502 OFFCURVE",
"568.485 60.644 CURVE",
"554.485 95.228 LINE",
"531.634 77.257 OFFCURVE",
"518.663 73.05 OFFCURVE",
"509.515 73.05 CURVE SMOOTH",
"494.693 73.05 OFFCURVE",
"487.455 83.02 OFFCURVE",
"490.515 110.198 CURVE SMOOTH",
"553.574 567.97 LINE",
"479.198 547.119 LINE",
"450.228 557.089 OFFCURVE",
"402.436 568 OFFCURVE",
"363.733 568 CURVE SMOOTH",
"143.386 568 OFFCURVE",
"29.416 384.99 OFFCURVE",
"29.416 196.149 CURVE SMOOTH"
);
},
{
closed = 1;
nodes = (
"195.653 332.327 OFFCURVE",
"232.901 500.594 OFFCURVE",
"352.733 500.594 CURVE SMOOTH",
"364.267 500.594 OFFCURVE",
"375.832 499.416 OFFCURVE",
"387.158 497 CURVE",
"333.485 103.901 LINE",
"315.069 86.98 OFFCURVE",
"292.644 74.139 OFFCURVE",
"269.218 74.139 CURVE SMOOTH",
"223.624 74.139 OFFCURVE",
"195.653 121.644 OFFCURVE",
"195.653 202.238 CURVE SMOOTH"
);
}
);
width = 592.40594;
}
);
leftKerningGroup = a;
rightKerningGroup = a;
unicode = 0105;
},
{
glyphname = ae;
lastChange = "2019-02-15 20:57:47 +0000";
layers = (
{
anchors = (
{
name = top;
position = "{506.465, 555}";
}
);
layerId = "0C3FD5EE-D923-4A4A-8FDE-164881635915";
paths = (
{
closed = 1;
nodes = (
"512.782 567.059 LINE",
"457.495 550.178 LINE",
"429.376 559.119 OFFCURVE",
"392.317 567.059 OFFCURVE",
"358.495 567.059 CURVE SMOOTH",
"157.416 567.059 OFFCURVE",
"42.168 352.782 OFFCURVE",
"42.168 199.465 CURVE SMOOTH",
"42.168 72.069 OFFCURVE",
"87.277 -10 OFFCURVE",
"189.525 -10 CURVE SMOOTH",
"277.228 -10 OFFCURVE",
"350.812 78.931 OFFCURVE",
"386.99 152.921 CURVE",
"399.703 56.406 OFFCURVE",
"454 -10 OFFCURVE",
"566.059 -10 CURVE SMOOTH",
"666.604 -10 OFFCURVE",
"749.307 52.535 OFFCURVE",
"777.188 91.772 CURVE",
"758.416 125.782 LINE",
"702.317 71.089 OFFCURVE",
"633.98 46.96 OFFCURVE",
"577.673 46.96 CURVE SMOOTH",
"479.287 46.96 OFFCURVE",
"461.218 136.99 OFFCURVE",
"465.921 227.644 CURVE",
"565.406 229.703 OFFCURVE",
"803.96 290.644 OFFCURVE",
"803.723 444.119 CURVE SMOOTH",
"803.545 513.119 OFFCURVE",
"760.307 569.881 OFFCURVE",
"666.238 567.059 CURVE SMOOTH",
"604.129 565.178 OFFCURVE",
"545.96 536.307 OFFCURVE",
"499.376 489.97 CURVE"
);
},
{
closed = 1;
nodes = (
"382.327 204.446 LINE",
"356.208 152.277 OFFCURVE",
"285.347 48.495 OFFCURVE",
"205.257 48.495 CURVE SMOOTH",
"153.386 48.495 OFFCURVE",
"123.693 99.267 OFFCURVE",
"123.693 208.584 CURVE SMOOTH",
"123.693 340.109 OFFCURVE",
"200.446 517.921 OFFCURVE",
"346.842 518.752 CURVE SMOOTH",
"378.178 518.812 OFFCURVE",
"408.574 511.287 OFFCURVE",
"429.564 493.416 CURVE"
);
},
{
closed = 1;
nodes = (
"696.683 520.693 OFFCURVE",
"722.792 492.99 OFFCURVE",
"722.911 438.644 CURVE SMOOTH",
"723.089 335.059 OFFCURVE",
"573.713 275.535 OFFCURVE",
"467.802 272.535 CURVE",
"478.505 375.762 OFFCURVE",
"543.01 520.693 OFFCURVE",
"648.109 520.693 CURVE SMOOTH"
);
}
);
width = 848.17822;
},
{
anchors = (
{
name = top;
position = "{498.267, 555}";
}
);
layerId = "27298932-82AF-4578-9425-6304FDB19058";
paths = (
{
closed = 1;
nodes = (
"540.109 567.97 LINE",
"495.752 552.911 LINE",
"465.812 560.941 OFFCURVE",
"427.842 567.97 OFFCURVE",
"396.752 567.97 CURVE SMOOTH",
"163.792 567.97 OFFCURVE",
"29.416 380.109 OFFCURVE",
"29.416 191.267 CURVE SMOOTH",
"29.416 88.465 OFFCURVE",
"60.861 -10 OFFCURVE",
"182.238 -10 CURVE SMOOTH",
"265.386 -10 OFFCURVE",
"332.594 62.535 OFFCURVE",
"371.505 121.04 CURVE",
"395.149 47.297 OFFCURVE",
"454 -10 OFFCURVE",
"566.97 -10 CURVE SMOOTH",
"691.198 -10 OFFCURVE",
"769.347 60.733 OFFCURVE",
"795.406 103.614 CURVE",
"764.792 153.109 LINE",
"737.842 118.455 OFFCURVE",
"695.01 77.02 OFFCURVE",
"618.663 77.02 CURVE SMOOTH",
"560.356 77.02 OFFCURVE",
"525.891 121.505 OFFCURVE",
"526.04 222.178 CURVE",
"648.297 225.149 OFFCURVE",
"834.02 285.178 OFFCURVE",
"830.139 445.941 CURVE",
"827.228 514.941 OFFCURVE",
"780.347 568.059 OFFCURVE",
"669.881 567.97 CURVE SMOOTH",
"621.436 567.911 OFFCURVE",
"576.02 556.347 OFFCURVE",
"535.812 535.515 CURVE"
);
},
{
closed = 1;
nodes = (
"341.337 165.277 LINE",
"313.396 125.861 OFFCURVE",
"275.327 86.752 OFFCURVE",
"239.871 86.752 CURVE SMOOTH",
"205.307 86.752 OFFCURVE",
"195.653 149.366 OFFCURVE",
"195.653 202.208 CURVE SMOOTH",
"195.653 326.446 OFFCURVE",
"253.277 486.04 OFFCURVE",
"375.079 499.624 CURVE SMOOTH",
"380.911 500.594 OFFCURVE",
"386.713 500.356 OFFCURVE",
"392.218 499.792 CURVE"
);
},
{
closed = 1;
nodes = (
"661.158 500.653 OFFCURVE",
"673.604 477.505 OFFCURVE",
"675.545 433.178 CURVE",
"678.455 335.97 OFFCURVE",
"584.644 283.733 OFFCURVE",
"526.099 280.733 CURVE",
"532.248 372.119 OFFCURVE",
"558.495 500.653 OFFCURVE",
"634.446 500.653 CURVE SMOOTH"
);
}
);
width = 850.91089;
}
);
leftKerningGroup = a;
rightKerningGroup = e;
unicode = 00E6;
},
{
glyphname = b;
lastChange = "2019-02-15 20:57:47 +0000";
layers = (
{
anchors = (
{
name = bottom;
position = "{212.653, 0}";
},
{
name = top;
position = "{391.545, 555}";
}
);
layerId = "0C3FD5EE-D923-4A4A-8FDE-164881635915";
paths = (
{
closed = 1;
nodes = (
"230.089 804.881 LINE",
"209.733 817 LINE",
"104.921 800.822 LINE",
"96.802 767.347 LINE",
"144.04 750.109 LINE",
"44.861 -2.475 LINE",
"85.475 15.703 LINE",
"112.713 2.881 OFFCURVE",
"163.475 -10 OFFCURVE",
"205.356 -10 CURVE SMOOTH",
"402.891 -10 OFFCURVE",
"515.782 202.733 OFFCURVE",
"515.782 356 CURVE SMOOTH",
"515.782 479.713 OFFCURVE",
"462.663 568 OFFCURVE",
"349.663 568 CURVE SMOOTH",
"277.495 568 OFFCURVE",
"218.327 521.426 OFFCURVE",
"187.267 477.495 CURVE"
);
},
{
closed = 1;
nodes = (
"177.267 408.901 LINE",
"201.97 449.832 OFFCURVE",
"263.713 510.218 OFFCURVE",
"334.277 510.218 CURVE SMOOTH",
"398.327 510.218 OFFCURVE",
"434.436 450.277 OFFCURVE",
"434.436 351.297 CURVE SMOOTH",
"434.436 223.99 OFFCURVE",
"364.218 39.188 OFFCURVE",
"216.475 39.188 CURVE SMOOTH",
"185.366 39.188 OFFCURVE",
"153.495 44.891 OFFCURVE",
"131.089 63 CURVE"
);
}
);
width = 557.12871;
},
{
anchors = (
{
name = bottom;
position = "{222.673, 0}";
},
{
name = top;
position = "{415.228, 555}";
}
);
layerId = "27298932-82AF-4578-9425-6304FDB19058";
paths = (
{
closed = 1;
nodes = (
"277.455 803.059 LINE",
"251.634 817 LINE",
"73.04 798.089 LINE",
"63.099 757.327 LINE",
"113.98 736.446 LINE",
"12.069 -9.762 LINE",
"92.762 11.149 LINE",
"123.644 1.059 OFFCURVE",
"170.762 -10 OFFCURVE",
"210.822 -10 CURVE SMOOTH",
"416.554 -10 OFFCURVE",
"543.109 152.634 OFFCURVE",
"543.109 356 CURVE SMOOTH",
"543.109 490.644 OFFCURVE",
"488.168 568 OFFCURVE",
"375.168 568 CURVE SMOOTH",
"315.752 568 OFFCURVE",
"269.337 543.287 OFFCURVE",
"237.366 515.752 CURVE"
);
},
{
closed = 1;
nodes = (
"227.366 438.05 LINE",
"247.515 462.584 OFFCURVE",
"274.644 482.891 OFFCURVE",
"307.861 482.891 CURVE SMOOTH",
"357.337 482.891 OFFCURVE",
"379.782 423.861 OFFCURVE",
"379.782 355.851 CURVE SMOOTH",
"379.782 208.505 OFFCURVE",
"336.891 57.406 OFFCURVE",
"223.762 57.406 CURVE SMOOTH",
"206.317 57.406 OFFCURVE",
"191.752 58.554 OFFCURVE",
"178.455 63 CURVE"
);
}
);
width = 574.43564;
}
);
leftKerningGroup = b;
rightKerningGroup = o;
unicode = 0062;
},
{
glyphname = c;
lastChange = "2019-02-15 20:57:47 +0000";
layers = (
{
anchors = (
{
name = bottom;
position = "{219.238, 0}";
},
{
name = top;
position = "{309.248, 555.059}";
}
);
layerId = "0C3FD5EE-D923-4A4A-8FDE-164881635915";
paths = (
{
closed = 1;
nodes = (
"408.069 464.426 LINE",
"431.139 544.297 LINE",
"402.901 559.178 OFFCURVE",
"357.426 568 OFFCURVE",
"322.129 568 CURVE SMOOTH",
"135.287 568 OFFCURVE",
"35.168 362.426 OFFCURVE",
"35.347 210.594 CURVE SMOOTH",
"35.465 73.644 OFFCURVE",
"100.941 -10 OFFCURVE",
"212.119 -10 CURVE SMOOTH",
"306.485 -10 OFFCURVE",
"367.376 46.356 OFFCURVE",
"391.554 75.248 CURVE",
"375.604 108.317 LINE",
"330.792 72.436 OFFCURVE",
"293.911 47.257 OFFCURVE",
"234.673 47.257 CURVE SMOOTH",
"162.624 47.257 OFFCURVE",
"118.752 105.069 OFFCURVE",
"118.574 221.238 CURVE SMOOTH",
"118.337 391.406 OFFCURVE",
"190.861 508.871 OFFCURVE",
"304.059 508.871 CURVE SMOOTH",
"334.525 508.871 OFFCURVE",
"369.822 491.901 OFFCURVE",
"396.525 471.95 CURVE"
);
}
);
width = 456.83168;
},
{
anchors = (
{
name = bottom;
position = "{222.881, 0}";
},
{
name = top;
position = "{328.376, 555.97}";
}
);
layerId = "27298932-82AF-4578-9425-6304FDB19058";
paths = (
{
closed = 1;
nodes = (
"424.465 394.287 LINE",
"463.931 548.851 LINE",
"432.05 561.911 OFFCURVE",
"379.287 568 OFFCURVE",
"339.436 568 CURVE SMOOTH",
"124.356 568 OFFCURVE",
"22.416 384.287 OFFCURVE",
"25.327 219.703 CURVE SMOOTH",
"27.267 68.178 OFFCURVE",
"100.03 -10 OFFCURVE",
"213.941 -10 CURVE SMOOTH",
"329.257 -10 OFFCURVE",
"403.812 51.822 OFFCURVE",
"430.723 94.376 CURVE",
"400.198 143.842 LINE",
"373.604 109.782 OFFCURVE",
"338.545 81.871 OFFCURVE",
"275.663 81.871 CURVE SMOOTH",
"218.188 81.871 OFFCURVE",
"191.624 121.465 OFFCURVE",
"188.713 224.881 CURVE SMOOTH",
"184.832 382.297 OFFCURVE",
"250.069 491.564 OFFCURVE",
"304.97 491.564 CURVE SMOOTH",
"327.238 491.564 OFFCURVE",
"367.089 429.05 OFFCURVE",
"389.238 394.525 CURVE"
);
}
);
width = 469.58416;
}
);
leftKerningGroup = o;
rightKerningGroup = c;
unicode = 0063;
},
{
glyphname = d;
lastChange = "2019-02-15 20:57:47 +0000";
layers = (
{
anchors = (
{
name = bottom;
position = "{222.832, 0}";
},
{
name = caron;
position = "{548.267, 811}";
},
{
name = top;
position = "{192.634, 555}";
}
);
layerId = "0C3FD5EE-D923-4A4A-8FDE-164881635915";
paths = (
{
closed = 1;
nodes = (
"551.386 804.881 LINE",
"530.03 817 LINE",
"410.267 799.762 LINE",
"402.208 766.347 LINE",
"465.98 750.05 LINE",
"437.337 554.535 LINE",
"411.871 562.238 OFFCURVE",
"380.703 568 OFFCURVE",
"354.416 568 CURVE SMOOTH",
"152.871 568 OFFCURVE",
"40.347 354.02 OFFCURVE",
"40.347 200.703 CURVE SMOOTH",
"40.347 79.297 OFFCURVE",
"91.99 -10 OFFCURVE",
"202.703 -10 CURVE SMOOTH",
"275.297 -10 OFFCURVE",
"333.941 34.941 OFFCURVE",
"366.584 77.644 CURVE",
"366.644 50.772 LINE",
"365.119 7.535 OFFCURVE",
"384.416 -10 OFFCURVE",
"417.782 -10 CURVE SMOOTH",
"469.564 -10 OFFCURVE",
"509.861 35.713 OFFCURVE",
"518.099 47.832 CURVE",
"505.04 69.663 LINE",
"485.743 52.604 OFFCURVE",
"471.861 43.901 OFFCURVE",
"458.158 43.901 CURVE SMOOTH",
"448.743 43.901 OFFCURVE",
"442.861 55.079 OFFCURVE",
"445.861 79.079 CURVE"
);
},
{
closed = 1;
nodes = (
"375.158 144.752 LINE",
"348.693 103.703 OFFCURVE",
"287.772 47.723 OFFCURVE",
"218.089 47.723 CURVE SMOOTH",
"156.218 47.723 OFFCURVE",
"121.752 106.95 OFFCURVE",
"121.752 206.703 CURVE SMOOTH",
"121.752 332.941 OFFCURVE",
"192.376 518.812 OFFCURVE",
"342.416 518.812 CURVE SMOOTH",
"372.703 518.812 OFFCURVE",
"405.693 512.05 OFFCURVE",
"428.218 492.941 CURVE"
);
}
);
width = 572.61386;
},
{
anchors = (
{
name = bottom;
position = "{235.584, 0}";
},
{
name = caron;
position = "{598.366, 811}";
},
{
name = top;
position = "{171.683, 555}";
}
);
layerId = "27298932-82AF-4578-9425-6304FDB19058";
paths = (
{
closed = 1;
nodes = (
"603.307 803.059 LINE",
"576.485 817 LINE",
"368.366 796.119 LINE",
"359.396 756.327 LINE",
"435.01 735.475 LINE",
"411.832 562.733 LINE",
"394.564 565.881 OFFCURVE",
"376.149 568 OFFCURVE",
"360.792 568 CURVE SMOOTH",
"135.564 568 OFFCURVE",
"30.327 384.99 OFFCURVE",
"30.327 196.149 CURVE SMOOTH",
"30.327 83.851 OFFCURVE",
"76.505 -10 OFFCURVE",
"198.149 -10 CURVE SMOOTH",
"279.851 -10 OFFCURVE",
"333.03 34.03 OFFCURVE",
"360.208 72.178 CURVE",
"361.178 62.614 LINE",
"366.941 15.733 OFFCURVE",
"390.792 -10 OFFCURVE",
"445.109 -10 CURVE SMOOTH",
"524.218 -10 OFFCURVE",
"569.069 46.644 OFFCURVE",
"580.95 60.584 CURVE",
"566.98 95.168 LINE",
"543.129 77.198 OFFCURVE",
"531.069 73.05 OFFCURVE",
"521.921 73.05 CURVE SMOOTH",
"506.129 73.05 OFFCURVE",
"502.069 86.96 OFFCURVE",
"505.069 110.96 CURVE SMOOTH"
);
},
{
closed = 1;
nodes = (
"346.921 125.624 LINE",
"328.653 99.149 OFFCURVE",
"299.614 74.139 OFFCURVE",
"265.455 74.139 CURVE SMOOTH",
"220.891 74.139 OFFCURVE",
"194.624 121.525 OFFCURVE",
"194.624 202.149 CURVE SMOOTH",
"194.624 332.03 OFFCURVE",
"228.812 500.594 OFFCURVE",
"348.792 500.594 CURVE SMOOTH",
"368.149 500.594 OFFCURVE",
"385.653 497.475 OFFCURVE",
"400.891 492.03 CURVE"
);
}
);
width = 612.69307;
}
);
leftKerningGroup = d;
rightKerningGroup = d;
unicode = 0064;
},
{
glyphname = eth;
lastChange = "2019-02-15 20:57:47 +0000";
layers = (
{
layerId = "0C3FD5EE-D923-4A4A-8FDE-164881635915";
paths = (
{
closed = 1;
nodes = (
"188.347 673.287 LINE",
"227.475 637.515 LINE",
"340.257 738.822 LINE",
"293.762 730.881 LINE",
"385.455 654.475 OFFCURVE",
"429.505 590.99 OFFCURVE",
"450.139 476.267 CURVE",
"425.436 513.604 OFFCURVE",
"363.871 542 OFFCURVE",
"311.347 542 CURVE SMOOTH",
"174.158 542 OFFCURVE",
"41.228 415.475 OFFCURVE",
"41.228 207.188 CURVE SMOOTH",
"41.228 101.891 OFFCURVE",
"104.525 -10 OFFCURVE",
"234.475 -10 CURVE SMOOTH",
"421.188 -10 OFFCURVE",
"521.198 175.931 OFFCURVE",
"521.198 400.465 CURVE SMOOTH",
"521.198 560.515 OFFCURVE",
"464.079 672.366 OFFCURVE",
"335.96 773.307 CURVE",
"332.604 729.05 LINE",
"443.386 825.475 LINE",
"405.436 862.248 LINE",
"405.436 862.248 OFFCURVE",
"323.188 791.297 OFFCURVE",
"299.95 767.119 CURVE",
"337.386 769.356 LINE",
"288.733 803.426 OFFCURVE",
"230.604 834.723 OFFCURVE",
"190.01 844.02 CURVE",
"172.416 795.178 LINE",
"210.713 786.941 OFFCURVE",
"260.95 756.931 OFFCURVE",
"293.426 725.396 CURVE",
"300.663 768.069 LINE"
);
},
{
closed = 1;
nodes = (
"399.871 496.693 OFFCURVE",
"432.446 411.574 OFFCURVE",
"435.208 380.396 CURVE SMOOTH",
"437.03 360.396 OFFCURVE",
"433.733 309.861 OFFCURVE",
"428.97 275.584 CURVE SMOOTH",
"409.446 141.535 OFFCURVE",
"338.871 34.129 OFFCURVE",
"243.772 34.129 CURVE SMOOTH",
"165.673 34.129 OFFCURVE",
"125.337 111.535 OFFCURVE",
"125.337 200.644 CURVE SMOOTH",
"125.337 344.743 OFFCURVE",
"192.139 496.693 OFFCURVE",
"310.703 496.693 CURVE SMOOTH"
);
}
);
width = 565.12871;
},
{
layerId = "27298932-82AF-4578-9425-6304FDB19058";
paths = (
{
closed = 1;
nodes = (
"178.327 662.356 LINE",
"234.762 614.743 LINE",
"374.871 736.089 LINE",
"290.119 729.059 LINE",
"361.772 661.762 OFFCURVE",
"391.248 575.505 OFFCURVE",
"390.931 526.366 CURVE",
"370.782 538.198 OFFCURVE",
"346.564 542 OFFCURVE",
"301.327 542 CURVE SMOOTH",
"145.921 542 OFFCURVE",
"29.386 422.762 OFFCURVE",
"29.386 225.406 CURVE SMOOTH",
"29.386 115.554 OFFCURVE",
"97.238 -10 OFFCURVE",
"241.762 -10 CURVE SMOOTH",
"439.406 -10 OFFCURVE",
"554.901 159.535 OFFCURVE",
"554.901 392.267 CURVE SMOOTH",
"554.901 537.743 OFFCURVE",
"495.96 693.317 OFFCURVE",
"366.02 793.347 CURVE",
"357.198 714.475 LINE",
"495.307 832.762 LINE",
"442.782 881.376 LINE",
"442.782 881.376 OFFCURVE",
"341.406 795.851 OFFCURVE",
"314.525 768.941 CURVE",
"389.307 774.822 LINE",
"330.634 825.287 OFFCURVE",
"255.198 861.139 OFFCURVE",
"205.495 874.99 CURVE",
"178.792 797.911 LINE",
"221.644 786.03 OFFCURVE",
"275.525 740.535 OFFCURVE",
"315.287 700.802 CURVE",
"326.168 784.465 LINE"
);
},
{
closed = 1;
nodes = (
"382.564 476.653 OFFCURVE",
"393.277 389.713 OFFCURVE",
"392.396 355.802 CURVE SMOOTH",
"391.485 335.802 OFFCURVE",
"383.634 277.069 OFFCURVE",
"382.515 269.208 CURVE SMOOTH",
"370.277 149.733 OFFCURVE",
"321.564 51.436 OFFCURVE",
"255.614 51.436 CURVE SMOOTH",
"206.663 51.436 OFFCURVE",
"191.832 119.733 OFFCURVE",
"191.832 195.178 CURVE SMOOTH",
"191.832 310.129 OFFCURVE",
"224.931 476.653 OFFCURVE",
"306.149 476.653 CURVE SMOOTH"
);
}
);
width = 582.43564;
}
);
leftKerningGroup = eth;
rightKerningGroup = eth;
unicode = 00F0;
},
{
glyphname = dcroat;
lastChange = "2019-02-15 20:57:47 +0000";
layers = (
{
anchors = (
{
name = bottom;
position = "{222.772, 0}";
},
{
name = caron;
position = "{548.208, 811}";
},
{
name = top;
position = "{192.574, 555}";
}
);
layerId = "0C3FD5EE-D923-4A4A-8FDE-164881635915";
paths = (
{
closed = 1;
nodes = (
"40.287 79.297 OFFCURVE",
"91.931 -10 OFFCURVE",
"202.644 -10 CURVE SMOOTH",
"275.238 -10 OFFCURVE",
"333.881 34.941 OFFCURVE",
"366.525 77.644 CURVE",
"366.584 50.772 LINE",
"365.059 7.535 OFFCURVE",
"384.356 -10 OFFCURVE",
"417.723 -10 CURVE SMOOTH",
"469.505 -10 OFFCURVE",
"509.802 35.713 OFFCURVE",
"518.04 47.832 CURVE",
"504.98 69.663 LINE",
"485.683 52.604 OFFCURVE",
"471.802 43.901 OFFCURVE",
"458.099 43.901 CURVE SMOOTH",
"448.683 43.901 OFFCURVE",
"442.743 55.079 OFFCURVE",
"445.802 79.079 CURVE SMOOTH",
"526.737 627.287 LINE",
"596.851 627.287 LINE",
"603.851 680 LINE",
"534.515 680 LINE",
"551.327 793.881 LINE",
"529.97 806 LINE",
"410.208 788.762 LINE",
"402.149 755.347 LINE",
"465.921 739.05 LINE",
"456.748 680 LINE",
"315.218 680 LINE",
"308.158 627.287 LINE",
"448.58 627.287 LINE",
"437.277 554.535 LINE",
"411.812 562.238 OFFCURVE",
"380.644 568 OFFCURVE",
"354.356 568 CURVE SMOOTH",
"152.812 568 OFFCURVE",
"40.287 354.02 OFFCURVE",
"40.287 200.703 CURVE SMOOTH"
);
},
{
closed = 1;
nodes = (
"121.693 332.941 OFFCURVE",
"192.317 518.812 OFFCURVE",
"342.356 518.812 CURVE SMOOTH",
"372.644 518.812 OFFCURVE",
"405.634 512.05 OFFCURVE",
"428.158 492.941 CURVE",
"375.099 144.752 LINE",
"348.634 103.703 OFFCURVE",
"287.713 47.723 OFFCURVE",
"218.03 47.723 CURVE SMOOTH",
"156.158 47.723 OFFCURVE",
"121.693 106.95 OFFCURVE",
"121.693 206.703 CURVE SMOOTH"
);
}
);
width = 576.31683;
},
{
anchors = (
{
name = bottom;
position = "{234.614, 0}";
},
{
name = caron;
position = "{597.396, 811}";
},
{
name = top;
position = "{170.713, 555}";
}
);
layerId = "27298932-82AF-4578-9425-6304FDB19058";
paths = (
{
closed = 1;
nodes = (
"29.356 83.851 OFFCURVE",
"75.535 -10 OFFCURVE",
"197.178 -10 CURVE SMOOTH",
"278.881 -10 OFFCURVE",
"332.059 34.03 OFFCURVE",
"359.238 72.178 CURVE",
"360.208 62.614 LINE SMOOTH",
"365.97 15.733 OFFCURVE",
"389.822 -10 OFFCURVE",
"444.139 -10 CURVE SMOOTH",
"523.248 -10 OFFCURVE",
"568.099 46.644 OFFCURVE",
"579.98 60.584 CURVE",
"566.01 95.168 LINE",
"542.158 77.198 OFFCURVE",
"530.099 73.05 OFFCURVE",
"520.95 73.05 CURVE SMOOTH",
"505.158 73.05 OFFCURVE",
"500.129 86.96 OFFCURVE",
"504.099 110.96 CURVE SMOOTH",
"576.996 616.356 LINE",
"640.574 616.356 LINE",
"647.574 680 LINE",
"586.174 680 LINE",
"602.337 792.059 LINE",
"575.515 806 LINE",
"367.396 785.119 LINE",
"358.426 745.327 LINE",
"434.04 724.475 LINE",
"427.662 680 LINE",
"287.891 680 LINE",
"279.921 616.356 LINE",
"418.55 616.356 LINE",
"410.861 562.733 LINE",
"393.594 565.881 OFFCURVE",
"375.178 568 OFFCURVE",
"359.822 568 CURVE SMOOTH",
"134.594 568 OFFCURVE",
"29.356 384.99 OFFCURVE",
"29.356 196.149 CURVE SMOOTH"
);
},
{
closed = 1;
nodes = (
"193.653 332.03 OFFCURVE",
"227.842 500.594 OFFCURVE",
"347.822 500.594 CURVE SMOOTH",
"367.178 500.594 OFFCURVE",
"384.683 497.475 OFFCURVE",
"399.921 492.03 CURVE",
"345.95 125.624 LINE",
"327.683 99.149 OFFCURVE",
"298.644 74.139 OFFCURVE",
"264.485 74.139 CURVE SMOOTH",
"219.921 74.139 OFFCURVE",
"193.653 121.525 OFFCURVE",
"193.653 202.149 CURVE SMOOTH"
);
}
);
width = 611.84158;
}
);
leftKerningGroup = d;
rightKerningGroup = d;
unicode = 0111;
},
{
glyphname = e;
lastChange = "2019-02-15 20:57:47 +0000";
layers = (
{
anchors = (
{
name = bottom;
position = "{227.416, 0}";
},
{
name = ogonek;
position = "{370.653, 40}";
},
{
name = top;
position = "{318.475, 554.059}";
}
);
layerId = "0C3FD5EE-D923-4A4A-8FDE-164881635915";
paths = (
{
closed = 1;
nodes = (
"422.535 125.782 LINE",
"368.317 71.089 OFFCURVE",
"302.802 46.663 OFFCURVE",
"248.317 46.663 CURVE SMOOTH",
"148.109 46.663 OFFCURVE",
"120.634 150.158 OFFCURVE",
"127.218 227.644 CURVE",
"225.762 229.703 OFFCURVE",
"469.02 291.584 OFFCURVE",
"468.723 446 CURVE SMOOTH",
"468.604 515 OFFCURVE",
"424.426 568.059 OFFCURVE",
"330.356 568.059 CURVE SMOOTH",
"169.168 568.059 OFFCURVE",
"48.04 399.188 OFFCURVE",
"43.455 212.822 CURVE SMOOTH",
"40.693 102.762 OFFCURVE",
"94.812 -10.238 OFFCURVE",
"236.762 -10.238 CURVE SMOOTH",
"333.545 -10.238 OFFCURVE",
"413.366 52.535 OFFCURVE",
"441.307 91.772 CURVE"
);
},
{
closed = 1;
nodes = (
"358.861 520.693 OFFCURVE",
"388.792 492.99 OFFCURVE",
"388.911 438.644 CURVE SMOOTH",
"389.149 335.059 OFFCURVE",
"235.95 275.535 OFFCURVE",
"129.099 272.535 CURVE",
"138.802 375.762 OFFCURVE",
"204.248 520.693 OFFCURVE",
"312.228 520.693 CURVE SMOOTH"
);
}
);
width = 514;
},
{
anchors = (
{
name = bottom;
position = "{233.792, 0}";
},
{
name = ogonek;
position = "{380.673, 40}";
},
{
name = top;
position = "{325.762, 554.97}";
}
);
layerId = "27298932-82AF-4578-9425-6304FDB19058";
paths = (
{
closed = 1;
nodes = (
"430.733 153.109 LINE",
"403.842 118.455 OFFCURVE",
"361.099 72.168 OFFCURVE",
"283.842 72.168 CURVE SMOOTH",
"226.446 72.168 OFFCURVE",
"191.683 121.921 OFFCURVE",
"191.891 222.178 CURVE",
"314.119 225.149 OFFCURVE",
"499.99 285.208 OFFCURVE",
"495.139 446 CURVE SMOOTH",
"493.198 515 OFFCURVE",
"446.287 568.97 OFFCURVE",
"335.822 568.97 CURVE SMOOTH",
"156.416 568.97 OFFCURVE",
"17.98 417.406 OFFCURVE",
"19.772 210.089 CURVE SMOOTH",
"20.653 99.119 OFFCURVE",
"76.594 -13.881 OFFCURVE",
"233.119 -13.881 CURVE SMOOTH",
"357.228 -13.881 OFFCURVE",
"434.317 60.733 OFFCURVE",
"461.347 103.614 CURVE"
);
},
{
closed = 1;
nodes = (
"326.069 500.653 OFFCURVE",
"339.604 477.505 OFFCURVE",
"341.545 433.178 CURVE SMOOTH",
"345.426 335.97 OFFCURVE",
"250.525 283.733 OFFCURVE",
"191.95 280.733 CURVE",
"197.099 372.119 OFFCURVE",
"223.376 500.653 OFFCURVE",
"300.386 500.653 CURVE SMOOTH"
);
}
);
width = 514;
}
);
leftKerningGroup = o;
rightKerningGroup = e;
unicode = 0065;
},
{
glyphname = schwa;
lastChange = "2019-02-15 20:57:47 +0000";
layers = (
{
layerId = "0C3FD5EE-D923-4A4A-8FDE-164881635915";
paths = (
{
closed = 1;
nodes = (
"91.644 432.099 LINE",
"145.861 486.792 OFFCURVE",
"211.376 511.218 OFFCURVE",
"265.802 511.218 CURVE SMOOTH",
"366.069 511.218 OFFCURVE",
"393.545 406.842 OFFCURVE",
"386.96 330.238 CURVE",
"287.475 328.178 OFFCURVE",
"45.158 266.297 OFFCURVE",
"45.396 111.881 CURVE SMOOTH",
"45.574 42.941 OFFCURVE",
"89.752 -10.178 OFFCURVE",
"183.822 -10.178 CURVE SMOOTH",
"344.95 -10.178 OFFCURVE",
"466.079 158.693 OFFCURVE",
"470.723 345.059 CURVE SMOOTH",
"473.485 455.178 OFFCURVE",
"419.366 568.119 OFFCURVE",
"277.416 568.119 CURVE SMOOTH",
"180.634 568.119 OFFCURVE",
"100.752 505.406 OFFCURVE",
"72.871 466.168 CURVE"
);
},
{
closed = 1;
nodes = (
"375.317 182.178 OFFCURVE",
"309.871 37.188 OFFCURVE",
"201.95 37.188 CURVE SMOOTH",
"155.257 37.188 OFFCURVE",
"126.327 64.891 OFFCURVE",
"126.208 119.297 CURVE SMOOTH",
"126.03 222.822 OFFCURVE",
"278.228 282.347 OFFCURVE",
"386.02 285.347 CURVE"
);
}
);
width = 513.89109;
},
{
layerId = "27298932-82AF-4578-9425-6304FDB19058";
paths = (
{
closed = 1;
nodes = (
"86.178 402.95 LINE",
"113.069 437.604 OFFCURVE",
"155.812 483.891 OFFCURVE",
"232.099 483.891 CURVE SMOOTH",
"290.465 483.891 OFFCURVE",
"325.228 435.079 OFFCURVE",
"325.02 333.881 CURVE",
"202.762 330.911 OFFCURVE",
"16.921 270.851 OFFCURVE",
"20.802 110.059 CURVE SMOOTH",
"23.713 42.03 OFFCURVE",
"70.624 -12.911 OFFCURVE",
"181.089 -12.911 CURVE SMOOTH",
"359.525 -12.911 OFFCURVE",
"497.96 138.653 OFFCURVE",
"497.139 345.97 CURVE SMOOTH",
"496.257 457.911 OFFCURVE",
"440.317 569.941 OFFCURVE",
"283.792 569.941 CURVE SMOOTH",
"159.683 569.941 OFFCURVE",
"81.624 496.297 OFFCURVE",
"55.564 453.416 CURVE"
);
},
{
closed = 1;
nodes = (
"318.842 184.911 OFFCURVE",
"292.564 55.406 OFFCURVE",
"216.525 55.406 CURVE SMOOTH",
"189.871 55.406 OFFCURVE",
"177.337 78.554 OFFCURVE",
"175.396 123.851 CURVE SMOOTH",
"172.485 220.089 OFFCURVE",
"266.386 272.327 OFFCURVE",
"324.99 275.327 CURVE"
);
}
);
width = 527.55446;
}
);
leftKerningGroup = schwa;
rightKerningGroup = schwa;
unicode = 0259;
},
{
glyphname = ezh;
lastChange = "2019-02-15 20:57:47 +0000";
layers = (
{
anchors = (
{
name = top;
position = "{290.475, 555}";
}
);
layerId = "0C3FD5EE-D923-4A4A-8FDE-164881635915";
paths = (
{
closed = 1;
nodes = (
"489.545 542.703 LINE",
"468.248 566.059 LINE",
"455.248 555.059 OFFCURVE",
"444.653 553.822 OFFCURVE",
"421.653 553.822 CURVE",
"357.653 553.822 OFFCURVE",
"240 562.178 OFFCURVE",
"145 567.178 CURVE",
"73 567.178 OFFCURVE",
"64.644 491.366 OFFCURVE",
"64.644 458.98 CURVE SMOOTH",
"64.644 429.98 OFFCURVE",
"62.881 412.505 OFFCURVE",
"64.881 397.505 CURVE",
"94.594 397.505 LINE",
"103.594 436.505 OFFCURVE",
"109.782 493.139 OFFCURVE",
"161.782 493.139 CURVE",
"386.03 490.317 LINE",
"314.752 413.525 LINE",
"169.396 236.406 LINE",
"182.584 206.337 LINE",
"198.525 211.574 OFFCURVE",
"225.812 212.931 OFFCURVE",
"240.812 212.931 CURVE SMOOTH",
"322.911 212.931 OFFCURVE",
"354.901 164.584 OFFCURVE",
"354.901 103.356 CURVE SMOOTH",
"354.901 -12.287 OFFCURVE",
"266.673 -102.218 OFFCURVE",
"131.149 -102.218 CURVE SMOOTH",
"97.149 -102.218 OFFCURVE",
"61.564 -93.337 OFFCURVE",
"28.564 -80.337 CURVE",
"22.327 -128 LINE",
"52.327 -137 OFFCURVE",
"85.327 -151 OFFCURVE",
"146.327 -151 CURVE SMOOTH",
"302.713 -151 OFFCURVE",
"437.891 -40.832 OFFCURVE",
"437.891 98 CURVE SMOOTH",
"437.891 159 OFFCURVE",
"403.356 244.416 OFFCURVE",
"292.485 244.416 CURVE SMOOTH",
"277.95 244.416 OFFCURVE",
"256.426 242.297 OFFCURVE",
"248.426 240.297 CURVE"
);
}
);
width = 501.16832;
},
{
anchors = (
{
name = top;
position = "{297.762, 555}";
}
);
layerId = "27298932-82AF-4578-9425-6304FDB19058";
paths = (
{
closed = 1;
nodes = (
"513.228 538.149 LINE",
"487.376 566.97 LINE",
"474.376 555.97 OFFCURVE",
"454.673 551.089 OFFCURVE",
"431.673 551.089 CURVE",
"367.673 551.089 OFFCURVE",
"240 564.911 OFFCURVE",
"145 569.911 CURVE",
"73 569.911 OFFCURVE",
"59.178 512.317 OFFCURVE",
"59.178 428.01 CURVE SMOOTH",
"59.178 399.01 OFFCURVE",
"61.059 374.248 OFFCURVE",
"63.059 359.248 CURVE",
"103.703 359.248 LINE",
"112.703 398.248 OFFCURVE",
"137.109 433.931 OFFCURVE",
"189.109 433.931 CURVE",
"340.485 433.842 LINE",
"295.624 406.238 LINE",
"144.802 227.297 LINE",
"176.208 180.832 LINE",
"191.238 189.713 OFFCURVE",
"207.594 196.535 OFFCURVE",
"222.594 196.535 CURVE SMOOTH",
"275.545 196.535 OFFCURVE",
"292.05 158.208 OFFCURVE",
"292.05 108.822 CURVE SMOOTH",
"292.05 -1.356 OFFCURVE",
"215.663 -74.891 OFFCURVE",
"87.426 -74.891 CURVE SMOOTH",
"53.426 -74.891 OFFCURVE",
"24.218 -67.832 OFFCURVE",
"-8.782 -54.832 CURVE",
"-18.663 -128 LINE",
"11.337 -137 OFFCURVE",
"44.337 -151 OFFCURVE",
"105.337 -151 CURVE SMOOTH",
"313.644 -151 OFFCURVE",
"451.554 -53.584 OFFCURVE",
"451.554 98 CURVE SMOOTH",
"451.554 159 OFFCURVE",
"408.822 250.792 OFFCURVE",
"315.257 250.792 CURVE SMOOTH",
"292.525 250.792 OFFCURVE",
"278.287 246.851 OFFCURVE",
"270.287 244.851 CURVE"
);
}
);
width = 488.41584;
}
);
leftKerningGroup = ezh;
rightKerningGroup = ezh;
unicode = 0292;
},
{
glyphname = f;
lastChange = "2019-02-15 20:57:47 +0000";
layers = (
{
anchors = (
{
name = top;
position = "{116.218, 666.465}";
}
);
layerId = "0C3FD5EE-D923-4A4A-8FDE-164881635915";
paths = (
{
closed = 1;
nodes = (
"149.861 561.465 LINE",
"79.158 537.05 LINE",
"71.98 505.802 LINE",
"140.505 505.802 LINE",
"66.98 -64.772 LINE",
"57.04 -141.178 OFFCURVE",
"38.861 -194.515 OFFCURVE",
"-5.366 -194.515 CURVE SMOOTH",
"-32.129 -194.515 OFFCURVE",
"-78.129 -181.04 OFFCURVE",
"-84.188 -178.04 CURVE",
"-104.723 -245.644 LINE",
"-90.545 -249.644 OFFCURVE",
"-56.129 -252.881 OFFCURVE",
"-23.95 -251.941 CURVE SMOOTH",
"72.673 -249.119 OFFCURVE",
"132.683 -162.01 OFFCURVE",
"149.802 -31.228 CURVE SMOOTH",
"220.317 505.802 LINE",
"348.356 505.802 LINE",
"354.891 563.465 LINE",
"227.614 563.465 LINE",
"233.97 618.188 LINE SMOOTH",
"244.851 700.822 OFFCURVE",
"280.832 756.871 OFFCURVE",
"338.416 756.871 CURVE SMOOTH",
"374.178 757.812 OFFCURVE",
"396.119 744.752 OFFCURVE",
"409.059 735.752 CURVE",
"431.594 803 LINE",
"406.475 813 OFFCURVE",
"380.059 815 OFFCURVE",
"354 815 CURVE SMOOTH",
"261.564 815 OFFCURVE",
"175.04 722.822 OFFCURVE",
"156.921 609.406 CURVE SMOOTH"
);
}
);
width = 342;
},
{
anchors = (
{
name = top;
position = "{88.891, 658.267}";
}
);
layerId = "27298932-82AF-4578-9425-6304FDB19058";
paths = (
{
closed = 1;
nodes = (
"117.069 553.267 LINE",
"50.921 522.475 LINE",
"41.01 472.099 LINE",
"102.248 472.099 LINE",
"36.01 -76.614 LINE",
"26.98 -143.911 OFFCURVE",
"6.069 -171.743 OFFCURVE",
"-26.317 -171.743 CURVE SMOOTH",
"-49.436 -171.743 OFFCURVE",
"-95.436 -150.98 OFFCURVE",
"-102.406 -147.98 CURVE",
"-131.139 -240.178 LINE",
"-114.228 -244.178 OFFCURVE",
"-73.436 -251.059 OFFCURVE",
"-38.525 -251.03 CURVE SMOOTH",
"113.663 -250.941 OFFCURVE",
"189.158 -85.495 OFFCURVE",
"208.099 72.614 CURVE SMOOTH",
"255.842 472.099 LINE",
"353.822 472.099 LINE",
"368.554 555.267 LINE",
"267.693 555.267 LINE",
"279.515 636.406 LINE SMOOTH",
"288.574 698.089 OFFCURVE",
"293.584 739.564 OFFCURVE",
"344.792 739.564 CURVE SMOOTH",
"376.911 739.594 OFFCURVE",
"397.941 725.624 OFFCURVE",
"409.97 716.624 CURVE",
"440.703 803 LINE",
"413.762 813 OFFCURVE",
"380.97 815 OFFCURVE",
"354 815 CURVE SMOOTH",
"224.218 815 OFFCURVE",
"144.98 720.089 OFFCURVE",
"125.04 600.297 CURVE SMOOTH"
);
}
);
width = 342;
}
);
leftKerningGroup = f;
rightKerningGroup = f;
unicode = 0066;
},
{
glyphname = g;
lastChange = "2019-02-15 20:59:32 +0000";
layers = (
{
anchors = (
{
name = bottom;
position = "{230.881, 0}";
},
{
name = top;
position = "{336.941, 554.119}";
}
);
layerId = "0C3FD5EE-D923-4A4A-8FDE-164881635915";
paths = (
{
closed = 1;
nodes = (
"517.911 568 LINE",
"460.545 546.881 LINE",
"433.426 557.881 OFFCURVE",
"392.772 568 OFFCURVE",
"354.594 568 CURVE SMOOTH",
"153.347 568 OFFCURVE",
"40.287 354.02 OFFCURVE",
"40.287 200.703 CURVE SMOOTH",
"40.287 79.297 OFFCURVE",
"92.228 -10 OFFCURVE",
"202.941 -10 CURVE SMOOTH",
"273.99 -10 OFFCURVE",
"331.099 33.574 OFFCURVE",
"364.921 75.505 CURVE",
"343.515 -64.416 LINE SMOOTH",
"329.752 -157 OFFCURVE",
"288.347 -185.347 OFFCURVE",
"199.772 -185.347 CURVE SMOOTH",
"149.297 -185.347 OFFCURVE",
"100.931 -168.861 OFFCURVE",
"75 -157.04 CURVE",
"55.644 -231 LINE",
"75.584 -239.059 OFFCURVE",
"120.772 -248.297 OFFCURVE",
"164.069 -248.297 CURVE SMOOTH",
"262.149 -248.297 OFFCURVE",
"402.683 -193.01 OFFCURVE",
"424.683 -38 CURVE"
);
},
{
closed = 1;
nodes = (
"374.861 143.921 LINE",
"348.337 103.228 OFFCURVE",
"287.594 47.723 OFFCURVE",
"218.327 47.723 CURVE SMOOTH",
"156.396 47.723 OFFCURVE",
"121.812 106.95 OFFCURVE",
"121.812 206.703 CURVE SMOOTH",
"121.812 332.941 OFFCURVE",
"192.614 518.812 OFFCURVE",
"342.653 518.812 CURVE SMOOTH",
"372.762 518.812 OFFCURVE",
"404.693 512.109 OFFCURVE",
"427.099 494 CURVE"
);
}
);
width = 547.84158;
},
{
anchors = (
{
name = bottom;
position = "{230, 0}";
},
{
name = top;
position = "{337, 556}";
}
);
layerId = "27298932-82AF-4578-9425-6304FDB19058";
paths = (
{
closed = 1;
nodes = (
"564 568 LINE",
"485 545 LINE",
"456 556 OFFCURVE",
"406 568 OFFCURVE",
"365 568 CURVE SMOOTH",
"144 568 OFFCURVE",
"30 385 OFFCURVE",
"30 196 CURVE SMOOTH",
"30 84 OFFCURVE",
"81 -10 OFFCURVE",
"203 -10 CURVE SMOOTH",
"260 -10 OFFCURVE",
"303 12 OFFCURVE",
"334 37 CURVE",
"322 -71 LINE SMOOTH",
"312 -157 OFFCURVE",
"279 -175 OFFCURVE",
"213 -175 CURVE SMOOTH",
"155 -175 OFFCURVE",
"86 -136 OFFCURVE",
"76 -127 CURVE",
"51 -231 LINE",
"70 -240 OFFCURVE",
"134 -253 OFFCURVE",
"181 -253 CURVE SMOOTH",
"311 -253 OFFCURVE",
"460 -208 OFFCURVE",
"482 -38 CURVE"
);
},
{
closed = 1;
nodes = (
"343 112 LINE",
"324 91 OFFCURVE",
"298 74 OFFCURVE",
"270 74 CURVE SMOOTH",
"225 74 OFFCURVE",
"197 122 OFFCURVE",
"197 202 CURVE SMOOTH",
"197 332 OFFCURVE",
"234 501 OFFCURVE",
"354 501 CURVE SMOOTH",
"370 501 OFFCURVE",
"386 498 OFFCURVE",
"399 494 CURVE"
);
}
);
width = 577;
}
);
leftKerningGroup = g;
leftMetricsKey = d;
rightKerningGroup = g;
unicode = 0067;
},
{
glyphname = gstroke;
lastChange = "2019-02-15 20:57:47 +0000";
layers = (
{
components = (
{
alignment = -1;
name = g;
}
);
layerId = "0C3FD5EE-D923-4A4A-8FDE-164881635915";
paths = (
{
closed = 1;
nodes = (
"246.01 264.584 LINE",
"536.97 264.584 LINE",
"546.505 327.663 LINE",
"255.485 327.663 LINE"
);
}
);
width = 563.0198;
},
{
components = (
{
alignment = -1;
name = g;
}
);
layerId = "27298932-82AF-4578-9425-6304FDB19058";
paths = (
{
closed = 1;
nodes = (
"261.495 258.208 LINE",
"582.515 258.208 LINE",
"600.248 353.168 LINE",
"278.257 353.168 LINE"
);
}
);
width = 593.9901;
}
);
leftKerningGroup = g;
rightKerningGroup = gstroke;
unicode = 01E5;
},
{
glyphname = h;
lastChange = "2019-02-15 20:57:47 +0000";
layers = (
{
anchors = (
{
name = bottom;
position = "{266.96, 0}";
},
{
name = cap;
position = "{115.762, 907}";
},
{
name = top;
position = "{195.248, 766.129}";
}
);
layerId = "0C3FD5EE-D923-4A4A-8FDE-164881635915";
paths = (
{
closed = 1;
nodes = (
"238.683 804.881 LINE",
"218.149 817 LINE",
"102.921 799.762 LINE",
"96.802 766.347 LINE",
"153.693 750.05 LINE",
"55.396 0 LINE",
"131.683 0 LINE",
"180.564 361.871 LINE",
"230.376 438.337 OFFCURVE",
"313.594 503.921 OFFCURVE",
"374.287 503.921 CURVE SMOOTH",
"418.158 503.921 OFFCURVE",
"439.564 484.277 OFFCURVE",
"439.624 418.05 CURVE SMOOTH",
"439.683 357.287 OFFCURVE",
"422.861 279.347 OFFCURVE",
"411.98 222.584 CURVE",
"402.921 167.644 OFFCURVE",
"387.099 93.475 OFFCURVE",
"385.218 48.545 CURVE",
"383.337 6.545 OFFCURVE",
"403.802 -10 OFFCURVE",
"440.069 -10 CURVE SMOOTH",
"496.03 -10 OFFCURVE",
"539.327 38.475 OFFCURVE",
"546.564 50.653 CURVE",
"534.446 73.426 LINE",
"510.505 52.663 OFFCURVE",
"497.683 42.96 OFFCURVE",
"481.98 42.96 CURVE SMOOTH",
"472.04 42.96 OFFCURVE",
"466.743 55.366 OFFCURVE",
"467.683 78.426 CURVE",
"471.446 127.594 OFFCURVE",
"485.386 197 OFFCURVE",
"494.327 247 CURVE SMOOTH",
"504.267 301 OFFCURVE",
"520.208 375.95 OFFCURVE",
"520.208 422.822 CURVE SMOOTH",
"520.208 531.881 OFFCURVE",
"477.495 568 OFFCURVE",
"408.079 568 CURVE SMOOTH",
"324.376 568 OFFCURVE",
"242.327 501.129 OFFCURVE",
"188.98 426.307 CURVE"
);
}
);
width = 604.54455;
},
{
anchors = (
{
name = bottom;
position = "{297.02, 0}";
},
{
name = cap;
position = "{112.119, 907}";
},
{
name = top;
position = "{214.376, 783.436}";
}
);
layerId = "27298932-82AF-4578-9425-6304FDB19058";
paths = (
{
closed = 1;
nodes = (
"295.158 803.059 LINE",
"266.426 817 LINE",
"71.04 796.119 LINE",
"63.099 756.327 LINE",
"133.653 735.475 LINE",
"30.802 0 LINE",
"188.158 0 LINE",
"235.218 344.564 LINE",
"266.812 412.832 OFFCURVE",
"322.703 472.04 OFFCURVE",
"363.356 472.04 CURVE SMOOTH",
"389.921 472.04 OFFCURVE",
"402.218 457.861 OFFCURVE",
"403.188 403.475 CURVE SMOOTH",
"404.158 346.356 OFFCURVE",
"390.069 269.327 OFFCURVE",
"381.01 216.208 CURVE SMOOTH",
"371.04 162.178 OFFCURVE",
"357.95 100.762 OFFCURVE",
"357.891 72.228 CURVE SMOOTH",
"357.832 30.228 OFFCURVE",
"370.099 -10 OFFCURVE",
"456.465 -10 CURVE SMOOTH",
"542.485 -10 OFFCURVE",
"590.337 45.762 OFFCURVE",
"601.218 60.673 CURVE",
"587.277 95.287 LINE",
"564.248 78.168 OFFCURVE",
"554.158 73.02 OFFCURVE",
"543.01 73.02 CURVE SMOOTH",
"533.98 73.02 OFFCURVE",
"524.129 76.317 OFFCURVE",
"524.158 100.287 CURVE SMOOTH",
"524.277 136.703 OFFCURVE",
"537.307 197 OFFCURVE",
"545.337 247 CURVE SMOOTH",
"554.366 301 OFFCURVE",
"569.396 390.525 OFFCURVE",
"569.396 420.089 CURVE SMOOTH",
"569.396 530.059 OFFCURVE",
"515.752 568 OFFCURVE",
"439.96 568 CURVE SMOOTH",
"360.812 568 OFFCURVE",
"293.337 518.436 OFFCURVE",
"250.01 446.347 CURVE"
);
}
);
width = 628.22772;
}
);
leftKerningGroup = h;
rightKerningGroup = n;
rightMetricsKey = n;
unicode = 0068;
},
{
glyphname = hbar;
lastChange = "2019-02-15 20:57:47 +0000";
layers = (
{
layerId = "0C3FD5EE-D923-4A4A-8FDE-164881635915";
paths = (
{
closed = 1;
nodes = (
"218.386 624.465 LINE",
"348.782 624.465 LINE",
"355.842 668.713 LINE",
"224.505 668.713 LINE",
"241.327 793.881 LINE",
"220.97 806 LINE",
"105.624 788.762 LINE",
"99.505 755.347 LINE",
"155.861 739.05 LINE",
"146.158 668.713 LINE",
"67.99 668.713 LINE",
"61.871 624.465 LINE",
"140.98 624.465 LINE",
"58.515 0 LINE",
"134.921 0 LINE",
"183.505 361.871 LINE",
"233.317 438.337 OFFCURVE",
"316.297 503.921 OFFCURVE",
"376.99 503.921 CURVE SMOOTH",
"420.861 503.921 OFFCURVE",
"442.267 484.277 OFFCURVE",
"442.327 418.05 CURVE SMOOTH",
"442.386 357.287 OFFCURVE",
"425.564 279.347 OFFCURVE",
"414.683 222.584 CURVE",
"405.624 167.644 OFFCURVE",
"389.802 93.475 OFFCURVE",
"387.921 48.545 CURVE",
"386.04 6.545 OFFCURVE",
"406.505 -10 OFFCURVE",
"442.772 -10 CURVE SMOOTH",
"498.733 -10 OFFCURVE",
"542.03 38.475 OFFCURVE",
"549.267 50.653 CURVE",
"537.149 73.426 LINE",
"513.208 52.663 OFFCURVE",
"500.386 42.96 OFFCURVE",
"484.683 42.96 CURVE SMOOTH",
"474.743 42.96 OFFCURVE",
"469.446 55.366 OFFCURVE",
"470.386 78.426 CURVE",
"474.149 127.594 OFFCURVE",
"488.089 197 OFFCURVE",
"497.03 247 CURVE SMOOTH",
"506.97 301 OFFCURVE",
"522.911 375.95 OFFCURVE",
"522.911 422.822 CURVE SMOOTH",
"522.911 531.881 OFFCURVE",
"480.198 568 OFFCURVE",
"410.782 568 CURVE SMOOTH",
"327.079 568 OFFCURVE",
"245.149 501.129 OFFCURVE",
"191.802 426.248 CURVE"
);
}
);
width = 607.24752;
},
{
layerId = "27298932-82AF-4578-9425-6304FDB19058";
paths = (
{
closed = 1;
nodes = (
"270.307 616.267 LINE",
"376.109 616.267 LINE",
"384.079 679.644 LINE",
"278.248 679.644 LINE",
"292.337 792.059 LINE",
"266.515 806 LINE",
"69.188 785.119 LINE",
"61.248 745.327 LINE",
"123.069 724.475 LINE",
"117.921 679.644 LINE",
"52.505 679.644 LINE",
"44.564 616.267 LINE",
"110.01 616.267 LINE",
"35.743 0 LINE",
"195.04 0 LINE",
"237.248 344.564 LINE",
"268.842 412.832 OFFCURVE",
"320.851 472.04 OFFCURVE",
"361.505 472.04 CURVE SMOOTH",
"388.069 472.04 OFFCURVE",
"400.366 457.861 OFFCURVE",
"401.337 403.475 CURVE SMOOTH",
"402.307 346.356 OFFCURVE",
"388.218 269.327 OFFCURVE",
"379.158 216.208 CURVE SMOOTH",
"369.188 162.178 OFFCURVE",
"356.099 100.762 OFFCURVE",
"356.04 72.228 CURVE SMOOTH",
"355.98 30.228 OFFCURVE",
"368.248 -10 OFFCURVE",
"454.614 -10 CURVE SMOOTH",
"540.634 -10 OFFCURVE",
"588.485 45.762 OFFCURVE",
"599.366 60.673 CURVE",
"585.426 95.287 LINE",
"562.396 78.168 OFFCURVE",
"552.307 73.02 OFFCURVE",
"541.158 73.02 CURVE SMOOTH",
"532.129 73.02 OFFCURVE",
"522.277 76.317 OFFCURVE",
"522.307 100.287 CURVE SMOOTH",
"522.426 136.703 OFFCURVE",
"535.455 197 OFFCURVE",
"543.485 247 CURVE SMOOTH",
"552.515 301 OFFCURVE",
"567.545 390.525 OFFCURVE",
"567.545 420.089 CURVE SMOOTH",
"567.545 530.059 OFFCURVE",
"513.901 568 OFFCURVE",
"438.109 568 CURVE SMOOTH",
"358.96 568 OFFCURVE",
"293.426 518.436 OFFCURVE",
"250.099 445.376 CURVE"
);
}
);
width = 626.37624;
}
);
leftKerningGroup = h;
rightKerningGroup = n;
rightMetricsKey = n;
unicode = 0127;
},
{
glyphname = idotless;
lastChange = "2019-02-15 20:57:47 +0000";
layers = (
{
anchors = (
{
name = bottom;
position = "{117.426, 0}";
},
{
name = top;
position = "{186, 555}";
}
);
layerId = "0C3FD5EE-D923-4A4A-8FDE-164881635915";
paths = (
{
closed = 1;
nodes = (
"229.911 556 LINE",
"209.495 566.119 LINE",
"83.158 544.822 LINE",
"77.04 513.109 LINE",
"141.505 492.455 LINE",
"122.149 343.96 OFFCURVE",
"78.752 111.842 OFFCURVE",
"73.396 48.891 CURVE SMOOTH",
"70.218 5.95 OFFCURVE",
"94.812 -10 OFFCURVE",
"129.01 -10 CURVE SMOOTH",
"183.911 -10 OFFCURVE",
"226.267 41.297 OFFCURVE",
"235.386 55.356 CURVE",
"222.386 77.188 LINE",
"199.386 52.723 OFFCURVE",
"184.624 43.901 OFFCURVE",
"169.861 43.901 CURVE SMOOTH",
"160.505 43.901 OFFCURVE",
"151.743 55.02 OFFCURVE",
"155.683 79.02 CURVE SMOOTH"
);
}
);
width = 318.71287;
},
{
anchors = (
{
name = bottom;
position = "{139.287, 0}";
},
{
name = top;
position = "{186, 555}";
}
);
layerId = "27298932-82AF-4578-9425-6304FDB19058";
paths = (
{
closed = 1;
nodes = (
"274.545 556 LINE",
"247.752 567.941 LINE",
"54.921 542.089 LINE",
"46.98 499.446 LINE",
"103.248 468.772 LINE",
"78.426 282.02 OFFCURVE",
"59.624 140.079 OFFCURVE",
"48.802 62.554 CURVE SMOOTH",
"42.891 20.525 OFFCURVE",
"76.594 -10 OFFCURVE",
"144.495 -10 CURVE SMOOTH",
"228.545 -10 OFFCURVE",
"276.366 45.851 OFFCURVE",
"287.307 60.822 CURVE",
"274.307 95.406 LINE",
"251.307 79.139 OFFCURVE",
"240.188 73.05 OFFCURVE",
"229.069 73.05 CURVE SMOOTH",
"214.248 73.05 OFFCURVE",
"209.129 85.99 OFFCURVE",
"212.158 109.99 CURVE SMOOTH"
);
}
);
width = 329.64356;
}
);
leftKerningGroup = i;
rightKerningGroup = i;
unicode = 0131;
},
{
glyphname = iogonek;
lastChange = "2019-02-15 20:57:47 +0000";
layers = (
{
layerId = "0C3FD5EE-D923-4A4A-8FDE-164881635915";
paths = (
{
closed = 1;
nodes = (
"233.089 556 LINE",
"212.673 566.119 LINE",
"86.337 544.822 LINE",
"80.218 513.109 LINE",
"144.683 492.455 LINE",
"125.327 343.96 OFFCURVE",
"87.574 112.851 OFFCURVE",
"82.218 49.901 CURVE",
"79.921 15.01 OFFCURVE",
"94.218 -1.525 OFFCURVE",
"118.168 -7.762 CURVE",
"84.347 -25.703 OFFCURVE",
"49.525 -47.703 OFFCURVE",
"22.228 -85.238 CURVE SMOOTH",
"13.05 -100.416 OFFCURVE",
"5.871 -121.713 OFFCURVE",
"5.871 -140.535 CURVE SMOOTH",
"5.871 -170.901 OFFCURVE",
"32.228 -204.842 OFFCURVE",
"82.059 -204.842 CURVE SMOOTH",
"138.891 -204.842 OFFCURVE",
"176.198 -181.188 OFFCURVE",
"202.97 -157.119 CURVE",
"191.614 -119.05 LINE",
"168.376 -139.109 OFFCURVE",
"141.733 -152.228 OFFCURVE",
"114.733 -152.228 CURVE SMOOTH",
"95.733 -152.228 OFFCURVE",
"79.851 -139.584 OFFCURVE",
"81.733 -109.703 CURVE SMOOTH",
"82.673 -71.881 OFFCURVE",
"131.97 -34.465 OFFCURVE",
"180.921 0.891 CURVE",
"213.624 15.95 OFFCURVE",
"237.267 44.475 OFFCURVE",
"244.208 55.356 CURVE",
"231.208 77.188 LINE",
"208.208 52.723 OFFCURVE",
"193.446 43.901 OFFCURVE",
"178.683 43.901 CURVE SMOOTH",
"169.327 43.901 OFFCURVE",
"161.446 55.02 OFFCURVE",
"164.505 79.02 CURVE SMOOTH"
);
},
{
closed = 1;
nodes = (
"191.277 794.317 OFFCURVE",
"162.802 767.307 OFFCURVE",
"161.802 732.178 CURVE SMOOTH",
"160.802 703.406 OFFCURVE",
"180.871 682.158 OFFCURVE",
"206 682.158 CURVE SMOOTH",
"238.317 682.158 OFFCURVE",
"264.554 711.168 OFFCURVE",
"265.614 747.297 CURVE SMOOTH",
"265.673 774.069 OFFCURVE",
"247.723 794.317 OFFCURVE",
"218.356 794.317 CURVE SMOOTH"
);
}
);
width = 310.12871;
},
{
layerId = "27298932-82AF-4578-9425-6304FDB19058";
paths = (
{
closed = 1;
nodes = (
"280.455 556 LINE",
"253.663 567.941 LINE",
"60.832 542.089 LINE",
"52.891 499.446 LINE",
"109.158 468.772 LINE",
"84.337 282.02 OFFCURVE",
"65.713 156.574 OFFCURVE",
"54.891 79.05 CURVE SMOOTH",
"48.04 30.495 OFFCURVE",
"66.891 5.762 OFFCURVE",
"105.416 -4.119 CURVE",
"74.327 -21.149 OFFCURVE",
"42.238 -43.149 OFFCURVE",
"10.386 -88.881 CURVE SMOOTH",
"-1.525 -106.792 OFFCURVE",
"-11.436 -132.644 OFFCURVE",
"-11.436 -148.733 CURVE SMOOTH",
"-11.436 -200.05 OFFCURVE",
"20.386 -233.079 OFFCURVE",
"82.97 -233.079 CURVE SMOOTH",
"152.554 -233.079 OFFCURVE",
"209.901 -199.406 OFFCURVE",
"248.515 -158.941 CURVE",
"231.693 -104.475 LINE",
"204.812 -125.446 OFFCURVE",
"183.634 -140.386 OFFCURVE",
"156.634 -140.386 CURVE SMOOTH",
"137.634 -140.386 OFFCURVE",
"123.574 -133.208 OFFCURVE",
"123.634 -105.149 CURVE SMOOTH",
"123.663 -70.059 OFFCURVE",
"177.515 -26.267 OFFCURVE",
"241.04 14.554 CURVE",
"269.188 30.525 OFFCURVE",
"287.366 51.762 OFFCURVE",
"293.396 60.822 CURVE",
"280.396 95.406 LINE",
"257.396 79.139 OFFCURVE",
"246.277 73.05 OFFCURVE",
"235.158 73.05 CURVE SMOOTH",
"220.337 73.05 OFFCURVE",
"214.277 85.99 OFFCURVE",
"218.248 109.99 CURVE SMOOTH"
);
},
{
closed = 1;
nodes = (
"164.861 829.842 OFFCURVE",
"129.099 787.347 OFFCURVE",
"128.099 734.911 CURVE SMOOTH",
"127.099 694.297 OFFCURVE",
"163.564 653.921 OFFCURVE",
"206 653.921 CURVE SMOOTH",
"273.842 653.921 OFFCURVE",
"303.723 698.416 OFFCURVE",
"305.693 751.851 CURVE SMOOTH",
"306.663 790.465 OFFCURVE",
"274.139 829.842 OFFCURVE",
"223.822 829.842 CURVE SMOOTH"
);
}
);
width = 327.43564;
}
);
leftKerningGroup = i;
rightKerningGroup = i;
unicode = 012F;
},
{
glyphname = jdotless;
lastChange = "2019-02-15 20:57:47 +0000";
layers = (
{
anchors = (
{
name = top;
position = "{171.535, 555}";
}
);
layerId = "0C3FD5EE-D923-4A4A-8FDE-164881635915";
paths = (
{
closed = 1;
nodes = (
"217.158 556 LINE",
"197.624 566.119 LINE",
"68.347 544.881 LINE",
"62.109 513.109 LINE",
"129.812 492.396 LINE",
"76.931 28.238 LINE SMOOTH",
"62.05 -98.99 OFFCURVE",
"29 -208.337 OFFCURVE",
"-68.05 -208.337 CURVE SMOOTH",
"-83.871 -208.337 OFFCURVE",
"-103.99 -204.396 OFFCURVE",
"-112.99 -200.455 CURVE",
"-127.406 -235.297 LINE",
"-116.287 -246.356 OFFCURVE",
"-83.871 -253.297 OFFCURVE",
"-52.396 -253.297 CURVE SMOOTH",
"59.96 -253.297 OFFCURVE",
"132.921 -162.119 OFFCURVE",
"151.98 0.941 CURVE SMOOTH"
);
}
);
width = 284.31683;
},
{
anchors = (
{
name = top;
position = "{179.733, 555}";
}
);
layerId = "27298932-82AF-4578-9425-6304FDB19058";
paths = (
{
closed = 1;
nodes = (
"280.921 556 LINE",
"253.188 567.941 LINE",
"58.327 543.059 LINE",
"48.446 499.446 LINE",
"111.594 467.802 LINE",
"60.535 31.881 LINE SMOOTH",
"47.475 -83.505 OFFCURVE",
"29 -182.832 OFFCURVE",
"-53.475 -182.832 CURVE SMOOTH",
"-66.564 -182.832 OFFCURVE",
"-88.505 -179.802 OFFCURVE",
"-97.505 -176.772 CURVE",
"-118.297 -239.851 LINE",
"-105.356 -251.822 OFFCURVE",
"-66.564 -257.851 OFFCURVE",
"-27.802 -257.851 CURVE SMOOTH",
"90.02 -257.851 OFFCURVE",
"193.04 -163.941 OFFCURVE",
"213.01 0.03 CURVE SMOOTH"
);
}
);
width = 319.84158;
}
);
leftKerningGroup = j;
rightKerningGroup = i;
unicode = 0237;
},
{
glyphname = k;
lastChange = "2019-02-15 20:57:47 +0000";
layers = (
{
anchors = (
{
name = bottom;
position = "{231.663, 0}";
},
{
name = top;
position = "{342.376, 774}";
}
);
layerId = "0C3FD5EE-D923-4A4A-8FDE-164881635915";
paths = (
{
closed = 1;
nodes = (
"332.347 43.356 LINE",
"353.812 6.535 OFFCURVE",
"381.693 -9.941 OFFCURVE",
"414.238 -9.941 CURVE SMOOTH",
"462.436 -9.941 OFFCURVE",
"497.396 19.139 OFFCURVE",
"512.634 45.02 CURVE",
"495.693 73.376 LINE",
"475.752 53.733 OFFCURVE",
"464.802 50.436 OFFCURVE",
"451.861 50.436 CURVE SMOOTH",
"434.921 50.436 OFFCURVE",
"412.099 68.257 OFFCURVE",
"394.218 94.495 CURVE SMOOTH",
"252.485 303.01 LINE",
"303.723 333.653 OFFCURVE",
"425.683 393.168 OFFCURVE",
"471.089 457.98 CURVE",
"486.97 480.683 OFFCURVE",
"493.446 502.861 OFFCURVE",
"492.505 520.05 CURVE SMOOTH",
"491.564 544.644 OFFCURVE",
"474.267 561.416 OFFCURVE",
"452.02 561.416 CURVE SMOOTH",
"429.366 561.416 OFFCURVE",
"404.941 546.535 OFFCURVE",
"400.238 515.168 CURVE",
"397.416 493.574 OFFCURVE",
"393.178 467.574 OFFCURVE",
"372.356 439.812 CURVE SMOOTH",
"323.762 375.099 OFFCURVE",
"247.901 345.634 OFFCURVE",
"181.97 298 CURVE"
);
},
{
closed = 1;
nodes = (
"101.634 789.416 LINE",
"95.455 756 LINE",
"151.871 739.703 LINE",
"53.455 0 LINE",
"129.743 0 LINE",
"236.921 794.535 LINE",
"216.505 806.653 LINE"
);
}
);
width = 533.49505;
},
{
anchors = (
{
name = bottom;
position = "{257.168, 0}";
},
{
name = top;
position = "{378.812, 774}";
}
);
layerId = "27298932-82AF-4578-9425-6304FDB19058";
paths = (
{
closed = 1;
nodes = (
"322.327 48.822 LINE SMOOTH",
"335.594 14.733 OFFCURVE",
"361.653 -9.03 OFFCURVE",
"417.881 -9.03 CURVE SMOOTH",
"499.782 -9.03 OFFCURVE",
"564.802 51.931 OFFCURVE",
"583.683 75.99 CURVE",
"567.653 109.812 LINE",
"548.624 95.634 OFFCURVE",
"523.099 87.782 OFFCURVE",
"511.069 87.782 CURVE SMOOTH",
"495.04 87.782 OFFCURVE",
"474.95 102.871 OFFCURVE",
"458.891 132.752 CURVE",
"367.257 318.495 LINE",
"422.139 343.673 OFFCURVE",
"482.158 380.416 OFFCURVE",
"518.455 427.01 CURVE",
"532.515 445.158 OFFCURVE",
"546.277 470.069 OFFCURVE",
"546.248 505.475 CURVE SMOOTH",
"546.218 539.178 OFFCURVE",
"524.366 567.792 OFFCURVE",
"482.99 567.792 CURVE SMOOTH",
"450.317 567.792 OFFCURVE",
"404.03 554.733 OFFCURVE",
"403.881 502.416 CURVE SMOOTH",
"403.792 471.713 OFFCURVE",
"395.911 445.713 OFFCURVE",
"377.822 421.594 CURVE SMOOTH",
"320.119 345.95 OFFCURVE",
"277.05 324.683 OFFCURVE",
"227.515 298 CURVE"
);
},
{
closed = 1;
nodes = (
"80.683 795.792 LINE",
"71.772 756 LINE",
"134.564 735.149 LINE",
"29.772 0 LINE",
"187.129 0 LINE",
"297.04 802.733 LINE",
"270.248 816.673 LINE"
);
}
);
width = 571.75248;
}
);
leftKerningGroup = h;
rightKerningGroup = k;
unicode = 006B;
},
{
glyphname = kgreenlandic;
lastChange = "2019-02-15 20:57:47 +0000";
layers = (
{
anchors = (
{
name = bottom;
position = "{287, -63}";
}
);
layerId = "0C3FD5EE-D923-4A4A-8FDE-164881635915";
paths = (
{
closed = 1;
nodes = (
"266.832 289.257 LINE",
"533.267 555 LINE",
"443.881 555 LINE",
"191.911 285.772 LINE",
"333.703 43.356 LINE",
"354.228 5.594 OFFCURVE",
"372.703 -9 OFFCURVE",
"411.832 -9 CURVE SMOOTH",
"454.386 -9 OFFCURVE",
"487.465 17.257 OFFCURVE",
"501.762 36.554 CURVE",
"486.703 63.03 LINE",
"470.525 53.733 OFFCURVE",
"457.693 49.495 OFFCURVE",
"447.574 49.495 CURVE SMOOTH",
"430.634 49.495 OFFCURVE",
"409.634 71.079 OFFCURVE",
"396.515 90.733 CURVE"
);
},
{
closed = 1;
nodes = (
"84.455 543.881 LINE",
"76.455 510.287 LINE",
"130.337 494.455 LINE",
"67.277 0 LINE",
"143.446 0 LINE",
"215.327 550.356 LINE",
"194.97 562.356 LINE"
);
}
);
width = 522.57426;
},
{
anchors = (
{
name = bottom;
position = "{287, -63}";
}
);
layerId = "27298932-82AF-4578-9425-6304FDB19058";
paths = (
{
closed = 1;
nodes = (
"371.584 323.871 LINE",
"583.366 555 LINE",
"442.059 555 LINE",
"236.545 297.614 LINE",
"329.149 48.822 LINE SMOOTH",
"342.386 14.703 OFFCURVE",
"368.149 -9 OFFCURVE",
"424.584 -9 CURVE SMOOTH",
"506.307 -9 OFFCURVE",
"571.267 51.871 OFFCURVE",
"590.119 75.723 CURVE",
"574.149 109.485 LINE",
"555.238 95.634 OFFCURVE",
"529.653 87.752 OFFCURVE",
"517.713 87.752 CURVE SMOOTH",
"501.683 87.752 OFFCURVE",
"480.683 102.96 OFFCURVE",
"465.743 132.634 CURVE"
);
},
{
closed = 1;
nodes = (
"60.772 542.059 LINE",
"52.772 499.356 LINE",
"104.832 470.772 LINE",
"40.861 0 LINE",
"196.277 0 LINE",
"266.337 555.822 LINE",
"240.515 567.822 LINE"
);
}
);
width = 592.71287;
}
);
leftKerningGroup = h;
rightKerningGroup = k;
unicode = 0138;
},
{
glyphname = l;
lastChange = "2019-02-15 20:57:47 +0000";
layers = (
{
anchors = (
{
name = bottom;
position = "{118.535, 0}";
},
{
name = caron;
position = "{283.98, 766}";
},
{
name = top;
position = "{196.416, 780.297}";
}
);
layerId = "0C3FD5EE-D923-4A4A-8FDE-164881635915";
paths = (
{
closed = 1;
nodes = (
"242.743 805.822 LINE",
"223.386 817.941 LINE",
"108.277 800.703 LINE",
"100.158 767.287 LINE",
"159.515 750.99 LINE",
"66.634 83.653 LINE SMOOTH",
"65.634 73.772 OFFCURVE",
"63.574 57.653 OFFCURVE",
"63.574 50.356 CURVE SMOOTH",
"62.634 7.059 OFFCURVE",
"81.653 -10 OFFCURVE",
"115.782 -10 CURVE SMOOTH",
"175.446 -10 OFFCURVE",
"213.564 41.297 OFFCURVE",
"221.743 55.356 CURVE",
"208.743 77.188 LINE",
"184.624 51.604 OFFCURVE",
"169.04 43.901 OFFCURVE",
"155.277 43.901 CURVE SMOOTH",
"145.861 43.901 OFFCURVE",
"138.98 56.02 OFFCURVE",
"141.98 79.02 CURVE SMOOTH"
);
}
);
width = 288.72277;
},
{
anchors = (
{
name = bottom;
position = "{126.733, 0}";
},
{
name = caron;
position = "{345.01, 766}";
},
{
name = top;
position = "{202.792, 784.851}";
}
);
layerId = "27298932-82AF-4578-9425-6304FDB19058";
paths = (
{
closed = 1;
nodes = (
"300.129 803.089 LINE",
"275.307 817.03 LINE",
"81.861 796.149 LINE",
"71.921 756.356 LINE",
"136.743 735.505 LINE",
"45.683 93.673 LINE SMOOTH",
"44.683 85.614 OFFCURVE",
"41.713 67.673 OFFCURVE",
"41.713 55.822 CURVE SMOOTH",
"41.683 7.97 OFFCURVE",
"91.673 -10 OFFCURVE",
"143.109 -10 CURVE SMOOTH",
"228.277 -10 OFFCURVE",
"268.218 45.851 OFFCURVE",
"279.129 60.822 CURVE",
"266.129 95.406 LINE",
"240.188 76.198 OFFCURVE",
"230.98 73.05 OFFCURVE",
"220.861 73.05 CURVE SMOOTH",
"205.069 73.05 OFFCURVE",
"200.01 86.99 OFFCURVE",
"203.01 109.99 CURVE SMOOTH"
);
}
);
width = 315.13861;
}
);
leftKerningGroup = l;
rightKerningGroup = l;
unicode = 006C;
},
{
glyphname = lslash;
lastChange = "2019-02-15 20:57:47 +0000";
layers = (
{
layerId = "0C3FD5EE-D923-4A4A-8FDE-164881635915";
paths = (
{
closed = 1;
nodes = (
"215.802 453.644 LINE",
"323.03 496.347 LINE",
"323.03 554.178 LINE",
"223.861 513.535 LINE",
"263.505 793.881 LINE",
"244.149 806 LINE",
"129.861 788.762 LINE",
"121.743 755.347 LINE",
"180.158 739.05 LINE",
"143.337 480.337 LINE",
"58.752 445.515 LINE",
"58.752 391.683 LINE",
"136.218 422.446 LINE",
"87.693 83.653 LINE SMOOTH",
"86.693 73.772 OFFCURVE",
"84.634 57.653 OFFCURVE",
"84.634 50.356 CURVE SMOOTH",
"83.752 7.059 OFFCURVE",
"102.832 -10 OFFCURVE",
"136.96 -10 CURVE SMOOTH",
"191.624 -10 OFFCURVE",
"234.743 41.297 OFFCURVE",
"242.921 55.356 CURVE",
"229.921 77.188 LINE",
"205.802 51.604 OFFCURVE",
"190.218 43.901 OFFCURVE",
"176.455 43.901 CURVE SMOOTH",
"167.04 43.901 OFFCURVE",
"160.158 56.02 OFFCURVE",
"163.158 79.02 CURVE SMOOTH"
);
}
);
width = 322.25743;
},
{
layerId = "27298932-82AF-4578-9425-6304FDB19058";
paths = (
{
closed = 1;
nodes = (
"274.099 448.178 LINE",
"369.485 486.327 LINE",
"369.485 556.911 LINE",
"283.069 521.733 LINE",
"317.248 792.059 LINE",
"292.426 806 LINE",
"97.069 785.119 LINE",
"87.129 745.327 LINE",
"151.921 724.475 LINE",
"117.832 454.832 LINE",
"39.624 422.743 LINE",
"39.624 356.158 LINE",
"108.891 383.277 LINE",
"67.653 93.673 LINE SMOOTH",
"66.653 85.614 OFFCURVE",
"63.683 67.673 OFFCURVE",
"63.683 55.822 CURVE SMOOTH",
"64.624 7.97 OFFCURVE",
"115.584 -10 OFFCURVE",
"167.02 -10 CURVE SMOOTH",
"247.188 -10 OFFCURVE",
"292.129 45.851 OFFCURVE",
"303.04 60.822 CURVE",
"290.04 95.406 LINE",
"264.099 76.198 OFFCURVE",
"254.891 73.05 OFFCURVE",
"244.772 73.05 CURVE SMOOTH",
"228.98 73.05 OFFCURVE",
"223.921 86.99 OFFCURVE",
"226.921 109.99 CURVE"
);
}
);
width = 356.87129;
}
);
leftKerningGroup = lslash;
rightKerningGroup = lslash;
unicode = 0142;
},
{
glyphname = m;
lastChange = "2019-02-15 20:59:35 +0000";
layers = (
{
anchors = (
{
name = bottom;
position = "{434.772, 0}";
},
{
name = top;
position = "{520.248, 555}";
}
);
layerId = "0C3FD5EE-D923-4A4A-8FDE-164881635915";
paths = (
{
closed = 1;
nodes = (
"213.446 557.881 LINE",
"194.97 568 LINE",
"90.099 546.703 LINE",
"83.04 511.228 LINE",
"131.277 487.871 LINE",
"66.337 0 LINE",
"143.446 0 LINE",
"192.505 363.881 LINE",
"242.257 439.871 OFFCURVE",
"324.238 503.921 OFFCURVE",
"382.693 503.921 CURVE SMOOTH",
"432.505 503.921 OFFCURVE",
"448.327 485.455 OFFCURVE",
"448.446 417.871 CURVE SMOOTH",
"448.505 359.05 OFFCURVE",
"435.743 279.406 OFFCURVE",
"426.861 222.584 CURVE",
"395.099 0 LINE",
"474.446 0 LINE",
"508.149 247 LINE",
"514.089 285.881 OFFCURVE",
"520.911 333.762 OFFCURVE",
"524.792 376.584 CURVE",
"572.723 446.05 OFFCURVE",
"641.356 502.98 OFFCURVE",
"693.465 502.98 CURVE SMOOTH",
"737.337 502.98 OFFCURVE",
"757.802 484.277 OFFCURVE",
"757.861 418.05 CURVE SMOOTH",
"757.921 357.287 OFFCURVE",
"742.04 280.287 OFFCURVE",
"733.04 225.406 CURVE",
"723.921 167.644 OFFCURVE",
"710.04 94.416 OFFCURVE",
"708.158 47.604 CURVE SMOOTH",
"707.218 7.782 OFFCURVE",
"723.861 -10 OFFCURVE",
"760.129 -10 CURVE SMOOTH",
"815.208 -10 OFFCURVE",
"858.505 41.297 OFFCURVE",
"867.624 55.356 CURVE",
"855.505 77.188 LINE",
"831.564 53.604 OFFCURVE",
"815.921 43.901 OFFCURVE",
"800.218 43.901 CURVE SMOOTH",
"790.218 43.901 OFFCURVE",
"786.861 56.307 OFFCURVE",
"788.743 78.426 CURVE SMOOTH",
"791.564 128.535 OFFCURVE",
"804.505 196.059 OFFCURVE",
"813.505 247 CURVE SMOOTH",
"822.505 303.822 OFFCURVE",
"837.505 376.891 OFFCURVE",
"837.505 422.822 CURVE SMOOTH",
"837.505 527.178 OFFCURVE",
"790.97 568 OFFCURVE",
"723.495 568 CURVE SMOOTH",
"649.842 568 OFFCURVE",
"576.257 508.95 OFFCURVE",
"526.673 439.475 CURVE",
"524.257 529.475 OFFCURVE",
"487.307 568 OFFCURVE",
"417.248 568 CURVE SMOOTH",
"337.545 568 OFFCURVE",
"254.851 504.832 OFFCURVE",
"200.743 432.307 CURVE"
);
}
);
width = 925;
},
{
anchors = (
{
name = bottom;
position = "{446.614, 0}";
},
{
name = top;
position = "{539.376, 555}";
}
);
layerId = "27298932-82AF-4578-9425-6304FDB19058";
paths = (
{
closed = 1;
nodes = (
"266.277 556.059 LINE",
"240.515 568 LINE",
"60.95 542.149 LINE",
"52.98 499.386 LINE",
"104.861 470.564 LINE",
"40.832 0 LINE",
"196.277 0 LINE",
"246.248 362.059 LINE",
"276.871 422.564 OFFCURVE",
"327.881 472.04 OFFCURVE",
"362.653 472.04 CURVE SMOOTH",
"394.248 472.04 OFFCURVE",
"407.337 461.772 OFFCURVE",
"409.277 400.564 CURVE SMOOTH",
"410.248 344.475 OFFCURVE",
"401.129 270.297 OFFCURVE",
"394.069 216.208 CURVE SMOOTH",
"365.95 0 LINE",
"527.277 0 LINE",
"556.426 247 LINE",
"561.455 284.059 OFFCURVE",
"565.545 330.119 OFFCURVE",
"567.604 370.208 CURVE",
"599.139 431.475 OFFCURVE",
"646.822 472.01 OFFCURVE",
"685.267 472.01 CURVE SMOOTH",
"711.832 472.01 OFFCURVE",
"724.099 457.861 OFFCURVE",
"725.069 403.475 CURVE SMOOTH",
"726.04 346.356 OFFCURVE",
"711.98 269.356 OFFCURVE",
"702.98 216.297 CURVE SMOOTH",
"692.04 162.178 OFFCURVE",
"679.98 100.792 OFFCURVE",
"679.921 72.198 CURVE SMOOTH",
"679.891 35.109 OFFCURVE",
"691.069 -10 OFFCURVE",
"777.436 -10 CURVE SMOOTH",
"864.396 -10 OFFCURVE",
"912.248 45.851 OFFCURVE",
"923.188 60.822 CURVE",
"909.248 95.406 LINE",
"886.218 78.198 OFFCURVE",
"876.04 73.05 OFFCURVE",
"864.891 73.05 CURVE SMOOTH",
"854.891 73.05 OFFCURVE",
"846.069 76.347 OFFCURVE",
"846.129 100.287 CURVE SMOOTH",
"846.218 136.733 OFFCURVE",
"858.248 196.97 OFFCURVE",
"867.248 247 CURVE SMOOTH",
"876.248 301.089 OFFCURVE",
"891.248 390.554 OFFCURVE",
"891.248 420.089 CURVE SMOOTH",
"891.248 529.911 OFFCURVE",
"836.515 568 OFFCURVE",
"761.752 568 CURVE SMOOTH",
"678.079 568 OFFCURVE",
"610.871 523.525 OFFCURVE",
"567.663 446.762 CURVE",
"558.871 536.762 OFFCURVE",
"507.347 568 OFFCURVE",
"436.376 568 CURVE SMOOTH",
"361.228 568 OFFCURVE",
"298.574 517.584 OFFCURVE",
"258.129 452.347 CURVE"
);
}
);
width = 950.16832;
}
);
leftKerningGroup = n;
leftMetricsKey = n;
rightKerningGroup = n;
rightMetricsKey = n;
unicode = 006D;
},
{
glyphname = n;
lastChange = "2019-02-15 20:57:47 +0000";
layers = (
{
anchors = (
{
name = bottom;
position = "{278.772, 0}";
},
{
name = top;
position = "{329.129, 555}";
}
);
layerId = "0C3FD5EE-D923-4A4A-8FDE-164881635915";
paths = (
{
closed = 1;
nodes = (
"214.386 557.881 LINE",
"195.03 568 LINE",
"90.099 546.703 LINE",
"83.04 511.228 LINE",
"131.277 487.871 LINE",
"66.396 0 LINE",
"143.505 0 LINE",
"192.446 363.287 LINE",
"242.198 438.634 OFFCURVE",
"324.178 503.921 OFFCURVE",
"382.871 503.921 CURVE SMOOTH",
"432.386 503.921 OFFCURVE",
"450.03 484.277 OFFCURVE",
"450.089 418.05 CURVE SMOOTH",
"450.149 357.287 OFFCURVE",
"433.327 279.347 OFFCURVE",
"422.446 222.584 CURVE SMOOTH",
"413.446 167.644 OFFCURVE",
"396.624 93.475 OFFCURVE",
"394.743 48.545 CURVE SMOOTH",
"393.802 6.842 OFFCURVE",
"413.327 -10 OFFCURVE",
"447.653 -10 CURVE SMOOTH",
"499.911 -10 OFFCURVE",
"543.208 35.653 OFFCURVE",
"549.505 46.891 CURVE",
"537.386 69.663 LINE",
"518.149 51.723 OFFCURVE",
"502.505 43.901 OFFCURVE",
"489.624 43.901 CURVE SMOOTH",
"480.624 43.901 OFFCURVE",
"477.208 56.307 OFFCURVE",
"478.149 78.426 CURVE SMOOTH",
"480.97 127.594 OFFCURVE",
"494.911 197 OFFCURVE",
"503.851 247 CURVE SMOOTH",
"513.792 301 OFFCURVE",
"529.733 375.95 OFFCURVE",
"529.733 423.762 CURVE SMOOTH",
"529.733 531.881 OFFCURVE",
"486.079 568 OFFCURVE",
"417.604 568 CURVE SMOOTH",
"337.782 568 OFFCURVE",
"255.03 505.069 OFFCURVE",
"200.743 432.366 CURVE"
);
}
);
width = 608.42574;
},
{
anchors = (
{
name = bottom;
position = "{290.614, 0}";
},
{
name = top;
position = "{346.436, 555}";
}
);
layerId = "27298932-82AF-4578-9425-6304FDB19058";
paths = (
{
closed = 1;
nodes = (
"266.307 556.059 LINE",
"241.485 568 LINE",
"60.95 542.149 LINE",
"52.98 499.386 LINE",
"104.861 470.564 LINE",
"41.802 0 LINE",
"197.248 0 LINE",
"245.277 352.356 LINE",
"275.901 417.683 OFFCURVE",
"326.911 472.04 OFFCURVE",
"365.564 472.04 CURVE SMOOTH",
"392.307 472.04 OFFCURVE",
"404.485 457.861 OFFCURVE",
"405.455 403.475 CURVE SMOOTH",
"406.426 346.356 OFFCURVE",
"392.337 269.327 OFFCURVE",
"383.277 216.208 CURVE SMOOTH",
"374.277 162.178 OFFCURVE",
"360.188 100.762 OFFCURVE",
"360.129 72.228 CURVE SMOOTH",
"360.099 35.079 OFFCURVE",
"372.337 -10 OFFCURVE",
"457.673 -10 CURVE SMOOTH",
"544.545 -10 OFFCURVE",
"592.396 45.673 OFFCURVE",
"603.248 60.554 CURVE",
"589.307 95.168 LINE",
"566.426 78.139 OFFCURVE",
"556.248 73.05 OFFCURVE",
"545.188 73.05 CURVE SMOOTH",
"536.188 73.05 OFFCURVE",
"526.396 76.347 OFFCURVE",
"526.426 100.287 CURVE SMOOTH",
"526.515 136.703 OFFCURVE",
"539.545 197 OFFCURVE",
"547.574 247 CURVE SMOOTH",
"556.604 301 OFFCURVE",
"571.634 390.525 OFFCURVE",
"571.634 420.119 CURVE SMOOTH",
"571.634 530.059 OFFCURVE",
"517.96 568 OFFCURVE",
"442.198 568 CURVE SMOOTH",
"365.109 568 OFFCURVE",
"301.485 521.465 OFFCURVE",
"258.129 453.317 CURVE"
);
}
);
width = 630.28713;
}
);
leftKerningGroup = n;
rightKerningGroup = n;
unicode = 006E;
},
{
glyphname = eng;
lastChange = "2019-02-15 20:57:47 +0000";
layers = (
{
layerId = "0C3FD5EE-D923-4A4A-8FDE-164881635915";
paths = (
{
closed = 1;
nodes = (
"212.505 550.356 LINE",
"194.089 560.475 LINE",
"89.158 539.178 LINE",
"82.099 503.703 LINE",
"130.337 480.347 LINE",
"66.396 0 LINE",
"143.505 0 LINE",
"191.505 361.347 LINE",
"242.792 438.762 OFFCURVE",
"324.653 503.921 OFFCURVE",
"382.931 503.921 CURVE SMOOTH",
"432.683 503.921 OFFCURVE",
"451.327 480.743 OFFCURVE",
"450.089 416.168 CURVE",
"447.901 291.198 OFFCURVE",
"409.802 49.97 OFFCURVE",
"404.267 23.515 CURVE SMOOTH",
"382.564 -94.604 OFFCURVE",
"347.099 -209.337 OFFCURVE",
"247.644 -209.337 CURVE SMOOTH",
"236.941 -209.337 OFFCURVE",
"216.822 -207.337 OFFCURVE",
"205.059 -201.455 CURVE",
"191.703 -235.059 LINE",
"202.703 -247 OFFCURVE",
"230.238 -253.059 OFFCURVE",
"260.594 -253.059 CURVE SMOOTH",
"371.792 -253.059 OFFCURVE",
"443.376 -172.139 OFFCURVE",
"477.851 0 CURVE",
"503.495 127.277 OFFCURVE",
"524.079 294.317 OFFCURVE",
"529.733 420 CURVE",
"533.089 528.416 OFFCURVE",
"487.782 567 OFFCURVE",
"417.604 567 CURVE SMOOTH",
"337.129 567 OFFCURVE",
"253.733 503.594 OFFCURVE",
"200.743 432.366 CURVE"
);
}
);
width = 614.12871;
},
{
layerId = "27298932-82AF-4578-9425-6304FDB19058";
paths = (
{
closed = 1;
nodes = (
"266.248 555.822 LINE",
"241.455 567.762 LINE",
"60.921 541.911 LINE",
"52.95 499.149 LINE",
"104.832 470.327 LINE",
"41.802 0 LINE",
"197.248 0 LINE",
"245.248 351.327 LINE",
"285.604 435.119 OFFCURVE",
"334.673 472.04 OFFCURVE",
"366.535 472.04 CURVE SMOOTH",
"397.158 472.04 OFFCURVE",
"410.337 446.129 OFFCURVE",
"405.455 403.416 CURVE SMOOTH",
"385.05 232.901 OFFCURVE",
"376.099 95.515 OFFCURVE",
"362.366 0.743 CURVE SMOOTH",
"345.218 -119.198 OFFCURVE",
"317.95 -183.832 OFFCURVE",
"242.178 -183.832 CURVE SMOOTH",
"236.03 -183.832 OFFCURVE",
"214.089 -181.832 OFFCURVE",
"205.97 -177.772 CURVE",
"187.149 -235.97 LINE",
"198.149 -247 OFFCURVE",
"233.881 -253.97 OFFCURVE",
"269.703 -253.97 CURVE SMOOTH",
"414.604 -253.97 OFFCURVE",
"479.812 -204.931 OFFCURVE",
"521.574 0 CURVE SMOOTH",
"541.752 100.861 OFFCURVE",
"555.96 237.842 OFFCURVE",
"571.634 420 CURVE SMOOTH",
"580.455 534.792 OFFCURVE",
"515.109 567 OFFCURVE",
"442.198 567 CURVE SMOOTH",
"354.436 567 OFFCURVE",
"295.634 512.703 OFFCURVE",
"258.129 453.317 CURVE"
);
}
);
width = 631.43564;
}
);
leftKerningGroup = n;
leftMetricsKey = n;
rightKerningGroup = n;
rightMetricsKey = j;
unicode = 014B;
},
{
glyphname = o;
lastChange = "2019-02-15 20:57:47 +0000";
layers = (
{
anchors = (
{
name = bottom;
position = "{238.01, -0.832}";
},
{
name = center;
position = "{279.01, 277.297}";
},
{
name = ogonek;
position = "{290.079, 10}";
},
{
name = top;
position = "{316.248, 555.594}";
},
{
name = topright;
position = "{415.901, 556.465}";
}
);
layerId = "0C3FD5EE-D923-4A4A-8FDE-164881635915";
paths = (
{
closed = 1;
nodes = (
"152.406 568.059 OFFCURVE",
"38.812 393.069 OFFCURVE",
"40.109 213.881 CURVE SMOOTH",
"42.347 71.644 OFFCURVE",
"111.644 -10.238 OFFCURVE",
"235.832 -10.238 CURVE SMOOTH",
"402.733 -10.238 OFFCURVE",
"516.386 166.812 OFFCURVE",
"514.149 343.119 CURVE SMOOTH",
"511.97 485.356 OFFCURVE",
"443.436 568.059 OFFCURVE",
"319.307 568.059 CURVE SMOOTH"
);
},
{
closed = 1;
nodes = (
"388.337 518.812 OFFCURVE",
"430.03 453.594 OFFCURVE",
"431.149 342.297 CURVE SMOOTH",
"433.267 210.356 OFFCURVE",
"371.406 38.653 OFFCURVE",
"250.366 38.653 CURVE SMOOTH",
"168.564 38.653 OFFCURVE",
"124.168 102.465 OFFCURVE",
"122.99 214.703 CURVE SMOOTH",
"120.871 348.287 OFFCURVE",
"182.149 518.812 OFFCURVE",
"306.01 518.812 CURVE SMOOTH"
);
}
);
width = 553.31683;
},
{
anchors = (
{
name = bottom;
position = "{253.495, -13.584}";
},
{
name = center;
position = "{294.495, 281.851}";
},
{
name = ogonek;
position = "{321.96, 10}";
},
{
name = top;
position = "{335.376, 564.703}";
},
{
name = topright;
position = "{445.05, 548.267}";
}
);
layerId = "27298932-82AF-4578-9425-6304FDB19058";
paths = (
{
closed = 1;
nodes = (
"143.297 568.97 OFFCURVE",
"20.594 409.465 OFFCURVE",
"26.446 212.059 CURVE SMOOTH",
"32.327 66.178 OFFCURVE",
"106.178 -13.881 OFFCURVE",
"248.584 -13.881 CURVE SMOOTH",
"444.634 -13.881 OFFCURVE",
"568.307 148.594 OFFCURVE",
"562.426 344.941 CURVE SMOOTH",
"557.515 490.822 OFFCURVE",
"480.782 568.97 OFFCURVE",
"339.347 568.97 CURVE SMOOTH"
);
},
{
closed = 1;
nodes = (
"362.832 500.594 OFFCURVE",
"384.485 462.703 OFFCURVE",
"387.426 346.851 CURVE SMOOTH",
"391.366 215.822 OFFCURVE",
"362.297 48.673 OFFCURVE",
"271.317 48.673 CURVE SMOOTH",
"223.218 48.673 OFFCURVE",
"203.416 94.267 OFFCURVE",
"199.505 210.149 CURVE SMOOTH",
"195.564 337.356 OFFCURVE",
"230.426 500.594 OFFCURVE",
"321.495 500.594 CURVE SMOOTH"
);
}
);
width = 588.84158;
}
);
leftKerningGroup = o;
rightKerningGroup = o;
unicode = 006F;
},
{
glyphname = ohorn;
lastChange = "2019-02-15 20:57:47 +0000";
layers = (
{
anchors = (
{
name = bottom;
position = "{237.188, 0}";
},
{
name = top;
position = "{320.901, 555.594}";
}
);
layerId = "0C3FD5EE-D923-4A4A-8FDE-164881635915";
paths = (
{
closed = 1;
nodes = (
"405.97 -10.238 OFFCURVE",
"519.624 166.812 OFFCURVE",
"517.386 343.119 CURVE SMOOTH",
"516.332 412.605 OFFCURVE",
"499.441 467.893 OFFCURVE",
"467.98 506.245 CURVE",
"540.301 523.671 OFFCURVE",
"595.554 560.218 OFFCURVE",
"605.614 627.931 CURVE SMOOTH",
"606.614 634.931 OFFCURVE",
"607.614 642.881 OFFCURVE",
"607.673 650.881 CURVE",
"526.941 650.881 LINE",
"526.941 639.525 LINE SMOOTH",
"526.941 582.772 OFFCURVE",
"474.554 554.535 OFFCURVE",
"406.351 552.32 CURVE",
"382.173 562.686 OFFCURVE",
"354.147 568.059 OFFCURVE",
"322.545 568.059 CURVE SMOOTH",
"155.644 568.059 OFFCURVE",
"42.05 393.069 OFFCURVE",
"43.347 213.881 CURVE SMOOTH",
"45.584 71.644 OFFCURVE",
"114.881 -10.238 OFFCURVE",
"239.069 -10.238 CURVE SMOOTH"
);
},
{
closed = 1;
nodes = (
"124.109 348.287 OFFCURVE",
"185.386 518.812 OFFCURVE",
"309.248 518.812 CURVE SMOOTH",
"391.574 518.812 OFFCURVE",
"433.267 453.594 OFFCURVE",
"434.386 342.297 CURVE SMOOTH",
"436.505 210.356 OFFCURVE",
"374.644 38.653 OFFCURVE",
"253.604 38.653 CURVE SMOOTH",
"171.802 38.653 OFFCURVE",
"127.406 102.465 OFFCURVE",
"126.228 214.703 CURVE SMOOTH"
);
}
);
width = 559.79208;
},
{
anchors = (
{
name = bottom;
position = "{255.406, 0}";
},
{
name = top;
position = "{350.05, 564.703}";
}
);
layerId = "27298932-82AF-4578-9425-6304FDB19058";
paths = (
{
closed = 1;
nodes = (
"451.515 -13.881 OFFCURVE",
"575.188 148.594 OFFCURVE",
"569.307 344.941 CURVE SMOOTH",
"567.175 408.414 OFFCURVE",
"551.446 459.069 OFFCURVE",
"522.711 496.03 CURVE",
"586.361 507.75 OFFCURVE",
"634.723 532.891 OFFCURVE",
"645.693 611.535 CURVE SMOOTH",
"646.693 618.535 OFFCURVE",
"647.693 641.059 OFFCURVE",
"648.663 649.059 CURVE",
"526.03 649.059 LINE",
"526.03 632.238 LINE SMOOTH",
"526.03 594.614 OFFCURVE",
"513.723 562.733 OFFCURVE",
"433.127 556.852 CURVE",
"408.153 564.927 OFFCURVE",
"378.672 568.97 OFFCURVE",
"346.228 568.97 CURVE SMOOTH",
"150.178 568.97 OFFCURVE",
"27.475 409.465 OFFCURVE",
"33.327 212.059 CURVE SMOOTH",
"39.208 66.178 OFFCURVE",
"113.059 -13.881 OFFCURVE",
"255.465 -13.881 CURVE SMOOTH"
);
},
{
closed = 1;
nodes = (
"202.446 337.356 OFFCURVE",
"237.307 500.594 OFFCURVE",
"328.376 500.594 CURVE SMOOTH",
"369.713 500.594 OFFCURVE",
"391.366 462.703 OFFCURVE",
"394.307 346.851 CURVE SMOOTH",
"398.248 215.822 OFFCURVE",
"369.178 48.673 OFFCURVE",
"278.198 48.673 CURVE SMOOTH",
"230.099 48.673 OFFCURVE",
"210.297 94.267 OFFCURVE",
"206.386 210.149 CURVE SMOOTH"
);
}
);
width = 602.60396;
}
);
leftKerningGroup = o;
rightKerningGroup = o;
unicode = 01A1;
},
{
glyphname = oslash;
lastChange = "2019-02-15 20:57:47 +0000";
layers = (
{
anchors = (
{
name = top;
position = "{319.95, 555}";
}
);
layerId = "0C3FD5EE-D923-4A4A-8FDE-164881635915";
paths = (
{
closed = 1;
nodes = (
"492.446 611.059 LINE",
"457.851 631.297 LINE",
"408.198 551 LINE",
"382.901 563 OFFCURVE",
"353.545 569.059 OFFCURVE",
"320.069 569.059 CURVE SMOOTH",
"153.168 569.059 OFFCURVE",
"39.634 394.069 OFFCURVE",
"40.931 214.881 CURVE SMOOTH",
"42.05 136.822 OFFCURVE",
"64.109 75.881 OFFCURVE",
"104.287 37.881 CURVE",
"51.228 -45.703 LINE",
"85.762 -64.941 LINE",
"136.822 13.703 LINE",
"165.059 -1.238 OFFCURVE",
"198.297 -9.238 OFFCURVE",
"236.653 -9.238 CURVE SMOOTH",
"403.554 -9.238 OFFCURVE",
"517.149 167.812 OFFCURVE",
"514.911 344.119 CURVE",
"513.851 428.941 OFFCURVE",
"488.792 492.762 OFFCURVE",
"442.733 529.762 CURVE"
);
},
{
closed = 1;
nodes = (
"149.267 101.347 LINE",
"133.218 129.099 OFFCURVE",
"124.752 168.139 OFFCURVE",
"123.812 215.703 CURVE SMOOTH",
"121.693 349.287 OFFCURVE",
"182.911 519.752 OFFCURVE",
"306.832 519.752 CURVE SMOOTH",
"334.475 519.752 OFFCURVE",
"358.059 511.515 OFFCURVE",
"376.584 496.505 CURVE"
);
},
{
closed = 1;
nodes = (
"399.871 468.594 LINE",
"420.624 438.842 OFFCURVE",
"430.97 395.802 OFFCURVE",
"431.97 343.297 CURVE SMOOTH",
"434.03 211.356 OFFCURVE",
"372.168 39.653 OFFCURVE",
"251.188 39.653 CURVE SMOOTH",
"217.426 39.653 OFFCURVE",
"190.901 50.129 OFFCURVE",
"170.495 70.495 CURVE"
);
}
);
width = 559.60396;
},
{
anchors = (
{
name = top;
position = "{334.525, 555}";
}
);
layerId = "27298932-82AF-4578-9425-6304FDB19058";
paths = (
{
closed = 1;
nodes = (
"545.277 611.97 LINE",
"501.574 635.851 LINE",
"441.901 551 LINE",
"412.05 563 OFFCURVE",
"377.228 569.97 OFFCURVE",
"336.465 569.97 CURVE SMOOTH",
"140.416 569.97 OFFCURVE",
"18.683 410.465 OFFCURVE",
"24.535 213.059 CURVE",
"27.475 134.089 OFFCURVE",
"50.446 74.059 OFFCURVE",
"93.356 36.059 CURVE",
"39.386 -41.149 LINE",
"82.119 -64.03 LINE",
"134.089 9.149 LINE",
"165.97 -4.881 OFFCURVE",
"202.851 -12.881 OFFCURVE",
"246.673 -12.881 CURVE SMOOTH",
"442.723 -12.881 OFFCURVE",
"565.426 149.594 OFFCURVE",
"559.545 345.941 CURVE SMOOTH",
"557.574 428.03 OFFCURVE",
"531.604 489.119 OFFCURVE",
"484.634 526.119 CURVE"
);
},
{
closed = 1;
nodes = (
"199.366 183.327 LINE",
"197.891 191.95 OFFCURVE",
"197.624 200.931 OFFCURVE",
"197.594 211.149 CURVE",
"193.653 338.356 OFFCURVE",
"227.545 500.624 OFFCURVE",
"319.584 500.624 CURVE SMOOTH",
"341.762 500.624 OFFCURVE",
"358.97 488.743 OFFCURVE",
"370.208 458.248 CURVE"
);
},
{
closed = 1;
nodes = (
"382.564 385.703 LINE",
"384.188 375.079 OFFCURVE",
"384.515 362.099 OFFCURVE",
"385.515 347.851 CURVE SMOOTH",
"388.485 216.822 OFFCURVE",
"359.416 49.673 OFFCURVE",
"269.406 49.673 CURVE SMOOTH",
"239.287 49.673 OFFCURVE",
"220.05 67.436 OFFCURVE",
"208.752 108.752 CURVE"
);
}
);
width = 584.19802;
}
);
leftKerningGroup = o;
rightKerningGroup = o;
unicode = 00F8;
},
{
glyphname = oe;
lastChange = "2019-02-15 20:57:47 +0000";
layers = (
{
layerId = "0C3FD5EE-D923-4A4A-8FDE-164881635915";
paths = (
{
closed = 1;
nodes = (
"785.762 125.782 LINE",
"730.604 71.089 OFFCURVE",
"666.03 46.96 OFFCURVE",
"610.604 46.96 CURVE SMOOTH",
"511.337 46.96 OFFCURVE",
"482.921 151.099 OFFCURVE",
"489.505 227.644 CURVE",
"588.99 229.703 OFFCURVE",
"832.307 291.584 OFFCURVE",
"831.95 446 CURVE SMOOTH",
"831.832 515 OFFCURVE",
"787.653 567.059 OFFCURVE",
"693.584 567.059 CURVE SMOOTH",
"613.119 567.059 OFFCURVE",
"542.475 525.188 OFFCURVE",
"492.356 460.614 CURVE",
"463 529.01 OFFCURVE",
"404.416 567.059 OFFCURVE",
"320.069 567.059 CURVE SMOOTH",
"154.168 567.059 OFFCURVE",
"38.99 392.832 OFFCURVE",
"41.287 214 CURVE SMOOTH",
"44.406 72 OFFCURVE",
"111.584 -10 OFFCURVE",
"236.475 -10 CURVE SMOOTH",
"314.941 -10 OFFCURVE",
"381.703 29.871 OFFCURVE",
"430.703 90.386 CURVE",
"459.059 32.752 OFFCURVE",
"512.881 -10 OFFCURVE",
"599.931 -10 CURVE SMOOTH",
"696.772 -10 OFFCURVE",
"775.653 52.535 OFFCURVE",
"803.594 91.772 CURVE"
);
},
{
closed = 1;
nodes = (
"399.04 518.812 OFFCURVE",
"424.149 419 OFFCURVE",
"427.792 337.149 CURVE",
"415.267 300.802 OFFCURVE",
"401.921 222.069 OFFCURVE",
"406.683 197.772 CURVE",
"378.574 111.535 OFFCURVE",
"326.822 38.832 OFFCURVE",
"250.01 38.832 CURVE SMOOTH",
"169.208 38.832 OFFCURVE",
"126.168 104.119 OFFCURVE",
"124.05 214.703 CURVE SMOOTH",
"121.931 347.168 OFFCURVE",
"183.851 518.812 OFFCURVE",
"306.653 518.812 CURVE SMOOTH"
);
},
{
closed = 1;
nodes = (
"723.97 520.693 OFFCURVE",
"751.079 492.99 OFFCURVE",
"751.139 438.644 CURVE SMOOTH",
"751.376 335.059 OFFCURVE",
"599.178 275.535 OFFCURVE",
"491.386 272.535 CURVE",
"502.03 375.762 OFFCURVE",
"567.475 520.693 OFFCURVE",
"675.396 520.693 CURVE SMOOTH"
);
}
);
width = 876.40594;
},
{
layerId = "27298932-82AF-4578-9425-6304FDB19058";
paths = (
{
closed = 1;
nodes = (
"782.119 153.109 LINE",
"755.198 118.455 OFFCURVE",
"712.485 77.02 OFFCURVE",
"635.198 77.02 CURVE SMOOTH",
"577.832 77.02 OFFCURVE",
"543.04 121.95 OFFCURVE",
"543.248 222.178 CURVE",
"665.505 225.149 OFFCURVE",
"852.347 285.208 OFFCURVE",
"846.525 446 CURVE SMOOTH",
"844.584 515 OFFCURVE",
"797.673 567.97 OFFCURVE",
"687.208 567.97 CURVE SMOOTH",
"614.941 567.97 OFFCURVE",
"549.762 543.406 OFFCURVE",
"497.822 500.693 CURVE",
"463 544.495 OFFCURVE",
"410.792 567.97 OFFCURVE",
"336.465 567.97 CURVE SMOOTH",
"141.416 567.97 OFFCURVE",
"23.505 405.584 OFFCURVE",
"30.356 214 CURVE SMOOTH",
"35.297 72 OFFCURVE",
"105.208 -10 OFFCURVE",
"243.762 -10 CURVE SMOOTH",
"314.03 -10 OFFCURVE",
"377.149 12.564 OFFCURVE",
"426.149 50.307 CURVE",
"459.97 13.624 OFFCURVE",
"511.059 -10 OFFCURVE",
"583.535 -10 CURVE SMOOTH",
"708.614 -10 OFFCURVE",
"785.673 60.733 OFFCURVE",
"812.703 103.614 CURVE"
);
},
{
closed = 1;
nodes = (
"368.98 500.594 OFFCURVE",
"380.426 419 OFFCURVE",
"378.604 293.426 CURVE",
"373.366 267.099 OFFCURVE",
"370.04 238.465 OFFCURVE",
"371.158 209.614 CURVE",
"356.713 119.733 OFFCURVE",
"324.089 51.584 OFFCURVE",
"265.495 51.584 CURVE SMOOTH",
"218.396 51.584 OFFCURVE",
"205.416 105.941 OFFCURVE",
"201.475 210.149 CURVE SMOOTH",
"197.535 334.416 OFFCURVE",
"227.574 500.594 OFFCURVE",
"316.673 500.594 CURVE SMOOTH"
);
},
{
closed = 1;
nodes = (
"677.515 500.653 OFFCURVE",
"690.96 477.505 OFFCURVE",
"691.931 433.178 CURVE SMOOTH",
"695.812 335.97 OFFCURVE",
"601.911 283.733 OFFCURVE",
"543.307 280.733 CURVE",
"548.485 372.119 OFFCURVE",
"574.762 500.653 OFFCURVE",
"650.802 500.653 CURVE SMOOTH"
);
}
);
width = 867.29703;
}
);
leftKerningGroup = o;
rightKerningGroup = e;
unicode = 0153;
},
{
glyphname = p;
lastChange = "2019-02-15 20:57:47 +0000";
layers = (
{
anchors = (
{
name = top;
position = "{329.614, 555}";
}
);
layerId = "0C3FD5EE-D923-4A4A-8FDE-164881635915";
paths = (
{
closed = 1;
nodes = (
"198.752 557.881 LINE",
"180.337 568 LINE",
"70.347 546.703 LINE",
"63.287 514.99 LINE",
"116.287 495.396 LINE",
"14.525 -254 LINE",
"90.515 -254 LINE",
"125.515 1.584 LINE",
"150.921 -4.238 OFFCURVE",
"180.149 -10 OFFCURVE",
"204.614 -10 CURVE SMOOTH",
"402.673 -10 OFFCURVE",
"515.743 200.851 OFFCURVE",
"515.743 356 CURVE SMOOTH",
"515.743 479.713 OFFCURVE",
"461.564 568 OFFCURVE",
"348.564 568 CURVE SMOOTH",
"277.218 568 OFFCURVE",
"220.99 522.307 OFFCURVE",
"189.05 478.317 CURVE"
);
},
{
closed = 1;
nodes = (
"182.812 414.307 LINE",
"209.337 455.297 OFFCURVE",
"267.198 510.218 OFFCURVE",
"334.119 510.218 CURVE SMOOTH",
"394.406 510.218 OFFCURVE",
"433.277 454.04 OFFCURVE",
"433.277 351.297 CURVE SMOOTH",
"433.277 218.347 OFFCURVE",
"359.535 39.188 OFFCURVE",
"216.673 39.188 CURVE SMOOTH",
"186.208 39.188 OFFCURVE",
"156.099 44.95 OFFCURVE",
"133.634 62.178 CURVE"
);
}
);
width = 557.08911;
},
{
anchors = (
{
name = top;
position = "{369.693, 555}";
}
);
layerId = "27298932-82AF-4578-9425-6304FDB19058";
paths = (
{
closed = 1;
nodes = (
"271.624 556.059 LINE",
"246.832 568 LINE",
"60.327 542.149 LINE",
"52.356 499.505 LINE",
"105.356 470.802 LINE",
"7.238 -254 LINE",
"159.743 -254 LINE",
"194.743 -4.792 LINE",
"211.04 -7.881 OFFCURVE",
"228.426 -10 OFFCURVE",
"244.693 -10 CURVE SMOOTH",
"443.663 -10 OFFCURVE",
"573.129 152.574 OFFCURVE",
"573.129 356 CURVE SMOOTH",
"573.129 490.644 OFFCURVE",
"516.218 568 OFFCURVE",
"403.218 568 CURVE SMOOTH",
"341.891 568 OFFCURVE",
"297.505 542.347 OFFCURVE",
"266.475 513.842 CURVE"
);
},
{
closed = 1;
nodes = (
"256.594 434.347 LINE",
"275.832 459.851 OFFCURVE",
"300.901 482.891 OFFCURVE",
"335.941 482.891 CURVE SMOOTH",
"385.297 482.891 OFFCURVE",
"406.861 423.98 OFFCURVE",
"406.861 355.851 CURVE SMOOTH",
"406.861 208.327 OFFCURVE",
"367.733 57.406 OFFCURVE",
"257.663 57.406 CURVE SMOOTH",
"235.396 57.406 OFFCURVE",
"218.95 59.525 OFFCURVE",
"204.683 64.911 CURVE"
);
}
);
width = 604.45545;
}
);
leftKerningGroup = p;
rightKerningGroup = b;
rightMetricsKey = b;
unicode = 0070;
},
{
glyphname = thorn;
lastChange = "2019-02-15 20:57:47 +0000";
layers = (
{
layerId = "0C3FD5EE-D923-4A4A-8FDE-164881635915";
paths = (
{
closed = 1;
nodes = (
"229.851 804.881 LINE",
"209.495 817 LINE",
"104.921 800.822 LINE",
"96.802 767.347 LINE",
"144.04 750.109 LINE",
"43.574 -2.475 LINE",
"8.634 -254 LINE",
"83.564 -254 LINE",
"112.208 -53.95 LINE",
"118.089 3.406 LINE",
"143.436 -3.297 OFFCURVE",
"175.366 -10 OFFCURVE",
"203.475 -10 CURVE SMOOTH",
"401.01 -10 OFFCURVE",
"513.901 202.733 OFFCURVE",
"513.901 356 CURVE SMOOTH",
"513.901 479.713 OFFCURVE",
"460.782 568 OFFCURVE",
"347.782 568 CURVE SMOOTH",
"275.614 568 OFFCURVE",
"216.446 521.426 OFFCURVE",
"185.386 477.495 CURVE"
);
},
{
closed = 1;
nodes = (
"175.386 408.901 LINE",
"200.089 449.832 OFFCURVE",
"261.832 510.218 OFFCURVE",
"332.396 510.218 CURVE SMOOTH",
"396.446 510.218 OFFCURVE",
"432.554 450.277 OFFCURVE",
"432.554 351.297 CURVE SMOOTH",
"432.554 223.99 OFFCURVE",
"362.337 39.188 OFFCURVE",
"214.594 39.188 CURVE SMOOTH",
"183.485 39.188 OFFCURVE",
"151.614 44.891 OFFCURVE",
"129.208 63 CURVE"
);
}
);
width = 555.24752;
},
{
layerId = "27298932-82AF-4578-9425-6304FDB19058";
paths = (
{
closed = 1;
nodes = (
"273.574 803.059 LINE",
"247.752 817 LINE",
"73.04 798.089 LINE",
"63.099 757.327 LINE",
"113.98 736.446 LINE",
"21.713 -9.762 LINE",
"-12.317 -254 LINE",
"138.218 -254 LINE",
"161.396 -68.525 LINE",
"165.455 -5.703 LINE",
"180.782 -7.851 OFFCURVE",
"196.317 -10 OFFCURVE",
"210.762 -10 CURVE SMOOTH",
"416.495 -10 OFFCURVE",
"543.05 152.634 OFFCURVE",
"543.05 356 CURVE SMOOTH",
"543.05 490.644 OFFCURVE",
"488.109 568 OFFCURVE",
"375.109 568 CURVE SMOOTH",
"315.693 568 OFFCURVE",
"269.277 543.287 OFFCURVE",
"237.307 515.752 CURVE"
);
},
{
closed = 1;
nodes = (
"227.307 438.05 LINE",
"247.455 462.584 OFFCURVE",
"274.584 482.891 OFFCURVE",
"307.802 482.891 CURVE SMOOTH",
"357.277 482.891 OFFCURVE",
"379.723 423.861 OFFCURVE",
"379.723 355.851 CURVE SMOOTH",
"379.723 208.505 OFFCURVE",
"336.832 57.406 OFFCURVE",
"223.703 57.406 CURVE SMOOTH",
"206.257 57.406 OFFCURVE",
"191.693 58.554 OFFCURVE",
"178.396 63 CURVE"
);
}
);
width = 574.37624;
}
);
leftKerningGroup = b;
leftMetricsKey = b;
rightKerningGroup = b;
rightMetricsKey = b;
unicode = 00FE;
},
{
glyphname = q;
lastChange = "2019-02-15 20:57:47 +0000";
layers = (
{
anchors = (
{
name = cr;
position = "{230.713, 790}";
},
{
name = top;
position = "{334.129, 613}";
}
);
layerId = "0C3FD5EE-D923-4A4A-8FDE-164881635915";
paths = (
{
closed = 1;
nodes = (
"503.386 556.713 LINE",
"456.366 546.822 LINE",
"429.307 557.822 OFFCURVE",
"387.594 568 OFFCURVE",
"354 568 CURVE SMOOTH",
"149.634 568 OFFCURVE",
"39.99 355.901 OFFCURVE",
"39.99 200.703 CURVE SMOOTH",
"39.99 79.297 OFFCURVE",
"88.812 -10.059 OFFCURVE",
"202.347 -10.059 CURVE SMOOTH",
"272.941 -10.059 OFFCURVE",
"321.574 27.168 OFFCURVE",
"360.98 76.743 CURVE",
"324.455 -195.337 LINE SMOOTH",
"318.515 -237.277 OFFCURVE",
"337.515 -256.762 OFFCURVE",
"372.188 -256.762 CURVE SMOOTH",
"438.554 -256.762 OFFCURVE",
"475.267 -203.584 OFFCURVE",
"482.505 -192.347 CURVE",
"469.446 -169.515 LINE",
"450.327 -189.337 OFFCURVE",
"429.861 -201.921 OFFCURVE",
"418.861 -201.921 CURVE SMOOTH",
"405.683 -201.921 OFFCURVE",
"400.683 -194.267 OFFCURVE",
"402.683 -176.327 CURVE SMOOTH"
);
},
{
closed = 1;
nodes = (
"370.099 143.693 LINE",
"335.168 96.119 OFFCURVE",
"288.297 47.723 OFFCURVE",
"215.851 47.723 CURVE SMOOTH",
"159.564 47.723 OFFCURVE",
"121.337 103.188 OFFCURVE",
"121.337 206.703 CURVE SMOOTH",
"121.337 338.584 OFFCURVE",
"192.96 518.812 OFFCURVE",
"342.059 518.812 CURVE SMOOTH",
"369.347 518.812 OFFCURVE",
"396.634 513.05 OFFCURVE",
"418.218 497.644 CURVE"
);
}
);
width = 555.30693;
},
{
anchors = (
{
name = cr;
position = "{241.644, 790}";
},
{
name = top;
position = "{351.436, 613}";
}
);
layerId = "27298932-82AF-4578-9425-6304FDB19058";
paths = (
{
closed = 1;
nodes = (
"555.307 567.644 LINE",
"477.317 544.089 LINE",
"449.347 555.089 OFFCURVE",
"396.703 568 OFFCURVE",
"354 568 CURVE SMOOTH",
"128.683 568 OFFCURVE",
"24.505 385.05 OFFCURVE",
"24.505 196.149 CURVE SMOOTH",
"24.505 83.851 OFFCURVE",
"70.594 -10.97 OFFCURVE",
"192.327 -10.97 CURVE SMOOTH",
"272.03 -10.97 OFFCURVE",
"299.713 14.416 OFFCURVE",
"330.01 42.129 CURVE",
"300.772 -169.832 LINE SMOOTH",
"295.743 -210.861 OFFCURVE",
"314.743 -253.119 OFFCURVE",
"390.406 -253.119 CURVE SMOOTH",
"477.723 -253.119 OFFCURVE",
"525.366 -197.208 OFFCURVE",
"536.248 -182.327 CURVE",
"522.277 -146.743 LINE",
"501.337 -163.832 OFFCURVE",
"489.069 -170.04 OFFCURVE",
"478.069 -170.04 CURVE SMOOTH",
"462.158 -170.04 OFFCURVE",
"457.158 -152.366 OFFCURVE",
"459.158 -135.337 CURVE SMOOTH"
);
},
{
closed = 1;
nodes = (
"340.95 123.653 LINE",
"322.416 97.941 OFFCURVE",
"292.851 74.139 OFFCURVE",
"259.574 74.139 CURVE SMOOTH",
"214.218 74.139 OFFCURVE",
"187.832 121.406 OFFCURVE",
"187.832 202.149 CURVE SMOOTH",
"187.832 332.208 OFFCURVE",
"223.02 500.594 OFFCURVE",
"342.97 500.594 CURVE SMOOTH",
"359.327 500.594 OFFCURVE",
"375.683 498.475 OFFCURVE",
"390.891 492.178 CURVE"
);
}
);
width = 575.34653;
}
);
leftKerningGroup = d;
rightKerningGroup = q;
unicode = 0071;
},
{
glyphname = r;
lastChange = "2019-02-15 20:57:47 +0000";
layers = (
{
anchors = (
{
name = bottom;
position = "{105.475, 0}";
},
{
name = top;
position = "{255.059, 555}";
}
);
layerId = "0C3FD5EE-D923-4A4A-8FDE-164881635915";
paths = (
{
closed = 1;
nodes = (
"202.436 468.406 LINE",
"209.317 556.644 LINE",
"190.842 566.119 LINE",
"86.218 544.822 LINE",
"79.158 509.347 LINE",
"129.277 485.99 LINE",
"66.277 0 LINE",
"144.267 0 LINE",
"187.802 348.96 LINE",
"223.733 438.267 OFFCURVE",
"296.535 481.891 OFFCURVE",
"353.406 481.891 CURVE SMOOTH",
"376 481.891 OFFCURVE",
"391.238 479.297 OFFCURVE",
"399.941 474.297 CURVE",
"417.95 560.822 LINE",
"411.069 565.762 OFFCURVE",
"396.248 567.059 OFFCURVE",
"385.832 567.059 CURVE SMOOTH",
"293.663 567.059 OFFCURVE",
"219.614 480.248 OFFCURVE",
"196.673 426.762 CURVE"
);
}
);
width = 411.17822;
},
{
anchors = (
{
name = bottom;
position = "{112.762, 0}";
},
{
name = top;
position = "{255.97, 555}";
}
);
layerId = "27298932-82AF-4578-9425-6304FDB19058";
paths = (
{
closed = 1;
nodes = (
"239.782 459.297 LINE",
"244.842 551.178 LINE",
"219.079 567.941 LINE",
"58.891 542.089 LINE",
"50.921 499.327 LINE",
"102.861 470.505 LINE",
"39.861 0 LINE",
"194.366 0 LINE",
"246.099 379.02 LINE",
"265.634 396.366 OFFCURVE",
"304.733 403.554 OFFCURVE",
"344.297 403.554 CURVE SMOOTH",
"376 403.554 OFFCURVE",
"394.881 391.851 OFFCURVE",
"399.03 386.851 CURVE",
"432.525 558.089 LINE",
"427.465 562.119 OFFCURVE",
"415.376 567.97 OFFCURVE",
"398.584 567.97 CURVE SMOOTH",
"319.168 567.97 OFFCURVE",
"259.693 499.376 OFFCURVE",
"237.663 423.119 CURVE"
);
}
);
width = 413.91089;
}
);
leftKerningGroup = n;
rightKerningGroup = r;
unicode = 0072;
},
{
glyphname = s;
lastChange = "2019-02-15 20:57:47 +0000";
layers = (
{
anchors = (
{
name = bottom;
position = "{166, 0}";
},
{
name = top;
position = "{258.238, 555}";
}
);
layerId = "0C3FD5EE-D923-4A4A-8FDE-164881635915";
paths = (
{
closed = 1;
nodes = (
"391.653 548.119 LINE",
"374.713 556.059 OFFCURVE",
"318.653 568 OFFCURVE",
"266.535 568 CURVE SMOOTH",
"164.277 568 OFFCURVE",
"77.98 509.347 OFFCURVE",
"77.98 414.109 CURVE SMOOTH",
"77.98 333.752 OFFCURVE",
"146.733 277.347 OFFCURVE",
"184.267 251.931 CURVE SMOOTH",
"226.099 222.396 OFFCURVE",
"281.733 185.812 OFFCURVE",
"281.733 128 CURVE SMOOTH",
"281.733 60.426 OFFCURVE",
"221.861 44.307 OFFCURVE",
"167.109 44.307 CURVE SMOOTH",
"106.347 44.307 OFFCURVE",
"53.406 67.198 OFFCURVE",
"32.406 82.495 CURVE",
"18.752 21.178 LINE",
"35.871 5.238 OFFCURVE",
"103.347 -10 OFFCURVE",
"163.525 -10 CURVE SMOOTH",
"266.772 -10 OFFCURVE",
"357.079 43.297 OFFCURVE",
"357.079 143.663 CURVE SMOOTH",
"357.079 226.604 OFFCURVE",
"286.802 275.069 OFFCURVE",
"240.208 311.307 CURVE SMOOTH",
"198.139 342.02 OFFCURVE",
"149.446 381.248 OFFCURVE",
"153.208 438.119 CURVE SMOOTH",
"157.911 491.228 OFFCURVE",
"201.436 515.871 OFFCURVE",
"263.188 515.871 CURVE SMOOTH",
"324.594 515.871 OFFCURVE",
"369.941 489.337 OFFCURVE",
"376.297 480.04 CURVE"
);
}
);
width = 424.59406;
},
{
anchors = (
{
name = bottom;
position = "{166, 0}";
},
{
name = top;
position = "{261.881, 555}";
}
);
layerId = "27298932-82AF-4578-9425-6304FDB19058";
paths = (
{
closed = 1;
nodes = (
"401.673 549.941 LINE",
"385.644 556.97 OFFCURVE",
"328.673 568 OFFCURVE",
"274.733 568 CURVE SMOOTH",
"137.861 568 OFFCURVE",
"47.01 499.327 OFFCURVE",
"47.01 400.446 CURVE SMOOTH",
"47.01 314.624 OFFCURVE",
"96.634 267.327 OFFCURVE",
"142.366 235.535 CURVE SMOOTH",
"196.95 197.802 OFFCURVE",
"231.634 167.594 OFFCURVE",
"231.634 128 CURVE SMOOTH",
"231.634 82.287 OFFCURVE",
"189.069 64.347 OFFCURVE",
"153.446 64.347 CURVE SMOOTH",
"96.327 64.347 OFFCURVE",
"44.297 100.901 OFFCURVE",
"23.297 120.752 CURVE",
"-0.376 23.911 LINE",
"18.564 8.881 OFFCURVE",
"93.327 -10 OFFCURVE",
"156.238 -10 CURVE SMOOTH",
"278.614 -10 OFFCURVE",
"388.96 47.851 OFFCURVE",
"388.96 169.168 CURVE SMOOTH",
"388.96 251.198 OFFCURVE",
"345.099 291.465 OFFCURVE",
"289.396 331.347 CURVE SMOOTH",
"230.931 372.99 OFFCURVE",
"202.277 400.376 OFFCURVE",
"202.396 439.941 CURVE SMOOTH",
"202.545 479.386 OFFCURVE",
"238.782 498.564 OFFCURVE",
"281.406 498.564 CURVE SMOOTH",
"333.703 498.564 OFFCURVE",
"369.03 463.832 OFFCURVE",
"380.851 449.98 CURVE"
);
}
);
width = 433.70297;
}
);
leftKerningGroup = s;
rightKerningGroup = s;
unicode = 0073;
},
{
glyphname = germandbls;
lastChange = "2019-02-15 20:57:47 +0000";
layers = (
{
layerId = "0C3FD5EE-D923-4A4A-8FDE-164881635915";
paths = (
{
closed = 1;
nodes = (
"39.277 0 LINE",
"116.683 0 LINE",
"180.911 473.792 LINE SMOOTH",
"211.436 699.96 OFFCURVE",
"274.366 733.812 OFFCURVE",
"360.238 733.812 CURVE SMOOTH",
"426.871 733.812 OFFCURVE",
"453.574 682.584 OFFCURVE",
"453.574 630.822 CURVE SMOOTH",
"453.574 571.119 OFFCURVE",
"420.871 527.059 OFFCURVE",
"373.347 485.178 CURVE SMOOTH",
"347.99 457.881 OFFCURVE",
"327.871 437.762 OFFCURVE",
"327.871 395.465 CURVE SMOOTH",
"327.871 355.347 OFFCURVE",
"370.98 300.347 OFFCURVE",
"398.802 264.406 CURVE SMOOTH",
"419.743 233.406 OFFCURVE",
"441.921 190.228 OFFCURVE",
"441.921 145.584 CURVE SMOOTH",
"441.921 68.703 OFFCURVE",
"394.515 44.95 OFFCURVE",
"329.535 43.95 CURVE SMOOTH",
"285.129 43.891 OFFCURVE",
"231.248 74.772 OFFCURVE",
"215.426 93.772 CURVE",
"206.188 19.703 LINE",
"226.366 6.762 OFFCURVE",
"272.891 -8.475 OFFCURVE",
"319.911 -8.475 CURVE SMOOTH",
"427.04 -8.475 OFFCURVE",
"524.149 65.406 OFFCURVE",
"524.149 158.535 CURVE SMOOTH",
"524.149 223.069 OFFCURVE",
"492.02 268.069 OFFCURVE",
"465.604 307.129 CURVE SMOOTH",
"425.079 358.653 OFFCURVE",
"398.733 389.941 OFFCURVE",
"398.733 414.762 CURVE SMOOTH",
"398.733 482.535 OFFCURVE",
"532.743 527.554 OFFCURVE",
"532.743 641.05 CURVE SMOOTH",
"532.743 730.406 OFFCURVE",
"465.901 774 OFFCURVE",
"377.95 774 CURVE SMOOTH",
"270.881 774 OFFCURVE",
"140.98 745.059 OFFCURVE",
"101.802 453 CURVE SMOOTH"
);
}
);
width = 570.9604;
},
{
layerId = "27298932-82AF-4578-9425-6304FDB19058";
paths = (
{
closed = 1;
nodes = (
"12.861 0 LINE",
"173.158 0 LINE",
"225.545 424.604 LINE SMOOTH",
"248.782 638.02 OFFCURVE",
"295.317 715.594 OFFCURVE",
"363.881 715.594 CURVE SMOOTH",
"409.564 715.594 OFFCURVE",
"431.713 676.208 OFFCURVE",
"431.713 628.089 CURVE SMOOTH",
"431.713 572.941 OFFCURVE",
"403.564 527.97 OFFCURVE",
"363.327 487.911 CURVE SMOOTH",
"332.505 456.059 OFFCURVE",
"310.564 434.119 OFFCURVE",
"310.564 387.267 CURVE SMOOTH",
"310.564 345.327 OFFCURVE",
"340.01 290.327 OFFCURVE",
"365.099 255.297 CURVE SMOOTH",
"385.129 224.297 OFFCURVE",
"410.04 178.386 OFFCURVE",
"410.04 139.208 CURVE SMOOTH",
"410.04 64.149 OFFCURVE",
"371.743 59.525 OFFCURVE",
"337.733 58.525 CURVE SMOOTH",
"302.436 57.554 OFFCURVE",
"250.376 86.614 OFFCURVE",
"237.287 105.614 CURVE",
"224.406 15.149 LINE",
"247.317 3.119 OFFCURVE",
"286.554 -15.762 OFFCURVE",
"364.545 -15.762 CURVE SMOOTH",
"488.98 -15.762 OFFCURVE",
"572.426 56.297 OFFCURVE",
"572.426 166.733 CURVE SMOOTH",
"572.426 239.465 OFFCURVE",
"522.99 284.465 OFFCURVE",
"490.198 324.436 CURVE SMOOTH",
"456.96 368.673 OFFCURVE",
"440.634 389.03 OFFCURVE",
"440.634 411.119 CURVE SMOOTH",
"440.634 490.733 OFFCURVE",
"590.129 474.723 OFFCURVE",
"590.129 626.475 CURVE SMOOTH",
"590.129 721.297 OFFCURVE",
"495.05 774 OFFCURVE",
"392.525 774 CURVE SMOOTH",
"269.059 774 OFFCURVE",
"110.01 745.97 OFFCURVE",
"68.099 453 CURVE SMOOTH"
);
}
);
width = 601.0198;
}
);
leftKerningGroup = germandbls;
rightKerningGroup = o;
unicode = 00DF;
},
{
glyphname = t;
lastChange = "2019-02-15 20:57:47 +0000";
layers = (
{
anchors = (
{
name = bottom;
position = "{125.069, 0}";
},
{
name = car;
position = "{238.97, 555}";
},
{
name = top;
position = "{201.495, 635.594}";
}
);
layerId = "0C3FD5EE-D923-4A4A-8FDE-164881635915";
paths = (
{
closed = 1;
nodes = (
"197.693 499.515 LINE",
"333.554 499.515 LINE",
"340.792 555 LINE",
"203.99 555 LINE",
"222.228 691 LINE",
"182.426 691 LINE",
"169.01 649.584 OFFCURVE",
"144.653 577 OFFCURVE",
"126.941 553.941 CURVE",
"64.525 534.703 LINE",
"56.287 499.515 LINE",
"117.703 499.515 LINE",
"66.119 137.564 LINE SMOOTH",
"62.406 113.931 OFFCURVE",
"60.644 89.703 OFFCURVE",
"60.644 72.356 CURVE SMOOTH",
"60.644 14.762 OFFCURVE",
"92.535 -10 OFFCURVE",
"143.356 -10 CURVE SMOOTH",
"220.198 -10 OFFCURVE",
"277.079 30.594 OFFCURVE",
"298.554 56.01 CURVE",
"286.554 96.891 LINE",
"268.139 81.535 OFFCURVE",
"230.149 54.782 OFFCURVE",
"172.228 54.782 CURVE SMOOTH",
"151.05 54.782 OFFCURVE",
"140.931 66.842 OFFCURVE",
"140.931 86.317 CURVE SMOOTH",
"140.931 117.366 OFFCURVE",
"142.99 135.426 OFFCURVE",
"147.99 169.307 CURVE SMOOTH"
);
}
);
width = 345.24752;
},
{
anchors = (
{
name = bottom;
position = "{141.465, 0}";
},
{
name = car;
position = "{284.515, 555}";
},
{
name = top;
position = "{239.752, 644.703}";
}
);
layerId = "27298932-82AF-4578-9425-6304FDB19058";
paths = (
{
closed = 1;
nodes = (
"269.653 476.743 LINE",
"372.723 476.743 LINE",
"383.604 555 LINE",
"280.505 555 LINE",
"302.386 691 LINE",
"204.287 691 LINE",
"184.495 643.208 OFFCURVE",
"154.673 577 OFFCURVE",
"126.03 553.03 CURVE",
"57.238 530.149 LINE",
"45.356 476.743 LINE",
"113.149 476.743 LINE",
"67.941 192.218 LINE SMOOTH",
"53.297 97.535 OFFCURVE",
"55.178 85.149 OFFCURVE",
"55.178 77.822 CURVE SMOOTH",
"55.178 11.119 OFFCURVE",
"100.733 -10 OFFCURVE",
"148.822 -10 CURVE SMOOTH",
"253.901 -10 OFFCURVE",
"308.96 39.703 OFFCURVE",
"337.723 71.495 CURVE",
"325.723 110.554 LINE",
"300.931 89.733 OFFCURVE",
"278.426 82.109 OFFCURVE",
"252.386 82.109 CURVE SMOOTH",
"228.475 82.109 OFFCURVE",
"216.535 95.079 OFFCURVE",
"216.535 121.842 CURVE SMOOTH",
"216.535 138.317 OFFCURVE",
"219.505 157.287 OFFCURVE",
"224.505 189.347 CURVE SMOOTH"
);
}
);
width = 364.37624;
}
);
leftKerningGroup = t;
rightKerningGroup = t;
unicode = 0074;
},
{
glyphname = tbar;
lastChange = "2019-02-15 20:57:47 +0000";
layers = (
{
layerId = "0C3FD5EE-D923-4A4A-8FDE-164881635915";
paths = (
{
closed = 1;
nodes = (
"184.208 309.584 LINE",
"324.832 309.584 LINE",
"330.95 361.356 LINE",
"191.327 361.356 LINE",
"210.089 499.515 LINE",
"346.485 499.515 LINE",
"353.723 555 LINE",
"216.386 555 LINE",
"234.327 691 LINE",
"194.941 691 LINE",
"181.525 649.584 OFFCURVE",
"157.168 577 OFFCURVE",
"139.455 553.941 CURVE",
"77.574 534.703 LINE",
"69.337 499.515 LINE",
"130.218 499.515 LINE",
"112.337 361.356 LINE",
"44.525 361.356 LINE",
"39.347 309.584 LINE",
"105.277 309.584 LINE",
"82.752 134.743 LINE",
"78.218 90.416 OFFCURVE",
"78.218 79.356 OFFCURVE",
"78.218 72.356 CURVE SMOOTH",
"78.218 14.762 OFFCURVE",
"110.109 -10 OFFCURVE",
"163.752 -10 CURVE SMOOTH",
"221.782 -10 OFFCURVE",
"291.426 32.475 OFFCURVE",
"312.901 57.891 CURVE",
"304.663 89.366 LINE",
"286.248 74.01 OFFCURVE",
"236.317 47.257 OFFCURVE",
"205.673 47.257 CURVE SMOOTH",
"168.505 47.257 OFFCURVE",
"158.386 59.317 OFFCURVE",
"158.386 93.842 CURVE SMOOTH",
"158.386 109.842 OFFCURVE",
"161.386 135.426 OFFCURVE",
"165.446 169.307 CURVE SMOOTH"
);
}
);
width = 356.82178;
},
{
layerId = "27298932-82AF-4578-9425-6304FDB19058";
paths = (
{
closed = 1;
nodes = (
"233.396 303.208 LINE",
"337.584 303.208 LINE",
"345.525 366.822 LINE",
"242.337 366.822 LINE",
"257.455 476.743 LINE",
"369.257 476.743 LINE",
"380.139 555 LINE",
"268.307 555 LINE",
"285.337 691 LINE",
"194.03 691 LINE",
"174.238 643.208 OFFCURVE",
"144.416 577 OFFCURVE",
"115.772 553.03 CURVE",
"55.713 530.149 LINE",
"43.832 476.743 LINE",
"102.891 476.743 LINE",
"86.832 366.822 LINE",
"37.238 366.822 LINE",
"29.327 303.208 LINE",
"78.861 303.208 LINE",
"63.624 192.129 LINE SMOOTH",
"50.891 96.792 OFFCURVE",
"50.891 84.822 OFFCURVE",
"50.891 77.822 CURVE SMOOTH",
"50.891 11.119 OFFCURVE",
"96.446 -10 OFFCURVE",
"144.624 -10 CURVE SMOOTH",
"249.109 -10 OFFCURVE",
"313.287 39.762 OFFCURVE",
"342.05 71.554 CURVE",
"330.168 110.317 LINE",
"305.376 89.495 OFFCURVE",
"271.842 81.871 OFFCURVE",
"246.663 81.871 CURVE SMOOTH",
"222.248 81.871 OFFCURVE",
"210.307 94.842 OFFCURVE",
"210.307 122.079 CURVE SMOOTH",
"210.307 138.079 OFFCURVE",
"213.307 157.287 OFFCURVE",
"218.277 189.347 CURVE SMOOTH"
);
}
);
width = 354.08911;
}
);
leftKerningGroup = t;
rightKerningGroup = t;
unicode = 0167;
},
{
glyphname = u;
lastChange = "2019-02-15 20:57:47 +0000";
layers = (
{
anchors = (
{
name = bottom;
position = "{247.426, 0}";
},
{
name = ogonek;
position = "{465.257, 10}";
},
{
name = top;
position = "{320.545, 555}";
},
{
name = topright;
position = "{569.218, 554.594}";
}
);
layerId = "0C3FD5EE-D923-4A4A-8FDE-164881635915";
paths = (
{
closed = 1;
nodes = (
"201.337 556 LINE",
"181.98 566.119 LINE",
"75.277 545.416 LINE",
"69.158 509.941 LINE",
"117.99 485.99 LINE",
"91.05 295.762 LINE SMOOTH",
"82.99 237.584 OFFCURVE",
"73.812 168.525 OFFCURVE",
"73.812 123.465 CURVE SMOOTH",
"73.931 21 OFFCURVE",
"122.069 -10 OFFCURVE",
"194.238 -10 CURVE SMOOTH",
"273.653 -10 OFFCURVE",
"337.762 43.347 OFFCURVE",
"379.228 94.515 CURVE",
"380.287 93.515 LINE",
"379.228 80.693 OFFCURVE",
"376.406 61.287 OFFCURVE",
"375.584 56.99 CURVE SMOOTH",
"369.416 16.584 OFFCURVE",
"387.069 -9.059 OFFCURVE",
"423.198 -9.059 CURVE SMOOTH",
"477.683 -9.059 OFFCURVE",
"523.861 42.119 OFFCURVE",
"531.98 55.356 CURVE",
"519.861 78.129 LINE",
"495.802 53.545 OFFCURVE",
"479.337 43.901 OFFCURVE",
"465.515 43.901 CURVE SMOOTH",
"456.158 43.901 OFFCURVE",
"450.04 54.901 OFFCURVE",
"453.04 79.96 CURVE SMOOTH",
"516.98 562.119 LINE",
"439.752 562.119 LINE",
"386.337 151.099 LINE",
"350.168 99.703 OFFCURVE",
"283.307 45.663 OFFCURVE",
"226.436 45.663 CURVE SMOOTH",
"181.267 45.663 OFFCURVE",
"151.277 61.842 OFFCURVE",
"151.277 136.119 CURVE SMOOTH",
"151.277 186.693 OFFCURVE",
"160.337 233.762 OFFCURVE",
"167.396 291.762 CURVE"
);
}
);
width = 583.55446;
},
{
anchors = (
{
name = bottom;
position = "{269.287, 0}";
},
{
name = ogonek;
position = "{499.871, 10}";
},
{
name = top;
position = "{344.228, 555}";
},
{
name = topright;
position = "{633.891, 563.703}";
}
);
layerId = "27298932-82AF-4578-9425-6304FDB19058";
paths = (
{
closed = 1;
nodes = (
"267.832 556 LINE",
"243.01 567.941 LINE",
"48.861 551.792 LINE",
"40.921 509.03 LINE",
"102.505 470.505 LINE",
"76.475 292.119 LINE SMOOTH",
"67.505 231.208 OFFCURVE",
"55.594 161.238 OFFCURVE",
"55.594 115.267 CURVE SMOOTH",
"57.535 21 OFFCURVE",
"138.465 -10 OFFCURVE",
"197.881 -10 CURVE SMOOTH",
"283.673 -10 OFFCURVE",
"334.119 33.327 OFFCURVE",
"367.386 71.743 CURVE",
"369.356 70.743 LINE",
"367.386 60.653 OFFCURVE",
"367.297 50.356 OFFCURVE",
"369.208 41.505 CURVE SMOOTH",
"375.792 10.208 OFFCURVE",
"403.465 -9.97 OFFCURVE",
"456.901 -9.97 CURVE SMOOTH",
"534.158 -9.97 OFFCURVE",
"583.069 43.941 OFFCURVE",
"593.01 60.822 CURVE",
"579.069 95.436 LINE",
"554.099 77.228 OFFCURVE",
"545.832 73.05 OFFCURVE",
"534.743 73.05 CURVE SMOOTH",
"519.921 73.05 OFFCURVE",
"511.98 84.05 OFFCURVE",
"514.98 110.02 CURVE SMOOTH",
"578.01 563.941 LINE",
"420.624 563.941 LINE",
"360.832 121.95 LINE",
"337.416 95.149 OFFCURVE",
"303.347 71.168 OFFCURVE",
"263.782 71.168 CURVE SMOOTH",
"231.366 71.168 OFFCURVE",
"216.861 90.079 OFFCURVE",
"216.861 137.941 CURVE SMOOTH",
"216.861 166.653 OFFCURVE",
"226.832 230.119 OFFCURVE",
"234.802 288.119 CURVE SMOOTH"
);
}
);
width = 622.72277;
}
);
leftKerningGroup = u;
rightKerningGroup = u;
unicode = 0075;
},
{
glyphname = uhorn;
lastChange = "2019-02-15 20:57:47 +0000";
layers = (
{
anchors = (
{
name = bottom;
position = "{247.426, 0}";
},
{
name = top;
position = "{311.356, 555}";
}
);
layerId = "0C3FD5EE-D923-4A4A-8FDE-164881635915";
paths = (
{
closed = 1;
nodes = (
"273.653 -10 OFFCURVE",
"337.762 43.347 OFFCURVE",
"379.228 94.515 CURVE",
"380.287 93.515 LINE",
"379.228 80.693 OFFCURVE",
"376.406 61.287 OFFCURVE",
"375.584 56.99 CURVE",
"369.416 16.584 OFFCURVE",
"387.069 -9.059 OFFCURVE",
"423.198 -9.059 CURVE SMOOTH",
"477.683 -9.059 OFFCURVE",
"523.861 42.119 OFFCURVE",
"531.98 55.356 CURVE",
"519.861 78.129 LINE",
"495.802 53.545 OFFCURVE",
"479.337 43.901 OFFCURVE",
"465.515 43.901 CURVE SMOOTH",
"456.158 43.901 OFFCURVE",
"450.04 54.901 OFFCURVE",
"453.04 79.96 CURVE SMOOTH",
"509.861 508.465 LINE",
"579.931 527.297 OFFCURVE",
"631.871 565.426 OFFCURVE",
"641.277 631.673 CURVE SMOOTH",
"642.218 639.267 OFFCURVE",
"643.099 659.554 OFFCURVE",
"643.04 667.792 CURVE",
"562.485 667.792 LINE",
"562.485 643.267 LINE SMOOTH",
"562.485 601.416 OFFCURVE",
"536.713 575.356 OFFCURVE",
"499.663 562.356 CURVE",
"439.752 562.119 LINE",
"386.337 151.099 LINE",
"350.168 99.703 OFFCURVE",
"283.307 45.663 OFFCURVE",
"226.436 45.663 CURVE SMOOTH",
"181.267 45.663 OFFCURVE",
"151.277 61.842 OFFCURVE",
"151.277 136.119 CURVE SMOOTH",
"151.277 186.693 OFFCURVE",
"160.337 233.762 OFFCURVE",
"167.396 291.762 CURVE SMOOTH",
"201.337 556 LINE",
"181.98 566.119 LINE",
"75.277 545.416 LINE",
"69.158 509.941 LINE",
"117.99 485.99 LINE",
"91.05 295.762 LINE SMOOTH",
"82.99 237.584 OFFCURVE",
"73.812 168.525 OFFCURVE",
"73.812 123.465 CURVE SMOOTH",
"73.931 21 OFFCURVE",
"122.069 -10 OFFCURVE",
"194.238 -10 CURVE SMOOTH"
);
}
);
width = 590.37624;
},
{
anchors = (
{
name = bottom;
position = "{269.287, 0}";
},
{
name = top;
position = "{316.822, 555}";
}
);
layerId = "27298932-82AF-4578-9425-6304FDB19058";
paths = (
{
closed = 1;
nodes = (
"283.673 -10 OFFCURVE",
"334.119 33.327 OFFCURVE",
"367.386 71.743 CURVE",
"369.356 70.743 LINE",
"367.386 60.653 OFFCURVE",
"367.297 50.356 OFFCURVE",
"369.208 41.505 CURVE SMOOTH",
"375.792 10.208 OFFCURVE",
"403.465 -9.97 OFFCURVE",
"456.901 -9.97 CURVE SMOOTH",
"534.158 -9.97 OFFCURVE",
"583.069 43.941 OFFCURVE",
"593.01 60.822 CURVE",
"579.069 95.436 LINE",
"554.099 77.228 OFFCURVE",
"545.832 73.05 OFFCURVE",
"534.743 73.05 CURVE SMOOTH",
"519.921 73.05 OFFCURVE",
"511.98 84.05 OFFCURVE",
"514.98 110.02 CURVE SMOOTH",
"569.069 500.267 LINE",
"655.535 531.851 OFFCURVE",
"706.564 587.287 OFFCURVE",
"706.861 672.663 CURVE SMOOTH",
"706.891 689.366 OFFCURVE",
"705.95 698.723 OFFCURVE",
"704.98 710.604 CURVE",
"585.257 710.604 LINE",
"585.257 693.366 LINE SMOOTH",
"585.257 607.792 OFFCURVE",
"547.644 580.822 OFFCURVE",
"525.168 567.822 CURVE",
"420.624 563.941 LINE",
"360.832 121.95 LINE",
"337.416 95.149 OFFCURVE",
"303.347 71.168 OFFCURVE",
"263.782 71.168 CURVE SMOOTH",
"231.366 71.168 OFFCURVE",
"216.861 90.079 OFFCURVE",
"216.861 137.941 CURVE SMOOTH",
"216.861 166.653 OFFCURVE",
"226.832 230.119 OFFCURVE",
"234.802 288.119 CURVE SMOOTH",
"267.832 556 LINE",
"243.01 567.941 LINE",
"48.861 551.792 LINE",
"40.921 509.03 LINE",
"102.505 470.505 LINE",
"76.475 292.119 LINE SMOOTH",
"67.505 231.208 OFFCURVE",
"55.594 161.238 OFFCURVE",
"55.594 115.267 CURVE SMOOTH",
"57.535 21 OFFCURVE",
"138.465 -10 OFFCURVE",
"197.881 -10 CURVE SMOOTH"
);
}
);
width = 626.81188;
}
);
leftKerningGroup = u;
leftMetricsKey = u;
rightKerningGroup = u;
unicode = 01B0;
},
{
glyphname = v;
lastChange = "2019-02-15 20:57:47 +0000";
layers = (
{
anchors = (
{
name = top;
position = "{280.604, 555}";
}
);
layerId = "0C3FD5EE-D923-4A4A-8FDE-164881635915";
paths = (
{
closed = 1;
nodes = (
"138.574 172.059 LINE",
"168.109 -10 LINE",
"227.842 -3.941 LINE",
"340.198 145.455 LINE SMOOTH",
"411.188 243.277 OFFCURVE",
"490.673 378.931 OFFCURVE",
"490.554 474.228 CURVE SMOOTH",
"490.495 529.109 OFFCURVE",
"471.317 567.059 OFFCURVE",
"436.475 567.059 CURVE SMOOTH",
"414.812 567.059 OFFCURVE",
"398.98 552.931 OFFCURVE",
"398.98 523.337 CURVE SMOOTH",
"398.98 503.386 OFFCURVE",
"416.743 481.267 OFFCURVE",
"413.921 447.683 CURVE SMOOTH",
"405.455 341.574 OFFCURVE",
"350.594 246.644 OFFCURVE",
"289.832 159.703 CURVE SMOOTH",
"217.802 67.149 LINE",
"206.564 174.97 LINE",
"168.089 500.059 LINE SMOOTH",
"162.97 539.297 OFFCURVE",
"152.901 567.059 OFFCURVE",
"107.069 567.059 CURVE SMOOTH",
"59.822 567.059 OFFCURVE",
"23.812 525.703 OFFCURVE",
"17.634 515.703 CURVE",
"28.871 489.931 LINE",
"37.752 497.693 OFFCURVE",
"50.337 509.158 OFFCURVE",
"65.099 509.158 CURVE SMOOTH",
"78.861 509.158 OFFCURVE",
"85.861 495.574 OFFCURVE",
"88.921 475.574 CURVE SMOOTH"
);
}
);
width = 522.89109;
},
{
anchors = (
{
name = top;
position = "{305.198, 555}";
}
);
layerId = "27298932-82AF-4578-9425-6304FDB19058";
paths = (
{
closed = 1;
nodes = (
"116.713 172.97 LINE",
"154.446 -10 LINE",
"256.079 -3.03 LINE",
"281.901 29.772 LINE SMOOTH",
"429.406 216.861 OFFCURVE",
"531.663 362.535 OFFCURVE",
"529.723 462.386 CURVE SMOOTH",
"528.752 515.446 OFFCURVE",
"506.842 567.97 OFFCURVE",
"443.762 567.97 CURVE SMOOTH",
"396.594 567.97 OFFCURVE",
"368.01 536.535 OFFCURVE",
"368.01 497.832 CURVE SMOOTH",
"368.01 463.307 OFFCURVE",
"382.129 439.366 OFFCURVE",
"382.04 412.158 CURVE SMOOTH",
"381.772 319.713 OFFCURVE",
"359.703 241.178 OFFCURVE",
"302.584 155.149 CURVE SMOOTH",
"276.099 115.426 LINE",
"261.218 220.515 LINE",
"215.455 500.97 LINE SMOOTH",
"208.515 543.851 OFFCURVE",
"182.05 567.97 OFFCURVE",
"123.465 567.97 CURVE SMOOTH",
"57.089 567.97 OFFCURVE",
"5.594 521.149 OFFCURVE",
"-3.317 511.149 CURVE",
"11.564 473.535 LINE",
"18.624 477.653 OFFCURVE",
"24.832 480.921 OFFCURVE",
"35.95 480.921 CURVE SMOOTH",
"46.069 480.921 OFFCURVE",
"53.069 473.713 OFFCURVE",
"57.04 453.713 CURVE SMOOTH"
);
}
);
width = 536.55446;
}
);
leftKerningGroup = v;
rightKerningGroup = v;
unicode = 0076;
},
